<svg xmlns="http://www.w3.org/2000/svg" width="175" height="175"><path opacity=".2" fill-rule="evenodd" clip-rule="evenodd" d="M4.773 111c9.579 36.668 42.922 63.73 82.592 63.73 39.671 0 73.014-27.062 82.593-63.73h-165.185z"/><circle fill-rule="evenodd" clip-rule="evenodd" fill="#ECEDDF" cx="91.061" cy="84.061" r="84.061"/><path fill-rule="evenodd" clip-rule="evenodd" fill="#FF6924" d="M60.127 102.209c-.68.193-1.405.359-2.104.603-2.312.807-4.284 2.122-5.812 4.054-.928 1.172-1.466 2.506-1.442 4.017.015 1.071.454 1.95 1.464 2.685 0-.467-.021-.811.003-1.152.112-1.534 1.318-2.641 2.785-2.568 1.34.066 2.237 1.271 1.908 2.674-.123.523-.351 1.092-.704 1.482-1.573 1.74-3.559 2.572-5.911 2.291-1.783-.213-3.073-1.758-3.181-3.613-.101-1.766.45-3.345 1.419-4.781 2.102-3.112 5.086-5.066 8.566-6.285 1.5-.523 3.081-.812 4.62-1.225.294-.078.578-.217.849-.365.444-.243.851-.566 1.315-.757.303-.125.678-.075 1.021-.102v.909c.664.086 1.436.141 2.186.291 2.41.477 4.101 1.824 4.757 4.242.642 2.376-.198 4.316-1.98 5.91l-.318.195.306.207c3.053.729 4.263 3.795 4.157 6.312-.106 2.54-1.343 4.507-3.174 6.141-2.111 1.885-4.581 2.96-7.439 2.979-.643.006-1.315-.105-1.919-.32-.548-.195-.794-.043-1.13.367-1.613 1.967-3.603 3.364-6.155 3.802-1.069.184-2.029-.169-2.771-.946-.205-.213-.354-.726-.237-.93.124-.215.674-.389.916-.288 1.575.653 2.599-.2 3.555-1.224 1.243-1.325 1.659-3.014 1.76-4.738.178-2.992.149-5.996.33-8.986.134-2.215.33-4.446.76-6.617.282-1.439 1.026-2.785 1.6-4.264zm8.646 15.584c-.194-.559-.43-1.66-.941-2.613-.768-1.43-2.247-1.9-3.796-1.492-.613.162-.847.425-.833 1.094.069 2.885-.091 5.748-1.03 8.518-.055.159.148.527.328.628 1.491.822 3.436.392 4.639-1.026 1.113-1.31 1.521-2.882 1.633-5.109zm-5.237-15.531c-.5 3.241-.527 6.453-.426 9.676 2.224-.004 3.825-2.094 4.02-5.105.15-2.354-1.297-4.274-3.594-4.571z"/><path fill-rule="evenodd" clip-rule="evenodd" fill="#FF6924" d="M88.863 103.322c1.023-.367 2.025-.714 3.018-1.092.442-.169.583.066.653.409.052.253.054.515.091.928.233-.315.355-.552.541-.717.691-.624 1.327-1.369 2.128-1.806 1.417-.77 2.392-.282 2.91 1.311 1.972-2.466 4.119-4.49 7.665-3.25v-.884c1.021-.312 2.076-.647 3.139-.953.523-.15.578.269.561.6-.045.869-.125 1.736-.221 2.602-.432 3.942-.873 7.886-1.31 11.829l.057.182c.496.084 1.058.076 1.526.279.85.369 1.742.748 2.439 1.334.849.711.857 1.962.25 2.93-.528.84-1.434 1.168-2.469.896-.701-.185-1.125-.616-1.242-1.431.252.037.469.123.659.081.42-.089.96-.126 1.196-.403.217-.252.216-.824.108-1.197-.206-.711-1.864-1.53-2.562-1.305-.159.051-.273.349-.342.557-.565 1.669-1.046 3.369-1.688 5.006-.526 1.338-1.373 2.502-2.54 3.391-.907.689-1.913 1.131-3.072 1.151-2.416.044-3.89-1.688-3.479-4.079.198-1.16.772-2.127 1.536-2.996 1.44-1.639 3.209-2.797 5.284-3.441.619-.191.871-.496.896-1.1.024-.599.082-1.193.141-1.993l-.48.547c-1.779 2.161-4.761 1.983-6.235-.404-.966-1.562-1.062-3.283-.763-5.052l.117-.725c-1.75.723-2.193.617-3.24-.891-.413.594-.945 1.078-1.117 1.668-.348 1.195-.612 2.44-.707 3.68-.141 1.783-.115 3.58-.126 5.369-.003.504-.128.79-.649.949-.923.281-1.818.658-2.736.958-.194.063-.442-.04-.77-.079-2 2.092-3.903 1.96-5.691-.539-.224.703-.408 1.393-.662 2.055-.4 1.051-1.073 1.89-2.101 2.4-1.583.791-3.251.365-4.036-1.213-.438-.879-.686-1.922-.743-2.906-.097-1.637.048-3.287.049-4.932 0-.672-.107-1.342-.176-2.137.946-.38 1.95-.85 2.996-1.182.641-.203.677.382.68.817.007 1.644-.021 3.291-.011 4.937.003.455.081.912.152 1.363.033.211.118.42.212.615.484 1.006 1.496 1.115 2.101.181.35-.54.616-1.156.804-1.772.581-1.907.729-5.854.326-7.868 1.004-.402 2.019-.835 3.054-1.214.533-.195.625.239.63.613l-.022 2.394c.029 1.305.076 2.608.148 3.912.017.276.13.568.264.818.452.837 1.308.96 1.873.198.361-.488.682-1.112.733-1.699.19-2.168.269-4.344.369-6.52.018-.357-.069-.717-.116-1.18zm11.973 2.106c.147.441.312 1.339.734 2.092.6 1.066 1.847 1.107 2.579.129.409-.549.769-1.197.931-1.854.283-1.145.451-2.324.564-3.5.08-.815-.125-1.639-.934-2.049-.792-.4-1.5-.011-2.127.488-.205.165-.38.373-.541.584-.83 1.077-1.108 2.336-1.206 4.11zm3.453 8.64c-.246.066-.393.079-.514.139-2.272 1.131-3.758 2.93-4.336 5.393-.156.67-.061 1.443.092 2.131.168.758.822 1.071 1.518.73.514-.252 1.04-.658 1.348-1.133 1.415-2.182 1.56-4.704 1.892-7.26z"/><path fill-rule="evenodd" clip-rule="evenodd" fill="#FF6924" d="M77.127 99.157c.024.356-.017.53.051.631.273.401.509.958.898 1.114.347.141.968-.049 1.303-.307.915-.707 1.398-1.747 1.607-2.854.617-3.252 1.195-6.515 1.739-9.78.271-1.635.517-3.267 1.604-4.596.312-.381.747-.67 1.16-.953.113-.078.348.021.526.038-.022.159.012.365-.078.467-.616.711-.492 1.508-.215 2.267.588 1.611 1.238 3.2 1.87 4.795.423 1.073.859 2.142 1.366 3.402.137-.431.229-.688.3-.954.949-3.479 1.946-6.942 3.657-10.146.761-1.423 1.639-2.755 3.109-3.552.309-.167.679-.224 1.02-.333l.115.177-.217.493c-.341.838-.938 1.667-.97 2.519-.124 3.283-.081 6.571-.063 9.858.002.445.166.904.332 1.328.318.818.8 1.007 1.611.641.99-.447 1.656-1.233 2.148-2.18.694-1.343 1.008-2.83 1.068-5.043.732-.233 1.479-.516 2.248-.701.748-.179.315.589.633.872.15-.175.272-.381.451-.51.617-.444 1.205-.996 1.898-1.258 1.098-.416 1.988.467 1.746 1.623-.156.752-.615 1.255-1.371 1.436-.772.183-1.224-.267-1.682-1.071-.368.507-.818.891-.951 1.365-.32 1.131-.545 2.298-.699 3.465-.139 1.052-.15 2.123-.181 3.188-.013.432-.157.651-.587.764-.769.203-1.524.462-2.343.715l-.122-.76c-.279.242-.504.455-.745.649-2.269 1.849-5.28 1.216-6.618-1.387-.664-1.286-.76-2.687-.85-4.089-.02-.311-.002-.623-.148-.971-.076.184-.174.359-.225.55-.732 2.756-1.471 5.51-2.177 8.271-.29 1.128-.745 2.154-1.62 2.94-.202.181-.577.312-.817.251-.154-.038-.32-.487-.289-.728.25-1.82-.378-3.426-1.111-5.026-.583-1.268-1.104-2.563-1.747-4.063-.084.522-.124.84-.188 1.15-.486 2.342-.922 4.697-1.485 7.021-.332 1.369-.954 2.645-2.008 3.643-.81.769-1.739 1.314-2.893 1.349-1.406.043-2.485-.69-2.84-1.908-.36-1.23.169-2.546 1.349-3.231.405-.234.869-.357 1.431-.581z"/><path fill-rule="evenodd" clip-rule="evenodd" fill="#FF6924" d="M119.061 88.188c-.435-.232-.869-.361-1.161-.641-1.21-1.151-2.388-2.336-3.55-3.533-.695-.715-.696-1.555.002-2.255 4.732-4.747 9.473-9.486 14.219-14.22.729-.726 1.564-.715 2.303.011 1.174 1.154 2.338 2.317 3.491 3.491.712.724.728 1.595.011 2.314-4.715 4.73-9.438 9.454-14.175 14.161-.287.285-.718.427-1.14.672z"/><path fill-rule="evenodd" clip-rule="evenodd" fill="#FF6924" d="M69.987 87.141c-.257.463-.398.891-.677 1.185-1.137 1.188-2.309 2.345-3.481 3.499-.766.752-1.583.753-2.363-.01-1.107-1.081-2.193-2.186-3.288-3.28l-10.625-10.625c-1.019-1.02-1.025-1.776-.021-2.785 1.058-1.063 2.116-2.127 3.184-3.181.862-.851 1.659-.847 2.522.014 4.657 4.651 9.314 9.302 13.955 13.969.32.322.511.772.794 1.214z"/><path fill-rule="evenodd" clip-rule="evenodd" fill="#FF6924" d="M126.813 94.783c-.445.514-.911.877-1.142 1.353-.406.845-.66 1.763-1 2.641-.522 1.351-.968 2.743-1.619 4.032-1.455 2.881-3.852 4.604-7.006 5.245-3.371.685-5.949-1.272-6.108-4.716-.132-2.834.931-5.205 3.177-6.983.977-.773 2.114-1.157 3.365-1.185 2.314-.053 3.676 1.746 2.983 3.979-.456 1.47-1.532 2.39-2.887 2.98-.789.344-1.639.553-2.468.823.013 1.438 1.266 2.617 2.691 2.436 2.131-.27 3.337-1.682 3.975-3.576.82-2.431 1.064-4.955.865-7.621 1.021-.293 2.077-.613 3.144-.878.124-.031.417.206.466.369.078.264.02.569.02 1.098l.568-.675c.734-.9 1.599-1.613 2.755-1.904 1.361-.342 2.368.471 2.323 1.872-.037 1.171-1.014 2.198-2.146 2.267-.978.058-1.474-.565-1.956-1.557zm-12.996 6.985c1.139-.153 2.054-.535 2.833-1.225.812-.717 1.274-1.611 1.061-2.697-.086-.447-.365-1.056-.719-1.198-.357-.144-1.024.062-1.357.347-1.414 1.211-1.943 2.812-1.818 4.773z"/><path fill-rule="evenodd" clip-rule="evenodd" fill="#FF6924" d="M117.322 88.217c-.939 1.236-.999 1.252-2.164.409-1.414 1.175-2.844 2.358-4.266 3.55-.338.281-.654.503-1.078.128-.434-.385-.533-.751-.121-1.235 1.053-1.231 2.078-2.486 3.109-3.733l.473-.602c-.82-1.107-.82-1.107.418-2.137l3.629 3.62z"/><path fill-rule="evenodd" clip-rule="evenodd" fill="#FF6924" d="M69.988 88.896c1.235 1.009 1.235 1.009.411 2.158 1.18 1.422 2.368 2.855 3.561 4.282.285.341.485.657.112 1.077-.392.441-.753.516-1.234.105-1.229-1.055-2.486-2.078-3.732-3.112l-.556-.444c-1.265.727-1.271.727-2.192-.459l3.63-3.607z"/><path d="M140.571 94.799c0 .457-.07.896-.208 1.316-.137.42-.339.793-.605 1.119-.266.326-.594.586-.988.781-.393.195-.843.293-1.347.293-.363 0-.687-.059-.972-.176-.287-.119-.529-.275-.732-.475-.202-.199-.355-.424-.463-.676-.108-.252-.162-.514-.162-.781 0-.27.051-.52.155-.752s.247-.431.425-.596c.178-.164.381-.294.609-.388.229-.095.472-.142.726-.142.161 0 .331.021.505.061v.292c-.215 0-.426.044-.63.132-.205.088-.388.206-.544.357-.158.152-.285.334-.379.546-.095.211-.141.438-.141.68 0 .444.152.8.458 1.064.307.265.726.398 1.257.398.268 0 .514-.052.735-.155.221-.105.412-.25.57-.435.159-.185.278-.405.363-.661.083-.256.126-.535.126-.838 0-.288-.058-.558-.172-.805-.114-.25-.267-.484-.455-.707-.188-.222-.4-.431-.639-.625-.239-.195-.481-.383-.727-.56l-.722-.52c-.235-.169-.44-.337-.616-.505l-1.008 2.239-.414-.313 1.029-2.248c-.248-.235-.432-.459-.55-.671s-.177-.466-.177-.761c0-.162.029-.314.088-.46.057-.145.133-.269.231-.373.097-.104.209-.187.337-.247.127-.061.262-.09.404-.09.256 0 .446.071.574.217.127.143.191.322.191.539l-.029.318-.076.332-.092.308-.074.242c.2.155.443.304.727.448l.881.449c.307.154.611.322.914.504s.571.383.812.605c.237.222.433.475.58.756.15.288.225.606.225.964zm-4.61-5.225c-.095 0-.171.031-.229.096-.057.064-.084.15-.084.256 0 .123.029.257.091.404.06.148.167.293.323.434.066-.141.119-.278.154-.413.037-.134.057-.269.057-.403 0-.108-.029-.197-.086-.268s-.132-.106-.226-.106zm1.462 8.868c-.378 0-.724-.063-1.022-.187-.303-.123-.562-.293-.775-.503-.215-.21-.379-.452-.492-.718-.115-.269-.174-.549-.174-.834 0-.287.057-.559.17-.807.109-.246.264-.461.453-.639.19-.174.408-.314.65-.413.398-.164.836-.198 1.312-.088l.102.024v.532h-.133c-.195 0-.389.04-.578.12s-.358.192-.504.331c-.146.14-.262.309-.349.503s-.13.404-.13.626c0 .407.136.722.414.964.279.242.672.365 1.168.365.248 0 .475-.048.678-.143.203-.097.381-.231.527-.4.146-.17.26-.377.337-.615.079-.241.119-.51.119-.797 0-.268-.054-.519-.159-.75-.109-.236-.256-.463-.436-.676-.182-.215-.391-.419-.621-.607-.234-.191-.479-.379-.721-.555l-.721-.52c-.182-.129-.346-.26-.492-.39l-1.001 2.224-.634-.479 1.034-2.262c-.223-.219-.392-.433-.505-.635-.129-.231-.194-.51-.194-.826 0-.178.032-.35.096-.51.062-.158.149-.299.259-.414.109-.117.236-.21.379-.276.145-.069.301-.104.461-.104.294 0 .521.088.675.262.147.17.224.381.224.629l-.031.341-.077.344-.093.313-.048.151c.179.13.392.257.63.38l.882.449c.312.156.622.328.923.509.309.187.59.396.834.622.248.232.453.498.607.792.156.302.237.646.237 1.021 0 .469-.073.925-.214 1.357-.142.434-.354.824-.629 1.162-.276.34-.623.615-1.032.817s-.884.31-1.406.31zm-.414-3.984c-.235 0-.463.044-.675.132-.213.086-.404.209-.571.361-.163.153-.296.338-.392.552s-.145.448-.145.698c0 .248.051.494.15.729.101.234.248.447.436.633s.42.336.689.445c.267.111.578.167.921.167.483 0 .915-.093 1.288-.278.375-.186.691-.438.944-.746.254-.312.45-.674.581-1.077.133-.405.2-.835.2-1.274 0-.332-.07-.635-.208-.896-.139-.268-.324-.51-.551-.721-.23-.214-.496-.412-.789-.588-.296-.178-.601-.346-.905-.499l-.883-.45c-.288-.147-.54-.303-.747-.463l-.074-.055.027-.088.076-.246.09-.301.073-.322.028-.293c0-.184-.053-.332-.16-.451-.102-.116-.257-.172-.473-.172-.123 0-.236.025-.348.077-.111.054-.211.126-.297.218s-.155.203-.206.331c-.05.129-.076.267-.076.411 0 .271.054.505.16.695.11.199.286.414.526.639l.068.065-1.025 2.239.195.146 1.018-2.258.137.131c.168.162.37.326.6.491l.723.521c.248.18.494.369.732.564.244.199.465.415.656.643.195.23.355.478.476.736.121.267.184.557.184.861 0 .316-.044.611-.133.88-.09.271-.222.509-.389.706-.171.199-.376.355-.616.468-.238.112-.504.169-.791.169-.562 0-1.015-.146-1.345-.432-.335-.291-.505-.683-.505-1.165 0-.259.052-.507.152-.734.102-.226.238-.424.41-.587.166-.162.363-.292.583-.385.178-.075.363-.122.549-.137v-.056c-.124-.021-.248-.034-.368-.034zm-.905-3.474l-.131-.121c-.17-.155-.291-.316-.355-.482-.069-.163-.102-.316-.102-.455 0-.14.038-.256.119-.346.164-.185.494-.186.657.016.076.096.114.213.114.352 0 .145-.021.293-.061.438-.037.141-.093.288-.164.436l-.077.162zm-.143-1.277l-.127.051c-.035.04-.053.095-.053.168 0 .104.027.224.082.354.033.084.085.166.155.248l.07-.211c.034-.124.051-.248.051-.369 0-.076-.019-.137-.056-.184l-.122-.057z" fill="#FF6924"/><path fill="#FF6924" d="M130.459 86.968c.133-.095.277-.158.434-.19.156-.032.312-.031.466.003.155.035.305.099.451.192.144.094.272.219.383.376.221.312.351.648.39 1.006.037.354.039.687.002.992-.045.354-.138.711-.277 1.07l-.412-.049.049-.335c.02-.136.027-.274.027-.417-.002-.143-.015-.281-.04-.417-.025-.135-.075-.254-.147-.358-.062-.088-.156-.13-.281-.129l-.406.007s-.296-.015-.451-.056c-.154-.038-.295-.148-.424-.328-.076-.109-.129-.23-.159-.357-.028-.127-.032-.253-.012-.377.022-.123.067-.24.138-.352.068-.108.158-.204.269-.281z"/><path fill="#FF6924" d="M130.373 86.846c.148-.105.314-.178.489-.214.177-.036.354-.034.528.004.171.039.34.11.5.213.158.104.302.243.423.415.235.334.374.695.417 1.076.039.365.039.709.001 1.025-.048.365-.144.738-.285 1.105l-.042.108-.683-.079.026-.155.05-.331.024-.395c0-.134-.013-.266-.037-.393-.021-.113-.062-.211-.125-.299-.021-.031-.061-.067-.156-.065l-.405.007c-.158.002-.324-.018-.49-.061-.189-.048-.358-.178-.507-.387-.09-.125-.15-.264-.186-.409-.032-.147-.037-.294-.013-.437.025-.143.077-.279.158-.405.083-.125.186-.234.313-.323zm1.836 3.411c.111-.312.188-.622.229-.929.034-.291.033-.613-.004-.957-.035-.33-.156-.644-.363-.936-.1-.141-.215-.254-.343-.338-.128-.082-.265-.141-.4-.171-.133-.03-.271-.031-.405-.003-.244.05-.477.198-.609.407-.06.092-.099.193-.117.297-.018.104-.014.211.013.319.024.108.069.21.136.304.106.15.22.24.338.271.141.035.279.053.409.051l.409-.008c.221-.003.341.103.404.191.084.123.145.262.173.417.026.144.042.292.044.442 0 .148-.01.295-.029.438l-.027.188.142.017z"/><path fill="#FF6924" d="M117.5 110.287h3.654v1.264h-2.295v2.473h1.672v1.263h-1.672v4.062h-1.359v-9.062z"/><path fill="#FF6924" d="M121.984 110.287h3.695v1.264h-2.338v2.473h1.685v1.263h-1.685v2.8h2.338v1.263h-3.695v-9.063z"/><path fill="#FF6924" d="M127.703 116.808c.037.942.357 1.414.965 1.414.254 0 .455-.089.604-.266s.224-.419.224-.727c0-.335-.117-.661-.354-.979l-.149-.19-.177-.189-.279-.271-.453-.422c-.291-.263-.533-.51-.727-.74-.194-.231-.354-.455-.476-.672-.122-.218-.21-.438-.266-.66-.054-.221-.081-.459-.081-.713 0-.68.194-1.223.583-1.631.39-.406.907-.611 1.55-.611 1.205 0 1.889.725 2.051 2.174l-1.317.191c-.045-.408-.124-.693-.236-.856-.114-.163-.299-.245-.552-.245-.236 0-.421.082-.557.245-.137.163-.203.38-.203.652 0 .153.018.296.054.428s.099.269.19.414c.09.146.213.3.367.462.153.163.352.358.598.584.352.326.643.611.867.855.228.246.406.479.538.699.132.223.222.445.272.667.049.222.074.468.074.74 0 .345-.053.659-.156.943-.104.286-.252.531-.441.735-.189.203-.416.361-.68.475-.263.113-.551.17-.869.17-.335 0-.639-.059-.91-.177-.271-.117-.505-.283-.699-.495-.195-.213-.35-.469-.463-.769-.113-.298-.174-.634-.183-1.005l1.291-.23z"/><path fill="#FF6924" d="M132.906 111.551h-1.439v-1.264h4.266v1.264h-1.467v7.798h-1.359v-7.798z"/><path fill="#FF6924" d="M136.438 110.287h1.359v9.062h-1.359v-9.062z"/><path fill="#FF6924" d="M108.605 121.531h3.656v1.264h-2.296v2.474h1.672v1.263h-1.672v4.062h-1.36v-9.063z"/><path fill="#FF6924" d="M113.146 124.48c0-.336.006-.621.021-.855.012-.236.041-.445.081-.625.04-.182.097-.34.17-.477.071-.136.161-.271.272-.406.179-.227.41-.404.691-.53.281-.128.58-.19.896-.19.318 0 .614.062.891.19.276.126.504.304.686.53.109.135.197.271.266.406.067.137.121.292.162.469s.071.385.09.625c.018.24.026.527.026.863v3.164c0 .336-.009.623-.026.863-.019.24-.049.449-.09.625-.041.178-.095.334-.162.469-.068.137-.156.271-.266.408-.182.227-.409.402-.686.529s-.572.191-.891.191c-.316 0-.615-.064-.896-.191s-.513-.303-.691-.529c-.111-.137-.201-.271-.272-.408-.073-.135-.13-.294-.17-.476-.04-.181-.069-.388-.081-.624-.015-.236-.021-.521-.021-.857v-3.164zm2.891.149c0-.462-.006-.799-.019-1.012-.014-.213-.04-.369-.075-.469-.127-.326-.348-.488-.666-.488-.381 0-.62.208-.719.623-.02.082-.033.24-.042.478-.009.235-.013.524-.013.868v2.867c0 .453.007.787.021 1.006.013.217.037.375.073.476.129.325.354.489.68.489.372 0 .606-.209.707-.627.035-.152.053-.602.053-1.344v-2.867z"/><path fill="#FF6924" d="M118.537 124.48c0-.336.008-.621.021-.855.014-.236.04-.445.082-.625.041-.182.098-.34.169-.477.073-.136.163-.271.272-.406.18-.227.412-.404.693-.53.279-.128.578-.19.896-.19s.614.062.89.19c.277.126.504.304.688.53.107.135.197.271.264.406.068.137.123.292.163.469.042.177.069.385.089.625.018.24.027.527.027.863v3.164c0 .336-.01.623-.027.863-.02.24-.047.449-.089.625-.04.178-.095.334-.163.469-.066.137-.156.271-.264.408-.184.227-.41.402-.688.529-.275.127-.572.191-.89.191s-.616-.064-.896-.191c-.281-.127-.514-.303-.693-.529-.109-.137-.199-.271-.272-.408-.071-.135-.128-.294-.169-.476-.042-.181-.068-.388-.082-.624s-.021-.521-.021-.857v-3.164zm2.895.149c0-.462-.006-.799-.02-1.012s-.039-.369-.076-.469c-.125-.326-.348-.488-.665-.488-.381 0-.62.208-.72.623-.018.082-.031.24-.041.478-.008.235-.013.524-.013.868v2.867c0 .453.007.787.019 1.006.016.217.039.375.075.476.127.325.354.489.68.489.372 0 .606-.209.707-.627.036-.152.054-.602.054-1.344v-2.867z"/><path fill="#FF6924" d="M123.973 121.531h1.93c.787 0 1.367.207 1.737.619.372.412.558 1.057.558 1.936v3.953c0 .879-.186 1.523-.558 1.936-.37.413-.95.619-1.737.619h-1.93v-9.063zm1.779 7.799c.389 0 .674-.118.855-.353.091-.128.152-.272.184-.435.031-.164.048-.418.048-.762v-3.438c0-.344-.017-.598-.048-.76-.031-.164-.093-.309-.184-.436-.182-.234-.467-.354-.855-.354h-.421v6.535h.421z"/><path d="M91.402 123.904l-37.917 11.504 36.993-14.203c.734-.281 1.561.086 1.844.821.281.735-.086 1.562-.82 1.844l-.1.034zm-37.917 12.172c-.278 0-.537-.176-.63-.451-.117-.34.057-.711.392-.84l36.992-14.203c.241-.092.494-.139.75-.139.861 0 1.647.54 1.957 1.344.414 1.078-.127 2.293-1.205 2.707l-.143.049-37.918 11.504-.195.029zm37.503-14.299c-.092 0-.184.019-.272.051l-19.687 7.561 20.181-6.124.054-.018c.389-.149.584-.59.436-.981-.114-.291-.399-.489-.712-.489z" fill="#FF6924"/></svg>