<svg xmlns="http://www.w3.org/2000/svg" width="320" height="280"><path opacity=".3" fill="#771C07" d="M277 271c0 4.418-3.582 8-8 8h-131c-4.418 0-8-3.582-8-8v-32c0-4.418 3.582-8 8-8h131c4.418 0 8 3.582 8 8v32z"/><g opacity=".3" fill="#771C07"><path fill-rule="evenodd" clip-rule="evenodd" d="M44.438 121.422c-2.257.64-4.668 1.195-6.992 2.003-7.69 2.68-14.239 7.054-19.323 13.474-3.086 3.898-4.874 8.331-4.796 13.353.055 3.561 1.509 6.484 4.87 8.928 0-1.552-.07-2.697.012-3.832.37-5.1 4.381-8.781 9.255-8.54 4.455.223 7.438 4.229 6.344 8.89-.408 1.744-1.166 3.633-2.342 4.932-5.228 5.783-11.832 8.551-19.644 7.613-5.929-.71-10.222-5.844-10.576-12.01-.334-5.87 1.493-11.122 4.717-15.897 6.989-10.346 16.91-16.846 28.478-20.894 4.983-1.743 10.241-2.701 15.357-4.071.978-.26 1.923-.723 2.818-1.214 1.477-.808 2.831-1.885 4.374-2.518 1.007-.417 2.254-.248 3.393-.34v3.024c2.208.285 4.771.469 7.271.966 8.01 1.589 13.633 6.071 15.809 14.103 2.14 7.901-.649 14.353-6.58 19.651-.237.211-.547.341-1.057.65.563.389.772.625 1.02.686 10.147 2.426 14.169 12.62 13.817 20.983-.352 8.444-4.465 14.985-10.549 20.414-7.02 6.267-15.229 9.837-24.733 9.907-2.131.016-4.37-.351-6.373-1.064-1.828-.652-2.647-.146-3.763 1.218-5.357 6.536-11.973 11.185-20.461 12.641-3.552.61-6.741-.564-9.213-3.145-.679-.71-1.179-2.414-.785-3.095.408-.71 2.235-1.291 3.04-.956 5.237 2.171 8.638-.666 11.818-4.064 4.13-4.409 5.512-10.019 5.852-15.755.591-9.945.492-19.933 1.096-29.876.448-7.364 1.101-14.78 2.526-21.998.941-4.775 3.413-9.25 5.32-14.167zm28.748 51.808c-.646-1.859-1.429-5.521-3.132-8.688-2.554-4.755-7.473-6.315-12.622-4.958-2.037.539-2.813 1.409-2.763 3.636.226 9.585-.306 19.106-3.427 28.313-.181.53.494 1.755 1.086 2.086 4.96 2.734 11.425 1.306 15.429-3.408 3.698-4.356 5.053-9.582 5.429-16.981zm-17.411-51.635c-1.667 10.777-1.757 21.456-1.414 32.168 7.386-.016 12.713-6.961 13.357-16.975.504-7.823-4.31-14.206-11.943-15.193z"/><path fill-rule="evenodd" clip-rule="evenodd" d="M139.968 125.125c3.406-1.223 6.742-2.374 10.036-3.632 1.469-.562 1.935.22 2.169 1.362.174.839.181 1.71.309 3.08.774-1.045 1.178-1.828 1.792-2.38 2.302-2.074 4.414-4.552 7.076-5.999 4.716-2.563 7.954-.941 9.674 4.354 6.559-8.201 13.697-14.929 25.483-10.809v-2.936c3.396-1.035 6.903-2.151 10.438-3.167 1.737-.5 1.919.892 1.864 1.993-.149 2.889-.423 5.773-.74 8.649-1.434 13.109-2.9 26.216-4.346 39.326-.018.141.087.298.184.602 1.653.279 3.516.254 5.074.931 2.826 1.225 5.789 2.487 8.111 4.434 2.818 2.364 2.848 6.522.83 9.737-1.755 2.793-4.765 3.887-8.207 2.98-2.329-.614-3.738-2.047-4.127-4.754.83.119 1.555.403 2.189.269 1.396-.298 3.188-.423 3.979-1.343.721-.838.715-2.738.356-3.979-.685-2.363-6.2-5.09-8.518-4.342-.531.171-.905 1.164-1.139 1.852-1.876 5.55-3.473 11.203-5.612 16.645-1.746 4.447-4.562 8.318-8.442 11.271-3.014 2.295-6.36 3.761-10.21 3.829-8.033.144-12.936-5.612-11.572-13.563.659-3.856 2.569-7.07 5.106-9.958 4.788-5.45 10.669-9.3 17.569-11.441 2.053-.64 2.897-1.649 2.977-3.656.08-1.989.277-3.97.474-6.627-.833.944-1.231 1.37-1.601 1.817-5.912 7.186-15.826 6.594-20.73-1.342-3.206-5.193-3.531-10.917-2.531-16.794.131-.768.246-1.543.386-2.411-5.815 2.403-7.292 2.053-10.776-2.959-1.37 1.972-3.137 3.584-3.709 5.544-1.157 3.975-2.033 8.113-2.354 12.236-.465 5.926-.384 11.896-.415 17.848-.009 1.674-.426 2.624-2.155 3.152-3.069.939-6.043 2.193-9.101 3.187-.644.212-1.472-.134-2.559-.263-6.647 6.956-12.972 6.519-18.92-1.793-.743 2.339-1.354 4.63-2.196 6.833-1.333 3.495-3.573 6.28-6.987 7.979-5.261 2.629-10.808 1.215-13.417-4.031-1.454-2.924-2.277-6.389-2.469-9.662-.323-5.441.158-10.928.164-16.396.002-2.233-.357-4.463-.585-7.103 3.146-1.266 6.482-2.823 9.961-3.929 2.128-.677 2.248 1.271 2.255 2.716.025 5.469-.067 10.941-.033 16.409.01 1.517.267 3.034.507 4.536.113.701.395 1.396.705 2.043 1.611 3.344 4.972 3.711 6.985.602 1.163-1.793 2.046-3.842 2.672-5.893 1.933-6.34 2.423-19.457 1.083-26.155 3.337-1.339 6.71-2.778 10.15-4.04 1.774-.647 2.078.798 2.101 2.039.049 2.651-.132 5.309-.075 7.961.091 4.335.255 8.669.494 13.003.051.922.429 1.891.875 2.722 1.5 2.782 4.344 3.192 6.224.656 1.199-1.618 2.266-3.694 2.438-5.646.634-7.206.895-14.444 1.23-21.673.056-1.187-.228-2.386-.394-3.921zm39.803 6.997c.494 1.466 1.04 4.453 2.445 6.954 1.988 3.547 6.139 3.685 8.573.429 1.362-1.822 2.556-3.979 3.095-6.164.943-3.803 1.499-7.724 1.876-11.633.264-2.711-.419-5.45-3.103-6.81-2.633-1.333-4.988-.04-7.074 1.625-.681.545-1.262 1.238-1.798 1.935-2.762 3.583-3.682 7.768-4.014 13.664zm11.487 28.726c-.824.219-1.305.262-1.711.463-7.557 3.756-12.488 9.736-14.413 17.926-.522 2.229-.204 4.799.303 7.082.56 2.52 2.735 3.561 5.042 2.433 1.714-.842 3.46-2.188 4.484-3.768 4.703-7.254 5.183-15.64 6.295-24.136z"/><path fill-rule="evenodd" clip-rule="evenodd" d="M100.955 111.276c.078 1.186-.057 1.762.168 2.096.91 1.337 1.695 3.186 2.987 3.708 1.147.467 3.22-.164 4.331-1.022 3.04-2.351 4.645-5.808 5.344-9.486 2.052-10.814 3.974-21.656 5.779-32.516.903-5.433 1.719-10.86 5.339-15.277 1.037-1.264 2.48-2.227 3.849-3.167.379-.26 1.159.067 1.754.124-.075.526.036 1.215-.257 1.553-2.048 2.364-1.637 5.013-.717 7.535 1.953 5.357 4.115 10.639 6.214 15.943 1.411 3.567 2.859 7.118 4.544 11.308.453-1.429.758-2.289.997-3.167 3.153-11.568 6.47-23.082 12.161-33.735 2.526-4.729 5.446-9.157 10.333-11.808 1.027-.557 2.256-.745 3.391-1.105l.381.589c-.238.547-.495 1.086-.719 1.638-1.132 2.787-3.117 5.544-3.225 8.371-.412 10.915-.267 21.848-.209 32.777.007 1.477.554 3.005 1.102 4.413 1.059 2.719 2.662 3.348 5.355 2.132 3.291-1.487 5.512-4.103 7.145-7.251 2.311-4.459 3.352-9.404 3.549-16.764 2.441-.774 4.921-1.716 7.477-2.329 2.487-.594 1.047 1.96 2.1 2.897.504-.579.91-1.266 1.504-1.693 2.056-1.476 4.007-3.311 6.311-4.183 3.649-1.381 6.613 1.554 5.81 5.394-.521 2.503-2.046 4.175-4.562 4.773-2.569.608-4.069-.882-5.595-3.559-1.217 1.685-2.716 2.961-3.16 4.538-1.056 3.759-1.808 7.639-2.318 11.518-.464 3.497-.506 7.06-.605 10.596-.039 1.435-.521 2.168-1.948 2.54-2.559.675-5.067 1.535-7.794 2.379-.139-.86-.256-1.583-.405-2.526-.92.806-1.672 1.51-2.47 2.157-7.547 6.146-17.554 4.04-22.008-4.61-2.202-4.273-2.521-8.932-2.818-13.594-.068-1.033-.011-2.073-.499-3.224-.253.608-.58 1.195-.744 1.826-2.435 9.161-4.886 18.315-7.24 27.497-.962 3.75-2.48 7.164-5.384 9.774-.669.603-1.916 1.038-2.717.835-.509-.125-1.064-1.62-.956-2.416.826-6.054-1.254-11.393-3.696-16.714-1.936-4.215-3.673-8.52-5.807-13.507-.281 1.736-.412 2.789-.626 3.823-1.614 7.787-3.063 15.617-4.938 23.342-1.104 4.553-3.17 8.794-6.674 12.11-2.695 2.555-5.782 4.369-9.615 4.485-4.675.14-8.261-2.297-9.445-6.347-1.193-4.09.562-8.463 4.484-10.742 1.331-.775 2.875-1.183 4.742-1.929z"/><path fill-rule="evenodd" clip-rule="evenodd" d="M240.361 74.806c-1.445-.771-2.89-1.199-3.861-2.128-4.02-3.83-7.934-7.769-11.801-11.747-2.311-2.377-2.313-5.169.006-7.495 15.734-15.781 31.493-31.537 47.27-47.273 2.424-2.416 5.201-2.377 7.657.036 3.904 3.837 7.774 7.702 11.61 11.604 2.361 2.405 2.418 5.302.033 7.692-15.678 15.725-31.377 31.427-47.125 47.078-.954.95-2.381 1.425-3.789 2.233z"/><path fill-rule="evenodd" clip-rule="evenodd" d="M77.218 71.326c-.858 1.539-1.32 2.963-2.251 3.938-3.778 3.954-7.676 7.794-11.575 11.632-2.54 2.5-5.258 2.503-7.85-.029-3.684-3.597-7.294-7.268-10.934-10.908-11.775-11.773-23.552-23.543-35.323-35.324-3.386-3.388-3.403-5.905-.068-9.257 3.519-3.536 7.036-7.072 10.585-10.575 2.868-2.828 5.514-2.814 8.384.049 15.483 15.463 30.964 30.924 46.394 46.44 1.063 1.071 1.697 2.568 2.638 4.034z"/><path fill-rule="evenodd" clip-rule="evenodd" d="M266.135 96.736c-1.479 1.704-3.027 2.911-3.792 4.494-1.356 2.807-2.195 5.86-3.324 8.779-1.739 4.491-3.22 9.119-5.384 13.403-4.84 9.58-12.807 15.309-23.288 17.438-11.212 2.276-19.781-4.231-20.312-15.679-.434-9.419 3.096-17.299 10.562-23.215 3.247-2.57 7.029-3.845 11.184-3.938 7.697-.173 12.221 5.806 9.922 13.229-1.514 4.884-5.096 7.943-9.595 9.909-2.626 1.144-5.45 1.836-8.208 2.739.043 4.777 4.207 8.7 8.949 8.096 7.084-.899 11.092-5.591 13.215-11.889 2.723-8.08 3.537-16.475 2.878-25.337 3.395-.972 6.899-2.035 10.449-2.917.412-.104 1.383.685 1.546 1.226.262.877.068 1.891.068 3.649.943-1.121 1.42-1.677 1.885-2.243 2.445-2.994 5.314-5.364 9.16-6.331 4.523-1.137 7.877 1.562 7.727 6.225-.125 3.895-3.375 7.305-7.141 7.532-3.254.197-4.904-1.873-6.501-5.17zm-43.204 23.22c3.786-.512 6.824-1.782 9.417-4.073 2.7-2.382 4.24-5.358 3.531-8.969-.291-1.485-1.221-3.509-2.391-3.979-1.189-.481-3.41.202-4.516 1.149-4.697 4.029-6.455 9.352-6.041 15.872z"/><path fill-rule="evenodd" clip-rule="evenodd" d="M234.582 74.906c-3.123 4.11-3.32 4.163-7.196 1.357-4.698 3.907-9.45 7.843-14.181 11.802-1.125.939-2.176 1.672-3.579.427-1.446-1.281-1.774-2.497-.401-4.108 3.495-4.095 6.902-8.264 10.337-12.41.552-.667 1.069-1.367 1.565-2.003-2.729-3.68-2.729-3.68 1.394-7.103l12.061 12.038z"/><path fill-rule="evenodd" clip-rule="evenodd" d="M77.221 77.164c4.105 3.355 4.105 3.355 1.369 7.176 3.924 4.727 7.869 9.491 11.834 14.236.947 1.132 1.616 2.184.373 3.58-1.305 1.468-2.503 1.718-4.102.352-4.09-3.504-8.265-6.909-12.411-10.348-.616-.51-1.25-.998-1.851-1.477-4.202 2.418-4.224 2.414-7.286-1.528 3.991-3.962 7.959-7.902 12.074-11.991z"/><path d="M311.871 96.786c0 1.521-.231 2.978-.688 4.375-.459 1.397-1.129 2.637-2.012 3.722-.885 1.085-1.979 1.949-3.286 2.599-1.308.647-2.802.972-4.478.972-1.208 0-2.284-.196-3.236-.587-.949-.391-1.76-.916-2.431-1.577-.67-.658-1.185-1.407-1.543-2.247-.356-.837-.534-1.704-.534-2.597 0-.896.17-1.727.518-2.5.346-.771.816-1.43 1.408-1.978.594-.548 1.268-.977 2.03-1.291.758-.312 1.563-.469 2.413-.469.537 0 1.096.067 1.677.2v.973c-.716 0-1.413.146-2.095.437-.684.29-1.287.686-1.812 1.189-.524.504-.945 1.108-1.258 1.812-.312.705-.469 1.458-.469 2.262 0 1.476.51 2.655 1.525 3.538 1.018.882 2.409 1.324 4.175 1.324.894 0 1.71-.173 2.45-.519.734-.348 1.367-.829 1.895-1.441.524-.616.926-1.348 1.205-2.197s.421-1.778.421-2.784c0-.96-.191-1.855-.571-2.682-.38-.827-.885-1.61-1.509-2.347-.627-.737-1.335-1.431-2.131-2.078-.791-.65-1.597-1.271-2.413-1.86-.816-.593-1.616-1.17-2.397-1.728-.782-.561-1.466-1.119-2.045-1.677l-3.353 7.443-1.377-1.04 3.42-7.476c-.824-.783-1.436-1.527-1.826-2.23-.392-.704-.588-1.547-.588-2.532 0-.537.096-1.043.287-1.526.188-.479.446-.892.771-1.239.322-.346.697-.621 1.122-.82.425-.202.87-.302 1.341-.302.85 0 1.487.238 1.912.721.422.479.637 1.077.637 1.793 0 .335-.033.687-.102 1.058-.066.367-.15.737-.25 1.106-.1.367-.202.708-.302 1.022l-.253.804c.672.517 1.478 1.012 2.414 1.493.939.481 1.918.979 2.935 1.492 1.017.514 2.03 1.072 3.036 1.676 1.004.604 1.904 1.275 2.699 2.012.793.737 1.435 1.576 1.926 2.515.493.94.742 1.999.742 3.186zm-15.326-17.369c-.312 0-.564.106-.754.319-.188.212-.285.498-.285.854 0 .404.101.852.303 1.343.199.492.559.971 1.072 1.441.225-.47.397-.926.519-1.375.124-.447.188-.893.188-1.341 0-.358-.097-.654-.286-.889-.191-.233-.445-.352-.757-.352zm4.863 29.481c-1.26 0-2.406-.208-3.404-.621-1-.41-1.867-.972-2.574-1.67-.711-.695-1.261-1.501-1.639-2.389-.379-.891-.573-1.824-.573-2.771 0-.956.189-1.858.56-2.681.367-.82.877-1.535 1.513-2.122.626-.581 1.355-1.046 2.161-1.376 1.322-.543 2.782-.654 4.359-.29l.343.079v1.77h-.443c-.651 0-1.297.133-1.923.4-.628.267-1.193.639-1.678 1.102-.48.462-.87 1.025-1.158 1.67-.285.645-.431 1.345-.431 2.083 0 1.354.45 2.401 1.372 3.203.932.808 2.236 1.216 3.884 1.216.825 0 1.585-.16 2.26-.477.677-.318 1.265-.767 1.747-1.329.482-.567.862-1.256 1.123-2.047.262-.802.397-1.693.397-2.645 0-.89-.18-1.729-.531-2.497-.362-.785-.848-1.541-1.445-2.245-.604-.712-1.302-1.394-2.069-2.022-.779-.638-1.586-1.258-2.395-1.845-.816-.593-1.614-1.168-2.396-1.724-.602-.432-1.149-.864-1.637-1.295l-3.328 7.391-2.101-1.591 3.436-7.515c-.742-.731-1.306-1.441-1.681-2.114-.427-.768-.644-1.693-.644-2.749 0-.589.106-1.158.316-1.689.209-.529.498-.994.86-1.379.362-.387.785-.697 1.258-.92.481-.229.997-.346 1.53-.346.979 0 1.735.294 2.246.871.495.564.747 1.266.747 2.088 0 .358-.036.742-.108 1.135-.068.38-.154.762-.259 1.143-.103.377-.206.725-.308 1.043l-.158.5c.596.431 1.302.858 2.099 1.266.939.481 1.918.978 2.933 1.491 1.033.522 2.063 1.091 3.062 1.691 1.029.618 1.963 1.313 2.774 2.067.827.771 1.505 1.656 2.019 2.634.522 1.002.789 2.143.789 3.392 0 1.558-.24 3.076-.709 4.513-.475 1.443-1.178 2.743-2.09 3.864-.921 1.13-2.074 2.045-3.433 2.717-1.362.676-2.935 1.02-4.673 1.02zm-1.375-13.244c-.787 0-1.543.146-2.244.437-.709.29-1.348.695-1.897 1.206-.546.506-.985 1.123-1.304 1.833-.318.71-.48 1.489-.48 2.318s.168 1.643.499 2.424c.334.781.819 1.489 1.446 2.104.627.616 1.396 1.116 2.287 1.482.893.367 1.925.552 3.068.552 1.602 0 3.04-.31 4.279-.925 1.246-.616 2.301-1.451 3.139-2.48.846-1.037 1.497-2.243 1.937-3.58.44-1.35.664-2.774.664-4.238 0-1.105-.233-2.107-.688-2.979-.465-.889-1.084-1.697-1.838-2.397-.764-.71-1.646-1.368-2.623-1.956-.983-.589-1.996-1.149-3.008-1.66-1.018-.514-1.997-1.012-2.936-1.496-.959-.491-1.795-1.005-2.482-1.535l-.244-.185.09-.294.254-.812c.098-.309.198-.644.295-1.006.099-.354.18-.712.244-1.067.062-.344.094-.672.094-.979 0-.608-.172-1.1-.527-1.499-.339-.385-.855-.571-1.578-.571-.406 0-.782.085-1.151.258-.37.177-.704.418-.989.725-.285.304-.514.674-.681 1.1-.169.427-.257.885-.257 1.362 0 .904.18 1.683.533 2.316.367.662.955 1.376 1.743 2.124l.231.216-3.404 7.443.646.489 3.383-7.509.453.435c.561.54 1.231 1.089 1.998 1.635.783.56 1.582 1.137 2.4 1.73.823.598 1.641 1.229 2.436 1.876.809.662 1.545 1.38 2.184 2.135.65.766 1.179 1.588 1.574 2.449.406.887.613 1.849.613 2.868 0 1.047-.148 2.03-.441 2.922-.299.901-.732 1.691-1.292 2.347-.566.661-1.254 1.183-2.045 1.556-.794.372-1.681.562-2.637.562-1.865 0-3.369-.483-4.464-1.434-1.115-.967-1.68-2.271-1.68-3.874 0-.863.172-1.685.507-2.443.335-.751.791-1.407 1.357-1.951.56-.537 1.216-.968 1.942-1.276.594-.251 1.207-.406 1.826-.454v-.185c-.423-.08-.837-.119-1.232-.119zm-3.009-11.55l-.441-.404c-.562-.512-.962-1.049-1.185-1.602-.223-.541-.336-1.049-.336-1.51 0-.466.133-.854.398-1.149.549-.616 1.645-.618 2.184.05.257.316.386.708.386 1.168 0 .481-.069.973-.202 1.458-.127.469-.312.956-.545 1.45l-.259.539zm-.479-4.244c-.187 0-.318.054-.422.171-.117.129-.173.312-.173.558 0 .344.091.739.271 1.175.109.275.285.552.517.824.094-.239.173-.475.235-.706.112-.41.17-.823.17-1.225 0-.254-.062-.454-.187-.61-.104-.129-.231-.187-.411-.187zm-18.292-9.109c.443-.314.925-.525 1.445-.631.519-.106 1.035-.102 1.55.013.514.114 1.014.327 1.494.639.481.312.906.727 1.273 1.249.738 1.044 1.17 2.158 1.299 3.343.125 1.183.127 2.284.005 3.299-.15 1.179-.459 2.363-.919 3.559l-1.373-.16c.053-.296.109-.669.167-1.116.062-.45.09-.91.088-1.387-.004-.475-.048-.936-.133-1.383-.084-.45-.248-.845-.494-1.193-.206-.29-.517-.433-.933-.429l-1.354.023c-.486.008-.982-.05-1.498-.181-.512-.131-.979-.496-1.403-1.094-.258-.366-.435-.764-.533-1.187-.095-.424-.108-.841-.039-1.253.073-.413.225-.802.458-1.17.231-.368.532-.682.9-.941zm-.284-.404c.496-.352 1.047-.591 1.63-.709.585-.121 1.177-.115 1.757.012.568.126 1.127.364 1.656.708.531.343 1.004.808 1.41 1.378.782 1.11 1.246 2.312 1.384 3.576.13 1.216.132 2.361.005 3.409-.158 1.218-.475 2.453-.947 3.677l-.138.358-2.272-.265.088-.514c.052-.292.106-.658.164-1.1.059-.427.084-.869.081-1.314-.001-.443-.044-.881-.122-1.3-.071-.379-.206-.706-.412-.997-.073-.104-.201-.223-.523-.219-.416.004-.866.01-1.35.023-.526.008-1.074-.056-1.628-.198-.63-.16-1.193-.593-1.685-1.287-.296-.418-.502-.876-.612-1.362-.11-.487-.128-.974-.046-1.449.083-.475.26-.929.526-1.349s.614-.782 1.034-1.078zm6.105 11.34c.37-1.035.624-2.07.756-3.088.116-.969.113-2.039-.009-3.18-.116-1.095-.522-2.14-1.208-3.111-.331-.466-.715-.846-1.139-1.12-.43-.277-.879-.471-1.334-.571-.443-.1-.896-.103-1.345-.01-.812.164-1.587.655-2.026 1.349-.197.311-.326.644-.387.989-.059.346-.049.702.035 1.06.084.36.235.7.456 1.012.35.497.729.8 1.12.899.467.119.93.175 1.364.167l1.36-.023c.729-.008 1.131.341 1.341.638.285.406.479.872.577 1.387.089.475.137.97.139 1.472.002.491-.027.981-.089 1.454l-.09.621.479.055zm-48.897 66.588h12.15v4.201h-7.634v8.219h5.555v4.201h-5.555v13.504h-4.517v-30.125zm14.903 0h12.285v4.201h-7.769v8.219h5.601v4.201h-5.601v9.305h7.769v4.199h-12.285v-30.125zm19.015 21.679c.118 3.132 1.188 4.698 3.206 4.698.842 0 1.512-.294 2.01-.881.498-.588.746-1.394.746-2.416 0-1.113-.392-2.199-1.175-3.252-.181-.242-.346-.452-.497-.632-.15-.181-.346-.392-.588-.635-.239-.239-.549-.539-.927-.902-.374-.36-.881-.826-1.512-1.399-.964-.874-1.771-1.693-2.415-2.461-.648-.769-1.176-1.512-1.581-2.234-.406-.723-.7-1.453-.882-2.193-.181-.734-.27-1.525-.27-2.371 0-2.258.646-4.063 1.94-5.419 1.296-1.354 3.011-2.032 5.149-2.032 4.006 0 6.277 2.409 6.818 7.226l-4.379.634c-.15-1.356-.414-2.304-.79-2.846-.376-.543-.987-.813-1.83-.813-.782 0-1.399.271-1.852.813-.452.542-.679 1.265-.679 2.168 0 .513.061.985.182 1.423.121.437.33.896.633 1.376.301.483.707.996 1.218 1.537.513.541 1.175 1.189 1.987 1.941 1.174 1.085 2.139 2.031 2.891 2.844.754.814 1.347 1.59 1.784 2.326.438.74.737 1.477.903 2.214.165.739.251 1.558.251 2.462 0 1.145-.175 2.191-.521 3.139-.346.949-.836 1.764-1.469 2.439-.631.678-1.385 1.205-2.258 1.581-.874.376-1.836.565-2.891.565-1.115 0-2.121-.197-3.025-.588-.906-.392-1.68-.941-2.326-1.647-.649-.708-1.16-1.558-1.537-2.554-.377-.992-.578-2.107-.607-3.342l4.293-.769zm17.299-17.477h-4.79v-4.201h14.182v4.201h-4.877v25.923h-4.515v-25.923zm11.741-4.202h4.517v30.125h-4.517v-30.125zm-92.525 37.383h12.15v4.202h-7.633v8.22h5.556v4.198h-5.556v13.505h-4.518v-30.125zm15.085 9.803c0-1.115.023-2.064.067-2.845.046-.784.137-1.478.271-2.079.136-.602.324-1.129.566-1.58.239-.454.541-.904.902-1.354.602-.754 1.369-1.342 2.304-1.762.933-.421 1.927-.634 2.979-.634 1.055 0 2.041.213 2.959.634.92.42 1.678 1.008 2.281 1.762.361.449.655.899.881 1.354.226.451.406.971.541 1.557.137.588.233 1.281.294 2.079.06.8.091 1.753.091 2.868v10.522c0 1.114-.031 2.071-.091 2.87-.061.797-.157 1.488-.294 2.075-.135.588-.315 1.108-.541 1.558-.226.452-.52.904-.881 1.355-.604.754-1.361 1.34-2.281 1.76-.918.424-1.904.636-2.959.636-1.053 0-2.047-.212-2.979-.636-.935-.42-1.702-1.006-2.304-1.76-.361-.451-.663-.903-.902-1.355-.242-.449-.431-.977-.566-1.58-.134-.602-.225-1.293-.271-2.076-.044-.785-.067-1.732-.067-2.847v-10.522zm9.619.495c0-1.535-.021-2.657-.066-3.363-.046-.708-.13-1.227-.248-1.558-.422-1.085-1.16-1.627-2.215-1.627-1.265 0-2.062.691-2.393 2.076-.061.271-.105.798-.136 1.583-.029.783-.044 1.745-.044 2.889v9.531c0 1.506.021 2.62.066 3.343.047.723.129 1.249.248 1.58.422 1.084 1.174 1.627 2.258 1.627 1.236 0 2.018-.693 2.35-2.078.119-.513.18-2.004.18-4.472v-9.531zm8.31-.495c0-1.115.024-2.064.069-2.845.045-.784.135-1.478.271-2.079s.325-1.129.565-1.58c.24-.454.54-.904.903-1.354.601-.754 1.37-1.342 2.304-1.762.932-.421 1.926-.634 2.979-.634s2.04.213 2.958.634c.918.42 1.679 1.008 2.281 1.762.361.449.655.899.881 1.354.227.451.406.971.542 1.557.136.588.232 1.281.294 2.079.059.8.09 1.753.09 2.868v10.522c0 1.114-.031 2.071-.09 2.87-.062.797-.158 1.488-.294 2.075-.136.588-.315 1.108-.542 1.558-.226.452-.52.904-.881 1.355-.603.754-1.363 1.34-2.281 1.76-.918.424-1.904.636-2.958.636s-2.048-.212-2.979-.636c-.934-.42-1.703-1.006-2.304-1.76-.363-.451-.663-.903-.903-1.355-.24-.449-.43-.977-.565-1.58-.136-.602-.226-1.293-.271-2.076-.045-.785-.069-1.732-.069-2.847v-10.522zm9.622.495c0-1.535-.023-2.657-.068-3.363-.045-.708-.129-1.227-.249-1.558-.421-1.085-1.159-1.627-2.213-1.627-1.264 0-2.062.691-2.394 2.076-.061.271-.106.798-.136 1.583-.03.783-.044 1.745-.044 2.889v9.531c0 1.506.021 2.62.066 3.343.047.723.129 1.249.248 1.58.422 1.084 1.176 1.627 2.259 1.627 1.235 0 2.017-.693 2.349-2.078.121-.513.182-2.004.182-4.472v-9.531zm8.445-10.298h6.412c2.619 0 4.548.688 5.781 2.058 1.236 1.37 1.851 3.515 1.851 6.435v13.143c0 2.922-.614 5.066-1.851 6.438-1.233 1.369-3.162 2.053-5.781 2.053h-6.412v-30.127zm5.916 25.927c1.295 0 2.243-.394 2.845-1.175.3-.422.504-.903.61-1.445.104-.543.158-1.385.158-2.529v-11.427c0-1.144-.055-1.989-.158-2.528-.106-.543-.311-1.022-.61-1.445-.602-.783-1.55-1.175-2.845-1.175h-1.4v21.725h1.4zm-114.189-18.04l-126.057 38.246 122.978-47.216c2.446-.937 5.189.283 6.129 2.728.939 2.447-.283 5.192-2.728 6.129l-.322.113zm-126.057 40.467c-.924 0-1.784-.581-2.098-1.5-.389-1.131.188-2.363 1.303-2.793l122.979-47.215c.802-.307 1.641-.463 2.494-.463 2.862 0 5.476 1.795 6.502 4.467 1.375 3.586-.421 7.621-4.004 8.998l-.473.162-126.058 38.247c-.215.065-.431.097-.645.097zm124.677-47.533c-.308 0-.611.059-.904.169l-65.449 25.13 67.089-20.357.179-.061c1.291-.495 1.943-1.959 1.444-3.261-.374-.968-1.321-1.62-2.359-1.62z"/></g><path fill-rule="evenodd" clip-rule="evenodd" fill="#ECEDDF" d="M47.829 117.895c-2.257.639-4.668 1.195-6.992 2.003-7.69 2.68-14.239 7.053-19.323 13.474-3.086 3.898-4.874 8.332-4.796 13.353.055 3.561 1.51 6.484 4.87 8.927 0-1.552-.07-2.696.012-3.831.37-5.1 4.381-8.782 9.255-8.541 4.455.224 7.438 4.23 6.344 8.891-.408 1.742-1.166 3.632-2.341 4.932-5.228 5.783-11.833 8.551-19.644 7.613-5.929-.71-10.222-5.844-10.576-12.01-.334-5.87 1.494-11.123 4.718-15.898 6.988-10.345 16.909-16.845 28.477-20.893 4.983-1.743 10.241-2.701 15.357-4.071.977-.261 1.923-.723 2.817-1.214 1.478-.808 2.831-1.885 4.375-2.518 1.006-.416 2.253-.248 3.392-.339v3.024c2.207.285 4.771.468 7.27.966 8.01 1.589 13.633 6.07 15.809 14.103 2.14 7.901-.65 14.352-6.58 19.649-.238.213-.548.342-1.057.652.563.387.772.625 1.02.686 10.147 2.426 14.169 12.619 13.817 20.982-.352 8.445-4.465 14.985-10.548 20.415-7.021 6.267-15.229 9.837-24.734 9.905-2.131.018-4.37-.349-6.373-1.062-1.828-.652-2.647-.146-3.763 1.217-5.357 6.537-11.973 11.186-20.461 12.641-3.552.611-6.741-.564-9.213-3.144-.679-.71-1.179-2.414-.785-3.095.409-.711 2.236-1.291 3.04-.956 5.238 2.17 8.638-.666 11.818-4.065 4.13-4.408 5.512-10.019 5.852-15.754.591-9.945.492-19.934 1.097-29.877.447-7.363 1.1-14.779 2.526-21.997.94-4.776 3.412-9.251 5.32-14.168zm28.747 51.807c-.646-1.86-1.429-5.521-3.132-8.688-2.554-4.755-7.473-6.317-12.622-4.959-2.037.54-2.813 1.41-2.763 3.636.226 9.586-.305 19.107-3.427 28.313-.182.531.494 1.756 1.086 2.087 4.96 2.734 11.426 1.306 15.429-3.408 3.698-4.355 5.053-9.581 5.429-16.981zm-17.411-51.635c-1.667 10.777-1.757 21.456-1.414 32.168 7.386-.015 12.713-6.96 13.358-16.974.503-7.823-4.311-14.206-11.944-15.194z"/><path fill-rule="evenodd" clip-rule="evenodd" fill="#ECEDDF" d="M143.358 121.597c3.406-1.222 6.742-2.374 10.037-3.632 1.468-.562 1.934.221 2.169 1.362.174.839.18 1.709.308 3.08.774-1.045 1.178-1.829 1.792-2.38 2.302-2.074 4.415-4.552 7.077-6 4.715-2.563 7.953-.941 9.674 4.355 6.559-8.201 13.697-14.93 25.482-10.808v-2.936c3.397-1.035 6.903-2.151 10.438-3.167 1.738-.5 1.92.891 1.864 1.993-.148 2.888-.423 5.772-.739 8.648-1.435 13.109-2.9 26.217-4.347 39.325-.017.142.087.298.186.603 1.652.278 3.515.254 5.073.931 2.825 1.225 5.789 2.486 8.11 4.434 2.819 2.363 2.849 6.522.83 9.737-1.755 2.793-4.764 3.887-8.206 2.98-2.329-.614-3.738-2.047-4.127-4.754.83.118 1.555.403 2.189.268 1.395-.297 3.188-.422 3.979-1.343.721-.837.714-2.739.355-3.978-.684-2.363-6.199-5.09-8.518-4.342-.531.171-.905 1.164-1.139 1.852-1.876 5.549-3.473 11.203-5.612 16.645-1.746 4.446-4.562 8.318-8.442 11.271-3.014 2.295-6.359 3.761-10.21 3.829-8.033.145-12.936-5.611-11.572-13.562.659-3.856 2.569-7.07 5.106-9.959 4.789-5.449 10.67-9.3 17.569-11.44 2.054-.64 2.897-1.649 2.978-3.657.08-1.988.276-3.969.473-6.626-.832.943-1.231 1.37-1.6 1.817-5.912 7.186-15.826 6.594-20.73-1.342-3.207-5.195-3.531-10.917-2.531-16.794.131-.768.246-1.543.385-2.412-5.814 2.403-7.291 2.053-10.775-2.959-1.369 1.972-3.138 3.584-3.709 5.543-1.158 3.976-2.034 8.114-2.354 12.237-.466 5.924-.384 11.895-.416 17.847-.009 1.674-.426 2.623-2.155 3.152-3.069.939-6.043 2.192-9.101 3.186-.644.213-1.472-.133-2.559-.262-6.647 6.955-12.972 6.518-18.92-1.793-.743 2.338-1.354 4.629-2.196 6.832-1.333 3.494-3.573 6.281-6.987 7.98-5.261 2.628-10.808 1.214-13.417-4.031-1.454-2.924-2.277-6.389-2.469-9.663-.323-5.441.158-10.927.164-16.396.002-2.232-.356-4.463-.585-7.101 3.147-1.266 6.482-2.824 9.961-3.93 2.128-.677 2.249 1.27 2.256 2.716.024 5.468-.068 10.941-.034 16.41.011 1.517.267 3.034.507 4.536.113.701.395 1.395.705 2.043 1.611 3.344 4.972 3.711 6.985.602 1.163-1.793 2.047-3.843 2.672-5.895 1.933-6.338 2.423-19.456 1.083-26.153 3.337-1.339 6.71-2.778 10.15-4.04 1.775-.647 2.078.797 2.101 2.039.049 2.651-.132 5.308-.075 7.961.091 4.335.255 8.669.494 13.003.051.922.429 1.891.875 2.721 1.5 2.783 4.344 3.193 6.225.656 1.199-1.618 2.266-3.693 2.438-5.645.634-7.206.895-14.445 1.231-21.673.054-1.186-.23-2.386-.396-3.921zm39.804 6.997c.494 1.466 1.039 4.452 2.444 6.954 1.989 3.546 6.139 3.684 8.573.429 1.362-1.822 2.556-3.979 3.096-6.164.942-3.803 1.498-7.724 1.875-11.633.264-2.711-.418-5.45-3.102-6.81-2.633-1.333-4.988-.04-7.075 1.624-.68.545-1.261 1.239-1.797 1.935-2.762 3.584-3.684 7.77-4.014 13.665zm11.486 28.726c-.824.219-1.306.262-1.711.462-7.557 3.757-12.488 9.737-14.414 17.927-.521 2.227-.203 4.799.303 7.082.561 2.52 2.736 3.561 5.044 2.432 1.712-.841 3.458-2.188 4.483-3.768 4.704-7.253 5.183-15.639 6.295-24.135z"/><path fill-rule="evenodd" clip-rule="evenodd" fill="#ECEDDF" d="M104.345 107.749c.078 1.185-.057 1.762.168 2.095.91 1.337 1.695 3.187 2.987 3.709 1.147.466 3.22-.165 4.331-1.023 3.04-2.351 4.645-5.808 5.344-9.485 2.052-10.814 3.974-21.656 5.779-32.516.903-5.433 1.719-10.86 5.34-15.277 1.037-1.264 2.48-2.228 3.849-3.167.379-.259 1.159.068 1.753.124-.075.527.036 1.216-.257 1.554-2.048 2.363-1.637 5.012-.716 7.534 1.952 5.358 4.114 10.639 6.213 15.943 1.411 3.567 2.859 7.118 4.544 11.308.453-1.429.758-2.289.997-3.167 3.153-11.568 6.47-23.082 12.161-33.736 2.525-4.729 5.445-9.157 10.333-11.808 1.026-.557 2.256-.744 3.39-1.105l.382.588c-.238.548-.495 1.087-.719 1.639-1.133 2.786-3.117 5.543-3.226 8.371-.412 10.914-.267 21.848-.208 32.777.006 1.476.553 3.005 1.102 4.412 1.059 2.72 2.662 3.349 5.354 2.132 3.292-1.486 5.513-4.102 7.145-7.25 2.312-4.459 3.353-9.405 3.549-16.764 2.442-.775 4.923-1.716 7.478-2.329 2.487-.595 1.047 1.96 2.1 2.897.504-.579.91-1.266 1.504-1.693 2.055-1.476 4.007-3.311 6.311-4.182 3.648-1.382 6.612 1.554 5.809 5.394-.521 2.503-2.045 4.175-4.562 4.773-2.568.608-4.068-.883-5.594-3.559-1.217 1.685-2.716 2.961-3.16 4.538-1.057 3.759-1.809 7.638-2.319 11.518-.464 3.497-.505 7.06-.604 10.595-.04 1.435-.521 2.168-1.949 2.541-2.558.674-5.066 1.535-7.793 2.378-.14-.859-.256-1.583-.406-2.526-.92.806-1.672 1.51-2.469 2.158-7.547 6.146-17.555 4.04-22.008-4.611-2.202-4.272-2.521-8.931-2.818-13.594-.068-1.033-.011-2.072-.499-3.224-.253.608-.58 1.196-.745 1.827-2.435 9.161-4.886 18.315-7.239 27.497-.962 3.751-2.481 7.164-5.385 9.775-.669.602-1.916 1.038-2.717.835-.509-.125-1.064-1.62-.956-2.416.827-6.054-1.254-11.393-3.696-16.714-1.936-4.215-3.672-8.52-5.807-13.507-.281 1.737-.412 2.789-.625 3.823-1.614 7.787-3.063 15.617-4.938 23.342-1.104 4.553-3.17 8.794-6.674 12.11-2.694 2.555-5.782 4.369-9.615 4.486-4.675.14-8.261-2.297-9.445-6.348-1.193-4.09.561-8.463 4.483-10.741 1.332-.778 2.877-1.186 4.743-1.931z"/><path fill-rule="evenodd" clip-rule="evenodd" fill="#ECEDDF" d="M243.752 71.278c-1.445-.771-2.891-1.2-3.861-2.128-4.02-3.83-7.934-7.769-11.802-11.747-2.31-2.377-2.312-5.168.007-7.495 15.734-15.781 31.492-31.537 47.27-47.273 2.424-2.416 5.201-2.377 7.656.037 3.905 3.836 7.774 7.702 11.61 11.603 2.361 2.406 2.418 5.302.033 7.693-15.677 15.725-31.377 31.427-47.124 47.078-.955.949-2.383 1.424-3.789 2.232z"/><path fill-rule="evenodd" clip-rule="evenodd" fill="#ECEDDF" d="M80.608 67.798c-.858 1.539-1.321 2.963-2.251 3.938-3.777 3.955-7.676 7.794-11.575 11.633-2.54 2.499-5.258 2.503-7.85-.029-3.684-3.596-7.294-7.268-10.934-10.908-11.775-11.774-23.552-23.544-35.323-35.325-3.386-3.388-3.403-5.904-.068-9.256 3.519-3.536 7.036-7.072 10.585-10.575 2.868-2.828 5.514-2.814 8.384.049 15.484 15.463 30.965 30.924 46.394 46.44 1.063 1.07 1.697 2.568 2.638 4.033z"/><path fill-rule="evenodd" clip-rule="evenodd" fill="#ECEDDF" d="M269.525 93.209c-1.479 1.703-3.027 2.911-3.793 4.494-1.355 2.808-2.194 5.86-3.323 8.78-1.74 4.49-3.221 9.119-5.384 13.403-4.84 9.579-12.808 15.308-23.289 17.438-11.211 2.276-19.779-4.232-20.311-15.679-.434-9.419 3.095-17.299 10.562-23.215 3.246-2.57 7.029-3.844 11.185-3.938 7.695-.173 12.22 5.806 9.921 13.23-1.514 4.883-5.096 7.943-9.596 9.909-2.625 1.143-5.449 1.836-8.207 2.738.042 4.777 4.207 8.701 8.949 8.097 7.084-.9 11.091-5.592 13.215-11.889 2.723-8.08 3.537-16.474 2.878-25.337 3.395-.973 6.898-2.035 10.448-2.918.412-.104 1.384.686 1.547 1.227.262.877.068 1.891.068 3.648.943-1.12 1.42-1.676 1.885-2.243 2.444-2.995 5.314-5.365 9.16-6.331 4.523-1.137 7.876 1.562 7.727 6.224-.125 3.894-3.376 7.306-7.141 7.532-3.255.197-4.903-1.874-6.501-5.17zm-43.205 23.22c3.787-.513 6.824-1.783 9.418-4.074 2.699-2.382 4.239-5.358 3.531-8.969-.291-1.485-1.222-3.509-2.391-3.98-1.189-.481-3.41.202-4.516 1.149-4.697 4.03-6.456 9.353-6.042 15.874z"/><path fill-rule="evenodd" clip-rule="evenodd" fill="#ECEDDF" d="M237.973 71.378c-3.123 4.111-3.32 4.163-7.196 1.358-4.698 3.906-9.45 7.842-14.182 11.801-1.123.939-2.175 1.673-3.579.427-1.445-1.281-1.773-2.497-.4-4.109 3.496-4.094 6.901-8.263 10.336-12.41.553-.666 1.07-1.366 1.566-2.003-2.729-3.681-2.729-3.681 1.393-7.103 4.019 4.012 8.018 8.003 12.062 12.039z"/><path fill-rule="evenodd" clip-rule="evenodd" fill="#ECEDDF" d="M80.611 73.636c4.105 3.354 4.105 3.354 1.369 7.176 3.924 4.728 7.869 9.492 11.834 14.236.948 1.133 1.616 2.185.373 3.58-1.305 1.469-2.503 1.718-4.102.353-4.09-3.505-8.265-6.91-12.411-10.348-.616-.51-1.25-.998-1.85-1.477-4.203 2.418-4.224 2.413-7.285-1.529 3.989-3.961 7.957-7.901 12.072-11.991z"/><path d="M315.261 93.259c0 1.52-.231 2.978-.687 4.375-.458 1.397-1.129 2.636-2.013 3.721-.885 1.085-1.978 1.949-3.286 2.599-1.307.648-2.801.973-4.477.973-1.209 0-2.285-.195-3.236-.587-.95-.392-1.76-.917-2.43-1.577-.672-.658-1.186-1.408-1.544-2.247-.356-.837-.535-1.703-.535-2.597 0-.896.171-1.727.519-2.499.346-.771.816-1.431 1.407-1.979.594-.547 1.269-.977 2.031-1.291.757-.312 1.563-.468 2.413-.468.537 0 1.096.066 1.677.2v.973c-.717 0-1.414.146-2.096.438-.683.289-1.286.685-1.812 1.188-.525.504-.945 1.108-1.258 1.812s-.469 1.458-.469 2.261c0 1.477.509 2.656 1.525 3.538 1.018.883 2.408 1.325 4.175 1.325.894 0 1.71-.173 2.449-.518.735-.348 1.368-.83 1.896-1.441.524-.617.926-1.347 1.205-2.197.279-.85.42-1.778.42-2.784 0-.96-.191-1.855-.57-2.682-.38-.827-.885-1.61-1.51-2.347-.627-.738-1.334-1.431-2.13-2.078-.792-.65-1.597-1.271-2.414-1.86-.816-.593-1.616-1.17-2.396-1.728-.783-.56-1.466-1.119-2.046-1.676l-3.352 7.442-1.377-1.039 3.419-7.476c-.824-.783-1.435-1.526-1.826-2.23-.392-.705-.587-1.548-.587-2.532 0-.538.096-1.044.287-1.527.188-.479.445-.891.771-1.239.322-.346.697-.621 1.122-.821.425-.202.87-.302 1.341-.302.85 0 1.486.237 1.912.72.423.479.637 1.077.637 1.793 0 .335-.033.688-.102 1.058-.067.367-.15.737-.25 1.105-.1.367-.202.708-.303 1.023l-.252.804c.671.516 1.477 1.012 2.414 1.493.939.481 1.918.979 2.935 1.491 1.016.515 2.03 1.073 3.036 1.677 1.003.604 1.902 1.274 2.699 2.012.793.737 1.436 1.576 1.926 2.516.495.938.742 1.998.742 3.185zm-15.325-17.37c-.312 0-.564.106-.754.318s-.285.498-.285.854c0 .404.1.852.302 1.343.2.492.559.971 1.073 1.441.225-.471.396-.927.518-1.375.125-.448.188-.893.188-1.341 0-.358-.096-.654-.285-.889-.191-.233-.445-.351-.757-.351zm4.863 29.482c-1.26 0-2.405-.208-3.405-.621-.999-.41-1.866-.973-2.574-1.67-.71-.696-1.259-1.502-1.639-2.389-.379-.892-.573-1.824-.573-2.772 0-.956.189-1.857.561-2.68.367-.82.877-1.535 1.512-2.122.627-.582 1.355-1.046 2.162-1.377 1.322-.544 2.781-.654 4.358-.29l.344.08v1.77h-.443c-.652 0-1.298.133-1.923.4-.629.267-1.192.64-1.678 1.102-.481.463-.871 1.024-1.158 1.67-.285.646-.431 1.345-.431 2.082 0 1.354.45 2.402 1.372 3.203.931.808 2.236 1.216 3.884 1.216.825 0 1.585-.161 2.259-.477.678-.318 1.265-.766 1.748-1.329.483-.566.862-1.256 1.123-2.047.262-.802.396-1.693.396-2.645 0-.889-.178-1.728-.53-2.497-.362-.785-.849-1.541-1.446-2.245-.604-.713-1.301-1.394-2.069-2.023-.778-.637-1.585-1.257-2.395-1.845-.816-.594-1.614-1.168-2.396-1.724-.602-.431-1.148-.864-1.637-1.295l-3.328 7.391-2.101-1.591 3.437-7.516c-.742-.731-1.307-1.441-1.681-2.114-.427-.768-.644-1.693-.644-2.749 0-.589.105-1.158.316-1.689.208-.529.498-.994.859-1.379.363-.388.786-.698 1.259-.92.48-.229.997-.346 1.53-.346.979 0 1.734.294 2.245.87.495.565.747 1.267.747 2.089 0 .358-.035.742-.107 1.135-.069.381-.154.762-.258 1.143-.103.377-.207.725-.309 1.043l-.158.5c.596.431 1.301.858 2.099 1.266.938.481 1.918.979 2.932 1.492 1.033.522 2.064 1.091 3.063 1.69 1.029.619 1.962 1.314 2.773 2.068.827.771 1.507 1.656 2.018 2.634.523 1.002.79 2.143.79 3.393 0 1.558-.24 3.076-.708 4.513-.475 1.443-1.178 2.743-2.092 3.863-.919 1.131-2.073 2.045-3.431 2.718-1.363.677-2.935 1.021-4.673 1.021zm-1.375-13.245c-.787 0-1.543.146-2.245.438-.708.289-1.347.695-1.897 1.206-.545.506-.984 1.123-1.303 1.833-.318.71-.481 1.489-.481 2.318s.169 1.643.5 2.424c.333.78.818 1.489 1.445 2.103.627.616 1.397 1.116 2.288 1.482.892.367 1.925.552 3.068.552 1.602 0 3.04-.31 4.279-.924 1.245-.616 2.302-1.451 3.139-2.48.846-1.038 1.496-2.243 1.936-3.58.439-1.35.664-2.774.664-4.238 0-1.106-.232-2.107-.689-2.979-.464-.89-1.082-1.698-1.836-2.397-.765-.71-1.646-1.368-2.624-1.955-.983-.59-1.995-1.15-3.007-1.66-1.019-.515-1.997-1.012-2.936-1.496-.959-.491-1.796-1.006-2.482-1.535l-.244-.186.09-.293.254-.812c.098-.308.197-.643.295-1.005.098-.354.18-.712.244-1.066.062-.344.094-.673.094-.979 0-.608-.173-1.099-.527-1.5-.339-.385-.855-.57-1.578-.57-.406 0-.783.085-1.152.258-.37.177-.703.419-.988.725-.285.304-.515.675-.682 1.1-.168.427-.256.885-.256 1.362 0 .903.18 1.682.533 2.315.367.663.954 1.376 1.743 2.125l.231.217-3.405 7.442.647.49 3.383-7.509.453.435c.561.539 1.23 1.089 1.998 1.634.782.56 1.582 1.137 2.4 1.731.822.597 1.641 1.229 2.435 1.876.81.662 1.545 1.38 2.185 2.134.649.767 1.179 1.589 1.574 2.449.406.887.613 1.85.613 2.868 0 1.047-.148 2.031-.442 2.922-.298.902-.731 1.691-1.292 2.347-.566.66-1.253 1.183-2.045 1.556-.793.373-1.68.562-2.636.562-1.866 0-3.37-.483-4.465-1.435-1.114-.966-1.679-2.27-1.679-3.874 0-.862.171-1.685.506-2.442.336-.752.791-1.408 1.357-1.952.561-.537 1.217-.968 1.943-1.276.594-.252 1.206-.407 1.826-.454v-.186c-.424-.081-.839-.121-1.232-.121zm-3.01-11.549l-.441-.404c-.562-.512-.961-1.05-1.184-1.602-.224-.541-.336-1.049-.336-1.509 0-.466.133-.854.397-1.149.55-.617 1.646-.619 2.185.05.256.316.385.708.385 1.168 0 .481-.068.973-.201 1.458-.127.468-.312.956-.546 1.449l-.259.539zm-.478-4.244c-.188 0-.318.054-.423.17-.116.13-.173.312-.173.559 0 .343.092.739.271 1.174.11.274.285.552.516.825.094-.239.174-.475.235-.706.112-.41.171-.822.171-1.225 0-.254-.062-.454-.188-.61-.103-.129-.23-.187-.409-.187z" fill="#ECEDDF"/><path fill="#ECEDDF" d="M281.643 67.224c.444-.314.926-.525 1.446-.631.519-.106 1.034-.102 1.549.012s1.015.327 1.495.639c.481.313.906.728 1.273 1.25.738 1.043 1.17 2.157 1.299 3.343.125 1.182.127 2.284.004 3.298-.15 1.179-.457 2.364-.918 3.559l-1.373-.161c.053-.295.109-.668.168-1.116.06-.45.088-.91.087-1.387-.005-.475-.048-.935-.134-1.383-.084-.45-.248-.845-.493-1.193-.206-.29-.517-.433-.933-.429l-1.354.023c-.486.008-.983-.05-1.498-.181-.512-.131-.979-.496-1.404-1.093-.258-.367-.435-.764-.532-1.187-.096-.425-.108-.841-.04-1.254.073-.412.225-.801.459-1.17.231-.366.53-.681.899-.939z"/><path fill="#ECEDDF" d="M281.358 66.82c.497-.352 1.048-.591 1.63-.71.586-.121 1.177-.114 1.758.013.568.127 1.127.365 1.656.708.531.344 1.004.808 1.409 1.379.782 1.109 1.247 2.311 1.386 3.576.129 1.216.131 2.361.004 3.409-.158 1.218-.476 2.453-.948 3.678l-.138.358-2.271-.265.088-.514c.051-.292.105-.659.164-1.1.059-.427.083-.869.082-1.314-.003-.444-.045-.881-.124-1.299-.071-.379-.206-.706-.412-.998-.073-.104-.2-.223-.522-.219-.417.004-.866.011-1.35.023-.527.009-1.074-.056-1.629-.198-.629-.161-1.193-.593-1.684-1.287-.297-.418-.502-.877-.613-1.362-.109-.487-.127-.975-.045-1.45.083-.475.26-.928.526-1.349s.614-.784 1.033-1.079zm6.106 11.339c.37-1.035.625-2.07.756-3.088.116-.968.114-2.039-.009-3.18-.116-1.095-.521-2.141-1.207-3.111-.331-.467-.715-.846-1.14-1.121-.429-.276-.879-.47-1.333-.57-.443-.1-.896-.102-1.346-.011-.812.165-1.586.656-2.025 1.35-.197.31-.326.644-.387.989-.059.345-.049.702.035 1.06.083.36.234.7.456 1.012.349.498.729.8 1.12.9.467.118.929.175 1.363.167.488-.011.939-.019 1.36-.023.729-.009 1.131.341 1.341.637.285.407.479.873.577 1.387.09.475.138.97.14 1.473.002.491-.027.98-.09 1.453l-.09.621.479.055z"/><path fill="#ECEDDF" d="M238.566 144.748h12.15v4.2h-7.634v8.22h5.556v4.2h-5.556v13.505h-4.517v-30.125z"/><path fill="#ECEDDF" d="M253.47 144.748h12.286v4.2h-7.77v8.22h5.602v4.2h-5.602v9.305h7.77v4.2h-12.286v-30.125z"/><path fill="#ECEDDF" d="M272.484 166.427c.119 3.132 1.189 4.698 3.207 4.698.842 0 1.512-.294 2.01-.881.498-.588.746-1.394.746-2.416 0-1.114-.392-2.199-1.176-3.253-.181-.241-.345-.452-.497-.631-.149-.181-.346-.392-.587-.636-.24-.239-.55-.539-.927-.901-.375-.36-.882-.827-1.513-1.399-.963-.875-1.77-1.693-2.415-2.461-.647-.77-1.175-1.513-1.581-2.234-.406-.723-.699-1.454-.881-2.193-.181-.735-.271-1.526-.271-2.372 0-2.257.646-4.063 1.941-5.419 1.295-1.354 3.011-2.031 5.149-2.031 4.005 0 6.277 2.408 6.818 7.226l-4.38.633c-.149-1.355-.414-2.304-.788-2.845-.378-.543-.988-.814-1.832-.814-.782 0-1.398.271-1.851.814-.452.541-.679 1.264-.679 2.168 0 .512.061.984.182 1.422.12.438.33.896.633 1.377.3.483.708.995 1.219 1.537.512.541 1.174 1.189 1.986 1.94 1.174 1.085 2.139 2.032 2.89 2.845.755.814 1.348 1.589 1.784 2.326.438.739.738 1.477.904 2.214.164.739.25 1.558.25 2.462 0 1.145-.175 2.189-.521 3.138-.346.95-.835 1.765-1.468 2.44-.631.678-1.385 1.204-2.258 1.581-.875.374-1.837.563-2.891.563-1.115 0-2.121-.195-3.025-.586-.906-.393-1.681-.941-2.326-1.648-.65-.707-1.16-1.557-1.537-2.553-.377-.992-.579-2.107-.608-3.342l4.293-.769z"/><path fill="#ECEDDF" d="M289.783 148.948h-4.789v-4.2h14.182v4.2h-4.877v25.925h-4.516v-25.925z"/><path fill="#ECEDDF" d="M301.525 144.748h4.516v30.125h-4.516v-30.125z"/><path fill="#ECEDDF" d="M209 182.131h12.15v4.202h-7.633v8.22h5.557v4.198h-5.557v13.505h-4.517v-30.125z"/><path fill="#ECEDDF" d="M224.086 191.933c0-1.114.023-2.063.067-2.845.046-.783.136-1.477.271-2.078s.324-1.129.565-1.58c.241-.455.541-.904.903-1.354.602-.754 1.369-1.342 2.304-1.763.932-.421 1.926-.633 2.979-.633 1.055 0 2.04.212 2.959.633s1.678 1.009 2.281 1.763c.361.449.654.898.881 1.354.226.451.406.971.541 1.557.137.588.233 1.281.294 2.078.06.8.091 1.754.091 2.868v10.522c0 1.115-.031 2.072-.091 2.869-.061.799-.157 1.49-.294 2.077-.135.587-.315 1.108-.541 1.558-.227.452-.52.904-.881 1.355-.604.754-1.362 1.34-2.281 1.76-.919.423-1.904.635-2.959.635-1.054 0-2.048-.212-2.979-.635-.935-.42-1.702-1.006-2.304-1.76-.362-.451-.662-.903-.903-1.355-.241-.449-.431-.977-.565-1.58-.135-.603-.225-1.293-.271-2.077-.044-.784-.067-1.731-.067-2.847v-10.522zm9.619.495c0-1.534-.021-2.656-.066-3.363s-.131-1.227-.248-1.557c-.423-1.085-1.16-1.627-2.215-1.627-1.266 0-2.062.691-2.393 2.076-.061.271-.105.798-.137 1.583-.029.783-.043 1.745-.043 2.888v9.532c0 1.505.021 2.62.066 3.342.046.724.129 1.25.248 1.581.422 1.083 1.174 1.627 2.258 1.627 1.236 0 2.018-.694 2.35-2.079.119-.512.18-2.003.18-4.471v-9.532z"/><path fill="#ECEDDF" d="M242.014 191.933c0-1.114.024-2.063.069-2.845.046-.783.136-1.477.271-2.078.137-.602.325-1.129.565-1.58.241-.455.54-.904.904-1.354.601-.754 1.369-1.342 2.304-1.763.931-.421 1.926-.633 2.979-.633s2.04.212 2.958.633 1.678 1.009 2.281 1.763c.361.449.654.898.88 1.354.228.451.407.971.542 1.557.137.588.232 1.281.294 2.078.06.8.091 1.754.091 2.868v10.522c0 1.115-.031 2.072-.091 2.869-.062.799-.157 1.49-.294 2.077-.135.587-.314 1.108-.542 1.558-.226.452-.519.904-.88 1.355-.604.754-1.363 1.34-2.281 1.76-.918.423-1.904.635-2.958.635s-2.049-.212-2.979-.635c-.935-.42-1.703-1.006-2.304-1.76-.364-.451-.663-.903-.904-1.355-.24-.449-.429-.977-.565-1.58-.135-.603-.225-1.293-.271-2.077-.045-.784-.069-1.731-.069-2.847v-10.522zm9.623.495c0-1.534-.023-2.656-.068-3.363s-.129-1.227-.25-1.557c-.42-1.085-1.158-1.627-2.212-1.627-1.265 0-2.063.691-2.394 2.076-.061.271-.106.798-.136 1.583-.03.783-.045 1.745-.045 2.888v9.532c0 1.505.023 2.62.067 3.342.046.724.129 1.25.248 1.581.422 1.083 1.175 1.627 2.259 1.627 1.234 0 2.017-.694 2.349-2.079.12-.512.182-2.003.182-4.471v-9.532z"/><path fill="#ECEDDF" d="M260.082 182.131h6.411c2.62 0 4.548.688 5.781 2.057 1.237 1.371 1.851 3.516 1.851 6.436v13.143c0 2.922-.613 5.066-1.851 6.437-1.233 1.37-3.161 2.054-5.781 2.054h-6.411v-30.127zm5.916 25.926c1.295 0 2.242-.393 2.844-1.174.301-.423.504-.904.611-1.445.104-.543.158-1.385.158-2.53v-11.428c0-1.143-.055-1.988-.158-2.527-.107-.545-.311-1.023-.611-1.445-.602-.783-1.549-1.175-2.844-1.175h-1.402v21.724h1.402z"/><path d="M151.808 190.018l-126.057 38.246 122.979-47.217c2.446-.937 5.19.283 6.129 2.729.938 2.447-.284 5.191-2.729 6.129l-.322.113zm-126.057 40.465c-.924 0-1.784-.581-2.098-1.499-.389-1.132.188-2.363 1.303-2.793l122.979-47.216c.802-.306 1.641-.462 2.494-.462 2.862 0 5.476 1.795 6.502 4.467 1.375 3.586-.42 7.621-4.004 8.998l-.473.162-126.058 38.248c-.214.064-.431.095-.645.095zm124.677-47.532c-.308 0-.611.058-.904.168l-65.449 25.13 67.089-20.356.18-.061c1.291-.495 1.943-1.959 1.444-3.261-.374-.967-1.322-1.62-2.36-1.62z" fill="#ECEDDF"/><path fill="#ECEDDF" d="M280.035 269.817c0 3.585-2.907 6.493-6.492 6.493h-133.897c-3.585 0-6.493-2.908-6.493-6.493v-35.061c0-3.586 2.907-6.493 6.493-6.493h133.896c3.585 0 6.492 2.907 6.492 6.493v35.061z"/><path fill="#FF6924" d="M158.521 236.48h-11.964c-1.434 0-2.596 1.162-2.596 2.596v26.507c0 1.435 1.162 2.598 2.596 2.598h11.964c1.434 0 2.598-1.163 2.598-2.598v-26.507c0-1.433-1.164-2.596-2.598-2.596zm-5.981 29.794c-.956 0-1.729-.774-1.729-1.729 0-.956.773-1.729 1.729-1.729s1.729.773 1.729 1.729c0 .955-.774 1.729-1.729 1.729zm6.539-4.3h-13.079v-19.553h13.08v19.553z"/><path d="M170.918 241.205l-.728 2.202h-.935l2.379-7.003h1.091l2.39 7.003h-.967l-.748-2.202h-2.482zm2.295-.707l-.695-2.016c-.146-.457-.25-.873-.354-1.277h-.031c-.094.404-.207.842-.342 1.267l-.687 2.026h2.109zm2.838-2.119l.986 2.816c.166.467.302.883.406 1.298h.031c.113-.415.258-.831.425-1.298l.978-2.816h.955l-1.975 5.028h-.873l-1.91-5.028h.977zm7.988 3.823c0 .437.021.861.074 1.205h-.821l-.083-.634h-.031c-.27.396-.82.748-1.537.748-1.02 0-1.537-.717-1.537-1.443 0-1.217 1.08-1.882 3.021-1.871v-.104c0-.415-.114-1.175-1.142-1.163-.479 0-.966.134-1.319.373l-.209-.614c.416-.258 1.029-.435 1.662-.435 1.549 0 1.922 1.049 1.922 2.058v1.88zm-.893-1.361c-.998-.021-2.129.155-2.129 1.133 0 .603.395.873.851.873.665 0 1.091-.416 1.237-.842.031-.094.041-.198.041-.292v-.872zm2.743-3.388c-.343 0-.572-.269-.572-.592 0-.322.24-.58.593-.58.354 0 .583.258.583.58 0 .323-.229.592-.592.592h-.012zm-.437 5.954v-5.028h.915v5.028h-.915zm2.38-7.376h.914v7.376h-.914v-7.376zm5.921 6.171c0 .437.021.861.073 1.205h-.822l-.082-.634h-.031c-.27.396-.82.748-1.538.748-1.018 0-1.537-.717-1.537-1.443 0-1.217 1.081-1.882 3.024-1.871v-.104c0-.415-.115-1.175-1.145-1.163-.477 0-.967.134-1.318.373l-.209-.614c.416-.258 1.029-.435 1.663-.435 1.548 0 1.922 1.049 1.922 2.058v1.88zm-.894-1.361c-.997-.021-2.131.155-2.131 1.133 0 .603.396.873.854.873.665 0 1.09-.416 1.236-.842.031-.094.041-.198.041-.292v-.872zm2.306-4.81h.914v3.147h.022c.32-.561.902-.914 1.713-.914 1.247 0 2.119 1.038 2.119 2.556 0 1.808-1.143 2.701-2.264 2.701-.727 0-1.299-.28-1.684-.945h-.021l-.052.831h-.788c.03-.344.04-.852.04-1.299v-6.077zm.914 5.361l.032.333c.176.633.717 1.069 1.371 1.069.967 0 1.527-.779 1.527-1.933 0-1.018-.52-1.879-1.496-1.879-.623 0-1.205.436-1.383 1.121-.029.115-.052.239-.052.385v.904zm4.945-5.361h.914v7.376h-.914v-7.376zm2.898 5.018c.021 1.236.801 1.745 1.715 1.745.656 0 1.061-.113 1.393-.249l.166.644c-.322.146-.883.323-1.684.323-1.537 0-2.473-1.029-2.473-2.535 0-1.527.904-2.723 2.37-2.723 1.64 0 2.067 1.444 2.067 2.369 0 .187-.012.332-.032.436l-3.522-.01zm2.671-.654c.01-.571-.239-1.486-1.258-1.486-.934 0-1.329.852-1.402 1.486h2.66zm6.16 3.126c-1.351 0-2.411-.997-2.411-2.587 0-1.684 1.113-2.67 2.494-2.67 1.443 0 2.42 1.049 2.42 2.576 0 1.871-1.299 2.681-2.492 2.681h-.011zm.031-.685c.872 0 1.526-.821 1.526-1.964 0-.852-.425-1.922-1.506-1.922-1.07 0-1.537.997-1.537 1.953 0 1.102.623 1.933 1.506 1.933h.011zm3.574-3.096c0-.53-.012-.945-.043-1.361h.812l.051.82h.021c.249-.467.83-.935 1.661-.935.696 0 1.778.416 1.778 2.141v3.002h-.916v-2.899c0-.81-.301-1.495-1.163-1.495-.593 0-1.06.426-1.226.935-.041.114-.062.281-.062.427v3.033h-.913v-3.668zm8.964-2.566v1.205h1.309v.695h-1.309v2.713c0 .623.178.977.686.977.25 0 .396-.021.531-.063l.041.696c-.176.062-.457.125-.811.125-.427 0-.77-.146-.988-.384-.248-.281-.353-.728-.353-1.32v-2.743h-.778v-.695h.778v-.926l.894-.28zm2.285-1.143h.915v3.137h.021c.145-.26.373-.498.654-.644.271-.167.592-.26.936-.26.675 0 1.754.416 1.754 2.15v2.992h-.912v-2.888c0-.821-.303-1.497-1.164-1.497-.592 0-1.049.416-1.226.915-.052.124-.062.259-.062.437v3.033h-.915v-7.375zm6.234 5.018c.021 1.236.8 1.745 1.714 1.745.654 0 1.061-.113 1.394-.249l.165.644c-.322.146-.883.323-1.684.323-1.536 0-2.473-1.029-2.473-2.535 0-1.527.904-2.723 2.369-2.723 1.642 0 2.068 1.444 2.068 2.369 0 .187-.01.332-.031.436l-3.522-.01zm2.671-.654c.009-.571-.24-1.486-1.258-1.486-.935 0-1.331.852-1.402 1.486h2.66zm4.55-2.942c-.344 0-.573-.269-.573-.592 0-.322.239-.58.593-.58.353 0 .582.258.582.58 0 .323-.229.592-.594.592h-.008zm-.437 5.954v-5.028h.913v5.028h-.913zm2.409-6.909c.436-.082 1.009-.145 1.735-.145.893 0 1.549.207 1.963.582.385.332.624.841.624 1.464 0 .634-.188 1.133-.552 1.495-.477.511-1.257.77-2.14.77-.269 0-.519-.011-.727-.062v2.805h-.904v-6.909zm.904 3.365c.196.053.458.074.749.074 1.1 0 1.755-.541 1.755-1.486 0-.936-.655-1.381-1.651-1.381-.395 0-.695.041-.853.072v2.721zm4.489-3.832h.915v3.137h.021c.146-.26.374-.498.653-.644.271-.167.594-.26.936-.26.676 0 1.756.416 1.756 2.15v2.992h-.914v-2.888c0-.821-.301-1.497-1.164-1.497-.592 0-1.049.416-1.225.915-.053.124-.062.259-.062.437v3.033h-.915v-7.375zm7.761 7.49c-1.351 0-2.41-.997-2.41-2.587 0-1.684 1.111-2.67 2.494-2.67 1.443 0 2.419 1.049 2.419 2.576 0 1.871-1.298 2.681-2.493 2.681h-.01zm.031-.685c.871 0 1.527-.821 1.527-1.964 0-.852-.426-1.922-1.508-1.922-1.068 0-1.537.997-1.537 1.953 0 1.102.623 1.933 1.506 1.933h.012zm3.573-3.096c0-.53-.011-.945-.042-1.361h.811l.053.82h.021c.25-.467.831-.935 1.662-.935.696 0 1.776.416 1.776 2.141v3.002h-.914v-2.899c0-.81-.302-1.495-1.164-1.495-.592 0-1.059.426-1.225.935-.043.114-.064.281-.064.427v3.033h-.913v-3.668zm6.233 1.309c.021 1.236.8 1.745 1.715 1.745.653 0 1.059-.113 1.391-.249l.167.644c-.323.146-.884.323-1.683.323-1.538 0-2.474-1.029-2.474-2.535 0-1.527.904-2.723 2.368-2.723 1.643 0 2.068 1.444 2.068 2.369 0 .187-.01.332-.031.436l-3.521-.01zm2.67-.654c.01-.571-.239-1.486-1.258-1.486-.936 0-1.33.852-1.402 1.486h2.66z" fill="#FF6924"/><path d="M175.223 248.15l-6.16 18.133h2.82l1.839-5.567h5.965l1.892 5.567h2.898l-6.187-18.133h-3.067zm1.461 2.982c.208.81.433 1.649.721 2.558l1.66 4.808h-4.725l1.637-4.839c.25-.785.486-1.633.707-2.527zm15.764 1.719c-1.868 0-3.366.722-4.362 2.093l-.109-1.804h-2.509l.015.23c.074 1.123.105 2.36.105 4.137v13.976h2.742v-6.522c.852 1.019 2.211 1.611 3.751 1.611 1.604 0 3.081-.628 4.157-1.768 1.201-1.27 1.836-3.095 1.836-5.276 0-1.928-.551-3.594-1.595-4.818-1.021-1.199-2.453-1.859-4.031-1.859zm-.683 2.271c2.445 0 3.54 2.266 3.54 4.511 0 2.895-1.396 4.693-3.645 4.693-1.534 0-2.862-1.044-3.232-2.545-.062-.233-.098-.541-.098-.888v-2.207c0-.199.045-.442.088-.677l.039-.223c.41-1.568 1.768-2.664 3.308-2.664zm14.81-2.271c-1.868 0-3.364.722-4.362 2.093l-.109-1.804h-2.508l.014.23c.074 1.125.105 2.36.105 4.137v13.976h2.744v-6.522c.851 1.019 2.209 1.611 3.748 1.611 1.604 0 3.082-.628 4.16-1.768 1.199-1.27 1.834-3.095 1.834-5.276 0-1.928-.551-3.594-1.595-4.818-1.02-1.199-2.452-1.859-4.031-1.859zm-.682 2.271c2.445 0 3.539 2.266 3.539 4.511 0 2.895-1.397 4.693-3.645 4.693-1.533 0-2.862-1.044-3.231-2.545-.063-.233-.097-.541-.097-.888v-2.207c0-.2.043-.444.088-.679l.039-.221c.408-1.568 1.766-2.664 3.307-2.664zm18.38.712c-2.561-.992-3.381-1.772-3.381-3.213 0-1.213.964-2.436 3.119-2.436 1.777 0 2.914.617 3.221.808l.232.144.773-2.29-.153-.089c-.459-.27-1.769-.896-3.995-.896-3.498 0-5.941 2.065-5.941 5.022 0 2.384 1.529 4.05 4.815 5.244 2.327.87 3.194 1.763 3.194 3.29 0 1.729-1.337 2.803-3.487 2.803-1.4 0-2.842-.407-3.954-1.12l-.238-.153-.736 2.343.136.089c1.035.692 2.985 1.192 4.636 1.192 4.715 0 6.388-2.875 6.388-5.337-.001-2.539-1.341-4.105-4.629-5.401zm9.567-5.818l-2.691.845v2.279h-1.969v2.192h1.969v6.716c0 1.625.311 2.763.95 3.481.613.672 1.556 1.042 2.654 1.042 1.038 0 1.774-.205 2.12-.327l.154-.055-.131-2.196-.264.081c-.346.106-.703.146-1.275.146-1.064 0-1.518-.672-1.518-2.251v-6.638h3.31v-2.192h-3.31v-3.123zm10.107 2.835c-3.838 0-6.519 2.865-6.519 6.966 0 3.978 2.595 6.755 6.309 6.755h.026c3.141 0 6.519-2.188 6.519-6.991 0-1.953-.604-3.631-1.748-4.853-1.151-1.228-2.737-1.877-4.587-1.877zm-.078 2.166c2.469 0 3.592 2.406 3.592 4.643 0 2.75-1.533 4.746-3.645 4.746h-.025c-2.082 0-3.592-1.962-3.592-4.667 0-2.35 1.135-4.722 3.67-4.722zm14.817-2.039l-.164-.041c-.242-.061-.439-.086-.684-.086-1.435 0-2.723.846-3.439 2.209l-.08-1.92h-2.462l.016.23c.073 1.086.104 2.306.104 3.951l-.025 8.962h2.743v-6.992c0-.381.027-.741.076-1.062.31-1.681 1.442-2.766 2.887-2.766.28 0 .502.023.736.046l.293.03v-2.561zm6.168-.153c-3.652 0-6.203 2.918-6.203 7.097 0 4.022 2.537 6.624 6.466 6.624 2.065 0 3.503-.454 4.344-.834l.165-.074-.527-2.044-.229.092c-.748.305-1.741.615-3.438.615-1.192 0-3.94-.394-4.109-3.978l8.855.025.035-.175c.057-.278.083-.653.083-1.145 0-2.86-1.425-6.203-5.442-6.203zm-.183 2.087c.835 0 1.514.259 2.014.769.789.803.928 1.985.944 2.554h-6.256c.254-1.585 1.245-3.323 3.298-3.323z" fill="#FF6924"/></svg>