<svg xmlns="http://www.w3.org/2000/svg" width="175" height="127"><path fill-rule="evenodd" clip-rule="evenodd" fill="#ECEDDF" d="M26.023 70.618c-1.343.38-2.779.711-4.162 1.192-4.577 1.594-8.476 4.197-11.502 8.019-1.837 2.321-2.901 4.96-2.854 7.948.033 2.119.899 3.86 2.898 5.313 0-.923-.041-1.604.008-2.279.22-3.036 2.607-5.229 5.508-5.084 2.652.132 4.427 2.517 3.776 5.29-.243 1.039-.694 2.163-1.394 2.937-3.112 3.443-7.043 5.089-11.693 4.532-3.529-.424-6.084-3.479-6.295-7.148-.199-3.494.888-6.621 2.808-9.463 4.16-6.158 10.065-10.027 16.951-12.438 2.965-1.036 6.095-1.606 9.141-2.422.582-.156 1.145-.43 1.677-.723.879-.481 1.685-1.122 2.604-1.499.6-.248 1.341-.147 2.02-.203v1.802c1.313.169 2.839.277 4.328.573 4.767.946 8.114 3.614 9.41 8.395 1.273 4.703-.387 8.543-3.917 11.696-.141.127-.326.203-.629.389.336.229.459.372.606.408 6.041 1.443 8.434 7.511 8.225 12.49-.21 5.025-2.659 8.919-6.279 12.15-4.179 3.729-9.064 5.855-14.722 5.896-1.269.01-2.602-.207-3.793-.634-1.088-.388-1.575-.086-2.24.724-3.189 3.893-7.127 6.659-12.18 7.526-2.114.362-4.012-.337-5.484-1.872-.404-.423-.702-1.437-.467-1.842.244-.422 1.331-.77 1.81-.57 3.117 1.293 5.142-.396 7.035-2.419 2.458-2.624 3.281-5.963 3.483-9.377.352-5.92.292-11.864.652-17.783.267-4.384.656-8.797 1.504-13.095.561-2.84 2.032-5.503 3.167-8.429zm17.112 30.835c-.385-1.104-.852-3.284-1.865-5.169-1.52-2.831-4.448-3.76-7.513-2.952-1.212.321-1.674.839-1.645 2.164.134 5.706-.182 11.372-2.04 16.854-.107.315.294 1.045.647 1.24 2.952 1.627 6.801.778 9.183-2.027 2.202-2.592 3.008-5.704 3.233-10.11zm-10.364-30.733c-.993 6.415-1.046 12.771-.842 19.147 4.397-.009 7.567-4.143 7.951-10.104.3-4.657-2.566-8.455-7.109-9.043z"/><path fill-rule="evenodd" clip-rule="evenodd" fill="#ECEDDF" d="M82.884 72.821c2.027-.729 4.014-1.413 5.974-2.161.874-.334 1.151.13 1.291.809.104.501.106 1.02.185 1.835.459-.622.699-1.089 1.065-1.417 1.37-1.235 2.627-2.71 4.212-3.57 2.807-1.526 4.734-.562 5.758 2.591 3.904-4.882 8.154-8.888 15.168-6.433v-1.748c2.023-.617 4.109-1.28 6.213-1.886 1.035-.298 1.143.531 1.109 1.187-.088 1.719-.252 3.437-.439 5.147-.854 7.804-1.727 15.604-2.588 23.407-.01.086.053.178.111.359.982.166 2.092.15 3.02.553 1.682.73 3.445 1.48 4.827 2.64 1.679 1.407 1.696 3.882.494 5.797-1.044 1.662-2.835 2.312-4.885 1.772-1.386-.365-2.225-1.219-2.456-2.828.494.068.925.239 1.303.159.83-.178 1.898-.253 2.367-.799.43-.499.426-1.632.213-2.369-.407-1.407-3.689-3.028-5.069-2.584-.316.102-.54.692-.679 1.103-1.115 3.303-2.066 6.668-3.34 9.906-1.04 2.646-2.716 4.951-5.025 6.709-1.794 1.366-3.785 2.238-6.078 2.28-4.781.086-7.699-3.341-6.887-8.073.393-2.296 1.529-4.209 3.039-5.928 2.851-3.245 6.352-5.535 10.458-6.811 1.222-.379 1.725-.981 1.771-2.176.048-1.185.165-2.362.282-3.945-.496.562-.733.815-.953 1.083-3.52 4.276-9.42 3.925-12.339-.801-1.908-3.091-2.103-6.497-1.507-9.994l.23-1.437c-3.463 1.432-4.342 1.224-6.415-1.761-.815 1.174-1.868 2.133-2.208 3.3-.688 2.367-1.211 4.83-1.402 7.283-.275 3.526-.227 7.081-.246 10.623-.005.996-.254 1.562-1.281 1.877-1.829.559-3.598 1.306-5.418 1.896-.384.125-.876-.079-1.523-.157-3.956 4.142-7.721 3.881-11.262-1.065-.442 1.391-.806 2.756-1.308 4.066-.793 2.08-2.126 3.738-4.158 4.75-3.132 1.562-6.434.722-7.986-2.4-.866-1.74-1.356-3.803-1.47-5.751-.192-3.239.094-6.504.098-9.759.002-1.329-.212-2.657-.349-4.229 1.873-.752 3.859-1.68 5.93-2.338 1.267-.403 1.338.758 1.342 1.615.015 3.256-.04 6.514-.02 9.769.006.902.159 1.806.302 2.7.067.417.235.83.42 1.215.959 1.991 2.959 2.209 4.158.359.692-1.068 1.218-2.288 1.59-3.509 1.151-3.771 1.442-11.58.645-15.565 1.987-.799 3.994-1.654 6.042-2.405 1.055-.386 1.236.474 1.25 1.213.029 1.577-.079 3.16-.045 4.738.054 2.582.152 5.161.294 7.74.03.55.255 1.126.521 1.619.893 1.656 2.585 1.9 3.704.392.714-.964 1.349-2.199 1.452-3.361.377-4.288.532-8.598.733-12.9.033-.704-.137-1.418-.235-2.332zm23.692 4.164c.295.874.619 2.651 1.455 4.142 1.184 2.108 3.654 2.189 5.104.252.811-1.083 1.521-2.367 1.842-3.668.562-2.262.893-4.598 1.117-6.923.156-1.614-.249-3.245-1.846-4.056-1.568-.793-2.971-.022-4.213.968-.404.325-.75.738-1.069 1.152-1.644 2.133-2.193 4.625-2.39 8.133zm6.837 17.101c-.49.129-.776.154-1.018.273-4.498 2.236-7.434 5.796-8.579 10.669-.312 1.327-.121 2.858.18 4.218.334 1.498 1.628 2.119 3.002 1.445 1.02-.498 2.059-1.301 2.668-2.241 2.801-4.317 3.086-9.307 3.747-14.364z"/><path fill-rule="evenodd" clip-rule="evenodd" fill="#ECEDDF" d="M59.663 64.578c.046.705-.034 1.05.1 1.248.542.794 1.009 1.896 1.778 2.207.684.275 1.917-.098 2.578-.608 1.81-1.4 2.765-3.457 3.181-5.646 1.222-6.438 2.366-12.892 3.439-19.355.538-3.234 1.024-6.464 3.178-9.094.617-.753 1.477-1.326 2.291-1.885.226-.155.69.04 1.044.073-.045.313.021.724-.153.925-1.219 1.406-.974 2.982-.427 4.484 1.163 3.189 2.449 6.333 3.699 9.49.839 2.123 1.701 4.237 2.705 6.73.27-.852.452-1.362.593-1.885 1.876-6.886 3.852-13.739 7.239-20.081 1.504-2.815 3.241-5.451 6.15-7.028.611-.331 1.343-.443 2.018-.657l.229.351c-.143.325-.296.646-.43.976-.673 1.658-1.855 3.299-1.919 4.981-.245 6.496-.159 13.006-.124 19.51.004.879.33 1.789.656 2.627.63 1.618 1.584 1.992 3.187 1.27 1.96-.886 3.281-2.443 4.253-4.317 1.376-2.653 1.996-5.597 2.111-9.978 1.455-.461 2.93-1.021 4.451-1.387 1.481-.354.624 1.168 1.25 1.726.3-.345.542-.753.895-1.008 1.225-.88 2.385-1.972 3.758-2.49 2.172-.821 3.936.925 3.457 3.212-.311 1.488-1.218 2.484-2.717 2.84-1.528.363-2.421-.525-3.329-2.118-.724 1.003-1.616 1.763-1.881 2.7-.628 2.239-1.076 4.548-1.38 6.856-.276 2.082-.301 4.202-.361 6.308-.023.854-.309 1.289-1.158 1.513-1.523.4-3.016.912-4.64 1.414l-.242-1.503c-.547.479-.993.898-1.468 1.284-4.493 3.658-10.45 2.405-13.102-2.743-1.31-2.546-1.5-5.318-1.678-8.094-.039-.614-.006-1.232-.297-1.919-.149.362-.344.712-.442 1.089-1.449 5.451-2.908 10.901-4.309 16.367-.573 2.231-1.477 4.264-3.206 5.817-.398.357-1.14.618-1.617.497-.303-.074-.633-.965-.569-1.438.492-3.602-.746-6.782-2.2-9.947-1.152-2.509-2.186-5.071-3.456-8.04-.168 1.033-.246 1.659-.373 2.275-.96 4.636-1.823 9.295-2.938 13.895-.658 2.709-1.888 5.233-3.974 7.208-1.604 1.521-3.441 2.6-5.723 2.669-2.783.082-4.917-1.368-5.622-3.777-.71-2.434.334-5.037 2.669-6.395.795-.462 1.715-.706 2.826-1.149z"/><path fill-rule="evenodd" clip-rule="evenodd" fill="#ECEDDF" d="M142.641 42.871c-.859-.46-1.719-.715-2.299-1.268-2.392-2.278-4.721-4.625-7.023-6.992-1.375-1.414-1.377-3.076.004-4.461 9.365-9.394 18.745-18.772 28.137-28.139 1.441-1.438 3.096-1.415 4.558.022 2.323 2.283 4.626 4.583 6.91 6.907 1.405 1.43 1.438 3.154.019 4.577-9.33 9.36-18.676 18.706-28.049 28.024-.57.565-1.419.848-2.257 1.33z"/><path fill-rule="evenodd" clip-rule="evenodd" fill="#ECEDDF" d="M45.534 40.799c-.511.916-.785 1.765-1.34 2.344-2.248 2.354-4.569 4.641-6.889 6.925-1.512 1.487-3.131 1.489-4.673-.018-2.192-2.141-4.341-4.326-6.508-6.493-7.008-7.009-14.018-14.014-21.025-21.025-2.015-2.018-2.025-3.515-.041-5.51 2.095-2.105 4.188-4.211 6.301-6.295 1.707-1.683 3.282-1.676 4.99.029 9.216 9.204 18.43 18.406 27.614 27.643.633.636 1.01 1.527 1.571 2.4z"/><path fill-rule="evenodd" clip-rule="evenodd" fill="#ECEDDF" d="M157.982 55.925c-.879 1.012-1.803 1.731-2.258 2.674-.807 1.671-1.307 3.487-1.979 5.226-1.035 2.674-1.917 5.429-3.204 7.979-2.881 5.701-7.624 9.111-13.862 10.379-6.673 1.355-11.773-2.52-12.089-9.332-.259-5.606 1.843-10.296 6.286-13.818 1.933-1.529 4.184-2.288 6.658-2.344 4.58-.104 7.273 3.455 5.904 7.875-.9 2.907-3.033 4.727-5.711 5.896-1.562.682-3.244 1.094-4.885 1.631.024 2.844 2.504 5.178 5.326 4.819 4.217-.536 6.602-3.328 7.866-7.077 1.62-4.81 2.105-9.806 1.713-15.08 2.02-.579 4.106-1.212 6.219-1.737.246-.062.823.408.92.73.157.522.042 1.126.042 2.173.562-.669.846-1 1.121-1.338 1.455-1.781 3.164-3.192 5.453-3.767 2.692-.678 4.688.929 4.598 3.705-.073 2.317-2.009 4.348-4.249 4.483-1.937.115-2.917-1.116-3.869-3.077zm-25.716 13.819c2.254-.305 4.062-1.062 5.605-2.424 1.607-1.418 2.523-3.189 2.103-5.338-.173-.886-.728-2.09-1.423-2.369-.709-.287-2.031.119-2.688.684-2.798 2.398-3.843 5.566-3.597 9.447z"/><path fill-rule="evenodd" clip-rule="evenodd" fill="#ECEDDF" d="M139.201 42.93c-1.858 2.447-1.977 2.477-4.283.809-2.797 2.324-5.625 4.668-8.441 7.024-.668.559-1.295.995-2.13.254-.86-.763-1.056-1.487-.239-2.446 2.081-2.437 4.108-4.918 6.152-7.386.328-.397.637-.812.933-1.192-1.624-2.19-1.624-2.19.829-4.229 2.392 2.387 4.773 4.763 7.179 7.166z"/><path fill-rule="evenodd" clip-rule="evenodd" fill="#ECEDDF" d="M45.536 44.273c2.444 1.996 2.444 1.996.815 4.271 2.335 2.812 4.684 5.649 7.044 8.473.564.675.961 1.301.222 2.132-.776.873-1.489 1.022-2.441.208-2.434-2.085-4.92-4.111-7.387-6.158-.367-.303-.743-.593-1.101-.879-2.501 1.439-2.515 1.438-4.336-.91l7.184-7.137z"/></svg>