<svg xmlns="http://www.w3.org/2000/svg" width="271.333" height="300"><circle fill="#ECEDDF" cx="29.68" cy="28.603" r="23.377"/><g fill="#FF6924"><line x1="30.127" y1="38.196" x2="24.424" y2="32.494"/><path d="M30.127 39.352c-.295 0-.591-.113-.816-.339l-5.703-5.703c-.452-.45-.452-1.182 0-1.633.451-.452 1.182-.452 1.633 0l5.703 5.703c.452.451.452 1.183 0 1.633-.226.225-.522.339-.817.339z"/><line x1="30.156" y1="38.196" x2="35.86" y2="32.494"/><path d="M30.156 39.352c-.296 0-.591-.113-.817-.339-.45-.45-.45-1.183 0-1.633l5.705-5.703c.45-.452 1.182-.452 1.633 0 .452.451.452 1.183 0 1.633l-5.704 5.703c-.225.225-.521.339-.817.339z"/></g><g fill="#FF6924"><line x1="30.157" y1="19.328" x2="35.86" y2="25.031"/><path d="M30.157 18.173c.296 0 .591.112.817.338l5.702 5.703c.452.451.452 1.183 0 1.634-.451.451-1.183.451-1.633 0l-5.703-5.703c-.451-.451-.451-1.183 0-1.634.226-.226.521-.338.817-.338z"/><line x1="30.128" y1="19.328" x2="24.424" y2="25.031"/><path d="M30.128 18.173c.296 0 .592.112.817.338.45.451.45 1.184 0 1.634l-5.705 5.703c-.451.451-1.182.451-1.633 0-.452-.451-.452-1.184 0-1.634l5.704-5.703c.226-.226.521-.338.817-.338z"/></g><g stroke="#ECEDDF" stroke-width="4" stroke-linecap="round" stroke-linejoin="round" stroke-miterlimit="10" fill="none"><line x1="22.076" y1="90.713" x2="37.284" y2="75.506"/><line x1="22.077" y1="90.791" x2="37.284" y2="106"/></g><g stroke="#ECEDDF" stroke-width="4" stroke-linecap="round" stroke-linejoin="round" stroke-miterlimit="10" fill="none"><line x1="34.88" y1="142.397" x2="19.671" y2="157.605"/><line x1="34.879" y1="142.319" x2="19.671" y2="127.111"/></g><path fill="#ECEDDF" d="M92 26.419c-.096-.258 2.584-2.651 1.021-4.59-.366-.454-1.606 2.17-3.369 3.359-.971.655-3.232 2.051-3.232 2.82v4.992c0 .928 3.585 1.911 6.311 1.911.998 0 2.447-6.258 2.447-7.253 0-.997-3.08-.978-3.178-1.239zm-6.311.07c-.479 0-2.189.291-2.189 2.278v3.536c0 1.986 1.711 2.207 2.189 2.207.48 0-.729-.42-.729-1.65v-4.648c.001-1.291 1.21-1.723.729-1.723z"/><path fill="#ECEDDF" d="M128.215 24.568c-.582.259-1.207.433-1.863.512.67-.401 1.184-1.038 1.427-1.795-.628.371-1.321.642-2.062.787-.59-.632-1.434-1.024-2.367-1.024-1.792 0-3.245 1.452-3.245 3.244 0 .254.028.502.084.739-2.696-.136-5.088-1.427-6.687-3.39-.279.479-.44 1.036-.44 1.631 0 1.125.573 2.119 1.443 2.701-.531-.018-1.032-.163-1.47-.406v.041c0 1.572 1.117 2.883 2.603 3.182-.272.073-.559.113-.854.113-.209 0-.412-.02-.61-.058.413 1.288 1.61 2.228 3.03 2.253-1.11.871-2.509 1.389-4.029 1.389-.262 0-.52-.016-.773-.045 1.436.921 3.141 1.458 4.974 1.458 5.968 0 9.231-4.944 9.231-9.232l-.009-.42c.632-.457 1.182-1.028 1.617-1.68z"/><path fill="#ECEDDF" d="M161.415 31.588l-2.81-1.891h-1.732l3.001 2.303h-3.128c-.09 0-.171.045-.211.117l-.722 1.972h-5.28l-.721-1.972c-.04-.072-.122-.117-.211-.117h-3.128l3.001-2.303h-1.732l-2.81 1.891c-.419.25-.668.825-.556 1.279l.495 2.711c.112.454.609.825 1.104.825h14.395c.495 0 .992-.371 1.104-.825l.495-2.711c.115-.454-.135-1.029-.554-1.279zm-3.652-5.666h-2.913v-4.519h-3.352v4.519h-2.912l4.588 4.305 4.589-4.305z"/><path d="M77.937 88.892h1.914c1.541 0 2.607 1.058 2.607 2.438v.015c0 1.38-1.066 2.452-2.607 2.452h-1.914v-4.905zm1.08.973v2.957h.834c.883 0 1.479-.595 1.479-1.464v-.014c0-.869-.596-1.479-1.479-1.479h-.834zm9.306-.973h2.243c.624 0 1.106.176 1.429.497.273.273.421.659.421 1.122v.014c0 .791-.427 1.289-1.05 1.521l1.197 1.752h-1.262l-1.051-1.569h-.848v1.569h-1.08v-4.906zm2.173 2.381c.525 0 .827-.28.827-.693v-.014c0-.463-.322-.701-.848-.701h-1.072v1.408h1.093zm7.801-2.381h3.7v.96h-2.628v.995h2.312v.96h-2.312v1.03h2.663v.96h-3.735v-4.905zm11.284-.036h.994l2.103 4.94h-1.128l-.448-1.101h-2.075l-.447 1.101h-1.101l2.102-4.94zm1.135 2.887l-.652-1.591-.65 1.591h1.302zm7.626-2.851h1.163l1.289 2.074 1.289-2.074h1.164v4.905h-1.072v-3.202l-1.381 2.095h-.027l-1.367-2.074v3.182h-1.058v-4.906zm12.132.995h-1.493v-.995h4.064v.995h-1.493v3.91h-1.078v-3.91zm8.304-.995h3.7v.96h-2.628v.995h2.312v.96h-2.312v1.03h2.662v.96h-3.734v-4.905zm11.284-.036h.995l2.103 4.94h-1.129l-.447-1.101h-2.074l-.449 1.101h-1.1l2.101-4.94zm1.134 2.887l-.651-1.591-.651 1.591h1.302zm7.627-2.851h1.163l1.289 2.074 1.289-2.074h1.163v4.905h-1.072v-3.202l-1.38 2.095h-.028l-1.366-2.074v3.182h-1.058v-4.906z" fill="#ECEDDF"/><path fill="#ECEDDF" d="M171.993 102.398h-103.371v-23.214h103.371v23.214zm-101.969-1.402h100.566v-20.411h-100.566v20.411z"/><path fill-rule="evenodd" clip-rule="evenodd" fill="#1E2428" d="M249.743 76.38c-1.139.592-2.008 1.273-2.966 1.491-3.903.882-7.838 1.653-11.771 2.415-2.561.499-4.219-.596-4.777-3.193-.792-3.679-1.508-7.384-2.264-11.076-2.418-11.953-4.844-23.896-7.259-35.845-.694-3.438.304-4.983 3.7-5.681 3.578-.731 7.148-1.466 10.736-2.166 2.895-.568 4.504.51 5.096 3.419 3.197 15.696 6.387 31.398 9.523 47.105.221 1.082.002 2.255-.018 3.531z"/><path fill-rule="evenodd" clip-rule="evenodd" fill="#1E2428" d="M247.38 79.946c1.152 3.705 1.152 3.705-2.061 4.927.478 4.473.963 8.98 1.461 13.474.117 1.075.102 1.991-1.219 2.339-1.39.366-2.227.034-2.647-1.444-1.083-3.792-2.243-7.562-3.388-11.333-.166-.56-.357-1.115-.529-1.65-3.549-.226-3.555-.236-3.825-3.881 4.036-.807 8.048-1.604 12.208-2.432z"/><path fill-rule="evenodd" clip-rule="evenodd" fill="#C63C2E" d="M228.846 70.469c-2.423-11.957-4.847-23.896-7.265-35.846-.697-3.438 18.945-7.338 19.533-4.429 2.457 12.074 5.1 24.928 7.528 37.007.728 3.628-19.043 6.958-19.796 3.268z"/><text transform="matrix(.229 .973 -.973 .229 227.222 40.125)" fill="#ECEDDF" font-family="'AlternateGothicCom-No2'" font-size="15.997">RATE</text><path fill="#284877" d="M34.078 187.272h-3.88c-.465 0-.98.609-.98 1.414v2.812h4.86v3.996h-4.86v12.016h-4.582v-12.016h-4.164v-3.996h4.164v-2.357c0-3.377 2.341-6.125 5.562-6.125h3.88v4.256z"/><path fill="#2E353B" d="M91.064 136.181c.186 0 .367.07.51.211.28.281.28.738 0 1.02l-5.481 5.481c-.28.282-.737.282-1.019 0-.282-.281-.282-.737 0-1.02l5.482-5.481c.139-.141.325-.211.508-.211z"/><path fill="#2E353B" d="M85.582 141.69c.186 0 .369.07.511.211l5.481 5.48c.28.282.28.738 0 1.02-.283.282-.738.282-1.018 0l-5.482-5.48c-.282-.282-.282-.738 0-1.02.139-.14.324-.211.508-.211z"/><path fill="#2E353B" d="M114.602 148.01c-.184 0-.369-.069-.509-.211-.282-.281-.282-.737 0-1.02l5.481-5.48c.279-.282.738-.282 1.018 0 .283.281.283.737 0 1.02l-5.48 5.48c-.141.141-.327.211-.51.211z"/><path fill="#2E353B" d="M120.084 142.501c-.186 0-.37-.071-.51-.211l-5.481-5.481c-.282-.281-.282-.738 0-1.02s.737-.281 1.019 0l5.48 5.481c.281.282.281.737 0 1.02-.141.14-.324.211-.508.211z"/></svg>