<?xml version="1.0" encoding="utf-8"?>
<!-- Generator: Adobe Illustrator 16.0.4, SVG Export Plug-In . SVG Version: 6.00 Build 0)  -->
<!DOCTYPE svg PUBLIC "-//W3C//DTD SVG 1.1//EN" "http://www.w3.org/Graphics/SVG/1.1/DTD/svg11.dtd">
<svg version="1.1" id="Layer_1" xmlns="http://www.w3.org/2000/svg" xmlns:xlink="http://www.w3.org/1999/xlink" x="0px" y="0px"
	 width="175px" height="127px" viewBox="0 0 175 127" enable-background="new 0 0 175 127" xml:space="preserve">
<text transform="matrix(1 0 0 1 18.791 103.1738)" fill="#ECEDDF" font-family="'Mission-Script'" font-size="50.3612">Live feed</text>
<g>
	<g>
		<g>
			<path fill="#ECEDDF" d="M74.431,37.091c0,0-3.308,7.288,13.584,7.205c16.891-0.083,13.413-7.205,13.413-7.205
				s-6.785,1.905-13.413,1.905S74.431,37.091,74.431,37.091z"/>
		</g>
	</g>
	<g>
		<g>
			<path fill="#ECEDDF" d="M87.428,37.007c-7.09,0-11.321-1.409-11.58-1.498c-1.688-0.579-2.587-2.415-2.008-4.103
				c0.576-1.684,2.406-2.582,4.09-2.012c0.158,0.051,8.217,2.615,20.766-0.098c1.742-0.377,3.462,0.73,3.84,2.475
				c0.376,1.742-0.731,3.462-2.475,3.838C95.229,36.654,90.971,37.007,87.428,37.007z"/>
		</g>
	</g>
	<g>
		<g>
			<path fill="#ECEDDF" d="M87.299,28.869l-1.791-1.248l-1.91,0.776l-1.665-1.199l-1.901,0.774l-1.664-1.201l-1.899,0.774l-2-1.44
				c-0.333-0.24-0.409-0.707-0.169-1.04c0.24-0.334,0.707-0.41,1.041-0.169l1.329,0.958l1.901-0.774l1.664,1.2l1.899-0.774
				l1.666,1.2l1.896-0.771l1.663,1.158l1.894-1.137l2.153,0.773l1.952-1.201l2.158,0.775l1.954-1.201l2.161,0.775l1.651-1.014
				c0.352-0.216,0.81-0.105,1.025,0.244c0.216,0.352,0.105,0.811-0.245,1.025l-2.261,1.389l-2.161-0.775l-1.955,1.202l-2.156-0.775
				l-1.954,1.201l-2.162-0.777L87.299,28.869z"/>
		</g>
	</g>
	<g>
		<path fill="#ECEDDF" d="M88.941,12.662c-16.065,0-14.243,10.103-14.243,10.103s5.88,1.987,13.468,1.987
			c7.587,0,14.273-1.987,14.273-1.987S105.008,12.662,88.941,12.662z M84.312,18.661c-0.184,0.132-0.438,0.091-0.572-0.092
			L82.967,17.5c-0.053-0.072-0.077-0.156-0.077-0.239c0-0.128,0.058-0.252,0.169-0.332c0.183-0.133,0.439-0.092,0.57,0.091
			l0.775,1.069C84.537,18.272,84.495,18.528,84.312,18.661z M87.021,19.854l-1.068,0.774c-0.074,0.053-0.157,0.077-0.24,0.077
			c-0.127,0-0.252-0.059-0.332-0.169c-0.132-0.184-0.092-0.439,0.092-0.571l1.068-0.774c0.184-0.133,0.439-0.092,0.572,0.092
			C87.246,19.466,87.204,19.722,87.021,19.854z M87.021,15.725l-1.068,0.774c-0.074,0.052-0.157,0.077-0.24,0.077
			c-0.127,0-0.252-0.059-0.332-0.169c-0.132-0.183-0.092-0.438,0.092-0.571l1.068-0.774c0.184-0.133,0.439-0.091,0.572,0.093
			C87.246,15.336,87.204,15.592,87.021,15.725z M89.436,18.661c-0.182,0.132-0.438,0.091-0.57-0.092L88.091,17.5
			c-0.053-0.072-0.077-0.156-0.077-0.239c0-0.128,0.059-0.252,0.168-0.332c0.184-0.133,0.439-0.092,0.571,0.091l0.774,1.069
			C89.66,18.272,89.619,18.528,89.436,18.661z M91.65,19.854l-1.07,0.774c-0.072,0.053-0.156,0.077-0.239,0.077
			c-0.128,0-0.251-0.059-0.332-0.169c-0.132-0.184-0.091-0.439,0.092-0.571l1.069-0.774c0.184-0.133,0.438-0.092,0.571,0.092
			C91.873,19.466,91.833,19.722,91.65,19.854z M92.285,15.725l-1.068,0.774c-0.072,0.052-0.156,0.077-0.24,0.077
			c-0.127,0-0.252-0.059-0.332-0.169c-0.133-0.183-0.092-0.438,0.092-0.571l1.07-0.774c0.182-0.133,0.438-0.091,0.57,0.093
			C92.51,15.336,92.469,15.592,92.285,15.725z M94.902,19.035c-0.184,0.133-0.439,0.092-0.572-0.092l-0.774-1.068
			c-0.053-0.072-0.077-0.156-0.077-0.24c0-0.127,0.059-0.251,0.169-0.331c0.183-0.133,0.438-0.092,0.571,0.091l0.774,1.069
			C95.126,18.647,95.085,18.903,94.902,19.035z"/>
	</g>
</g>
</svg>
