<?xml version="1.0" encoding="utf-8"?>
<!-- Generator: Adobe Illustrator 16.0.4, SVG Export Plug-In . SVG Version: 6.00 Build 0)  -->
<!DOCTYPE svg PUBLIC "-//W3C//DTD SVG 1.1//EN" "http://www.w3.org/Graphics/SVG/1.1/DTD/svg11.dtd">
<svg version="1.1" id="Layer_1" xmlns="http://www.w3.org/2000/svg" xmlns:xlink="http://www.w3.org/1999/xlink" x="0px" y="0px"
	 width="175px" height="127px" viewBox="0 0 175 127" enable-background="new 0 0 175 127" xml:space="preserve">
<g enable-background="new    ">
	<path fill="#ECEDDF" d="M36.465,75.479c0,2.114-0.252,4.381-0.252,6.445c0,0.956,0.151,1.862,0.151,2.668
		c0,1.511-1.158,2.216-2.417,2.216c-1.662,0-2.669-1.058-2.669-3.272c0-3.475,1.964-8.157,1.964-11.582
		c0-1.007-0.151-1.913-0.604-2.669c-0.201,0-0.352,0-0.755,0.102c-3.021,0.906-4.481,23.263-10.322,29.104
		c1.762,0.302,3.776,0.956,6.596,0.956c4.532,0,9.064-5.438,9.718-6.495c0.252-0.403,0.604-0.655,0.806-0.655
		c0.202,0,0.353,0.151,0.353,0.454c0,0.201-0.05,0.402-0.151,0.704c-0.604,1.763-6.395,10.071-12.891,10.071
		c-3.676,0-4.834-1.058-6.748-1.058c-3.021,0-2.971,0.856-3.827,0.856c-0.302,0-0.504-0.202-0.504-0.554
		c0-1.562,1.863-3.273,3.475-3.979c5.287-5.689,3.676-31.068,12.84-31.068c1.058,0,1.812,0.654,2.064,0.654
		C35.911,69.588,36.465,72.357,36.465,75.479z"/>
	<path fill="#ECEDDF" d="M41.503,98.491c0,1.058,0.252,1.661,0.906,1.661c1.863,0,4.633-6.093,5.187-7.2
		c0.302-0.554,0.604-0.856,0.856-0.856c0.202,0,0.353,0.201,0.353,0.504c0,0.252-0.05,0.504-0.201,0.855
		c-0.705,1.763-3.625,10.021-7.855,10.021c-1.964,0-3.625-1.409-3.625-5.187c0-3.021,1.914-12.336,3.928-19.738
		c0.252-0.856,1.058-1.31,2.014-1.31c1.259,0,2.619,0.856,2.619,2.568C45.683,82.479,41.503,94.613,41.503,98.491z M41.604,72.508
		c0-2.165,1.763-4.984,4.532-4.984c2.064,0,2.971,1.208,2.971,2.618c0,2.115-2.064,4.783-5.237,4.783
		C42.309,74.925,41.604,73.817,41.604,72.508z"/>
	<path fill="#ECEDDF" d="M50.97,98.742c0,1.461,0.353,2.468,1.31,2.468c1.561,0,3.474-4.532,5.187-9.567
		c-0.655-1.107-0.957-2.618-0.957-4.229c0-4.784,2.568-10.625,5.187-10.625c0.906,0,2.014,0.554,2.014,2.87
		c0,2.619-1.41,7.453-3.072,11.783c0.353,0.151,0.856,0.252,1.259,0.252c2.77,0,5.288-3.776,6.445-6.646
		c0.202-0.555,0.454-0.756,0.655-0.756c0.202,0,0.302,0.252,0.302,0.604c0,0.151,0,0.353-0.05,0.503
		c-1.058,3.425-4.079,8.309-8.006,8.309c-0.554,0-1.007-0.05-1.46-0.201c-2.316,5.388-5.438,9.97-8.711,9.97
		c-2.77,0-3.727-3.021-3.727-7.149c0-5.69,1.813-13.395,3.021-17.775c0.251-0.856,1.057-1.31,2.014-1.31
		c1.259,0,2.618,0.856,2.618,2.568C54.998,82.479,50.97,94.01,50.97,98.742z"/>
	<path fill="#ECEDDF" d="M80.782,83.083c0,4.834-3.625,11.632-8.963,11.632c-0.604,0-1.259-0.102-1.914-0.303
		c0,2.216,0.202,6.043,3.324,6.043c4.784,0,7.352-5.438,8.661-7.503c0.302-0.504,0.554-0.705,0.806-0.705
		c0.202,0,0.353,0.201,0.353,0.504c0,0.201-0.05,0.453-0.151,0.704c-2.266,5.64-5.791,10.071-11.582,10.071
		c-4.331,0-6.093-3.928-6.093-8.711c0-7.503,4.33-17.222,9.618-17.222c1.107,0,2.266,0.353,2.87,0.856
		C79.825,78.702,80.782,80.615,80.782,83.083z M70.409,93.104c2.971,0,7.251-7.956,7.251-11.884c0-0.806-0.101-1.662-0.856-1.662
		c-2.87,0-6.193,7.452-6.797,13.495C70.157,93.104,70.258,93.104,70.409,93.104z"/>
	<path fill="#ECEDDF" d="M96.596,94.01c-0.402,2.064-0.856,4.179-1.31,6.646c5.539-0.705,9.97-2.266,12.589-7.704
		c0.252-0.504,0.554-0.756,0.806-0.756c0.201,0,0.353,0.202,0.353,0.555c0,0.201-0.051,0.453-0.151,0.704
		c-2.468,5.992-7.251,8.51-13.394,9.668c1.812,0.856,3.272,4.733,3.272,8.359c0,3.373-1.31,6.495-4.935,6.495
		c-3.021,0-4.129-2.819-4.129-7.301c0-4.834,1.259-11.531,2.77-18.682c2.971-14.099,5.689-26.536,12.588-26.536
		c1.209,0,2.115,0.654,2.316,1.46c0.756,0.403,1.964,1.561,1.964,4.33C109.335,83.284,101.43,93.808,96.596,94.01z M95.941,110.677
		c0-1.863-0.403-4.028-1.359-6.193c-1.662,7.805-1.914,9.164-1.914,10.222s0.353,1.712,0.855,1.712
		C94.783,116.417,95.941,114,95.941,110.677z M106.062,67.372c-2.267,0-5.287,8.812-9.165,24.976
		c4.633-4.129,10.172-18.329,10.172-23.062C107.069,68.127,107.019,67.372,106.062,67.372z"/>
	<path fill="#ECEDDF" d="M123.437,82.932c0,4.884-3.575,12.891-10.625,11.884c-0.151,0-0.251,0-0.403,0
		c0,3.272,0.807,5.841,3.324,5.841c4.381,0,7.352-5.086,8.51-7.402c0.504-7.352,4.633-15.962,9.617-15.962
		c1.107,0,2.266,0.353,2.871,0.855c2.114,0.252,3.021,2.316,3.021,4.985c0,5.137-3.524,12.387-8.711,12.387
		c-0.705,0-1.46-0.15-2.216-0.453c0.051,3.072,0.957,5.389,3.323,5.389c5.892,0,8.561-8.208,9.467-8.208
		c0.201,0,0.353,0.201,0.353,0.504c0,0.201-0.051,0.453-0.151,0.704c-2.266,5.64-5.79,10.071-11.581,10.071
		c-3.928,0-5.74-3.273-5.992-7.503c-2.266,4.432-5.539,7.704-10.424,7.704c-4.33,0-6.092-3.928-6.092-8.762
		c0-7.604,4.33-17.372,9.617-17.372c1.107,0,2.266,0.353,2.87,0.856C122.43,78.702,123.437,80.564,123.437,82.932z M120.314,81.673
		c0-1.007-0.151-2.115-1.008-2.115c-2.92,0-6.344,7.956-6.848,14.049C116.588,93.053,120.314,85.701,120.314,81.673z M136.78,81.22
		c0-1.007-0.151-1.964-0.957-1.964c-2.971,0-6.445,8.157-6.898,14.351C132.651,94.11,136.78,85.5,136.78,81.22z"/>
	<path fill="#ECEDDF" d="M153.904,98.34c0,1.359,0.303,2.115,1.008,2.115c1.762,0,3.877-4.733,5.236-7.503
		c0.252-0.554,0.654-0.856,0.906-0.856c0.201,0,0.303,0.201,0.303,0.504c0,0.201-0.051,0.504-0.202,0.855
		c-1.259,3.072-3.272,10.021-8.208,10.021c-2.014,0-3.172-2.165-3.172-5.187c0-0.15,0-0.453,0.051-0.755
		c-1.713,3.676-3.727,5.941-5.438,5.941c-2.72,0-3.878-2.92-3.878-6.848c0-7.654,4.432-19.034,10.223-19.034
		c1.359,0,2.165,1.209,2.618,2.417c1.058-4.733,2.216-9.265,2.971-12.034c0.202-0.756,0.856-1.108,1.611-1.108
		c1.259,0,2.77,1.008,2.77,2.87C160.702,73.012,153.904,92.499,153.904,98.34z M152.897,82.075c-0.05-0.654-0.302-1.561-1.41-1.561
		c-3.374,0-6.445,11.782-6.445,17.07c0,1.51,0.252,2.467,0.856,2.467c2.014,0,3.978-5.035,5.488-11.078
		C151.84,86.809,152.344,84.442,152.897,82.075z"/>
</g>
<g>
	<g>
		<g>
			<g>
				<path fill="#ECEDDF" d="M74.431,37.091c0,0-3.308,7.288,13.584,7.205c16.891-0.083,13.412-7.205,13.412-7.205
					s-6.785,1.905-13.412,1.905C81.387,38.996,74.431,37.091,74.431,37.091z"/>
			</g>
		</g>
	</g>
	<g>
		<g>
			<g>
				<path fill="#ECEDDF" d="M87.428,37.007c-7.09,0-11.321-1.409-11.58-1.498c-1.688-0.579-2.587-2.415-2.008-4.103
					c0.576-1.684,2.406-2.582,4.09-2.012c0.158,0.051,8.217,2.615,20.765-0.098c1.742-0.377,3.463,0.73,3.841,2.475
					c0.376,1.742-0.731,3.462-2.476,3.838C95.229,36.654,90.971,37.007,87.428,37.007z"/>
			</g>
		</g>
	</g>
	<g>
		<g>
			<g>
				<path fill="#ECEDDF" d="M87.299,28.869l-1.791-1.248l-1.91,0.776l-1.665-1.199l-1.901,0.774l-1.664-1.201l-1.899,0.774l-2-1.44
					c-0.333-0.24-0.409-0.707-0.169-1.04c0.24-0.334,0.707-0.41,1.041-0.169l1.329,0.958l1.901-0.774l1.664,1.2l1.899-0.774
					l1.666,1.2l1.896-0.771l1.663,1.158l1.894-1.137l2.153,0.773l1.951-1.201l2.158,0.775l1.955-1.201l2.16,0.775l1.651-1.014
					c0.352-0.216,0.81-0.105,1.024,0.244c0.217,0.352,0.105,0.811-0.244,1.025l-2.262,1.389l-2.16-0.775l-1.955,1.202l-2.156-0.775
					l-1.954,1.201l-2.162-0.777L87.299,28.869z"/>
			</g>
		</g>
	</g>
	<g>
		<g>
			<path fill="#ECEDDF" d="M88.941,12.662c-16.065,0-14.244,10.103-14.244,10.103s5.88,1.987,13.468,1.987
				c7.587,0,14.273-1.987,14.273-1.987S105.008,12.662,88.941,12.662z M84.312,18.661c-0.184,0.132-0.438,0.091-0.572-0.092
				L82.967,17.5c-0.053-0.072-0.077-0.156-0.077-0.239c0-0.128,0.058-0.252,0.169-0.332c0.183-0.133,0.439-0.092,0.57,0.091
				l0.775,1.069C84.537,18.272,84.495,18.528,84.312,18.661z M87.021,19.854l-1.068,0.774c-0.074,0.053-0.157,0.077-0.24,0.077
				c-0.127,0-0.252-0.059-0.332-0.169c-0.132-0.184-0.092-0.439,0.092-0.571l1.068-0.774c0.184-0.133,0.439-0.092,0.572,0.092
				C87.246,19.466,87.204,19.722,87.021,19.854z M87.021,15.725l-1.068,0.774c-0.074,0.052-0.157,0.077-0.24,0.077
				c-0.127,0-0.252-0.059-0.332-0.169c-0.132-0.183-0.092-0.438,0.092-0.571l1.068-0.774c0.184-0.133,0.439-0.091,0.572,0.093
				C87.246,15.336,87.204,15.592,87.021,15.725z M89.436,18.661c-0.182,0.132-0.438,0.091-0.569-0.092L88.091,17.5
				c-0.053-0.072-0.077-0.156-0.077-0.239c0-0.128,0.059-0.252,0.168-0.332c0.185-0.133,0.439-0.092,0.571,0.091l0.774,1.069
				C89.66,18.272,89.619,18.528,89.436,18.661z M91.65,19.854l-1.07,0.774c-0.072,0.053-0.156,0.077-0.239,0.077
				c-0.128,0-0.251-0.059-0.332-0.169c-0.132-0.184-0.091-0.439,0.093-0.571l1.068-0.774c0.184-0.133,0.438-0.092,0.571,0.092
				C91.873,19.466,91.833,19.722,91.65,19.854z M92.285,15.725l-1.068,0.774c-0.072,0.052-0.156,0.077-0.24,0.077
				c-0.127,0-0.252-0.059-0.332-0.169c-0.133-0.183-0.092-0.438,0.092-0.571l1.07-0.774c0.182-0.133,0.438-0.091,0.57,0.093
				C92.51,15.336,92.469,15.592,92.285,15.725z M94.902,19.035c-0.185,0.133-0.439,0.092-0.572-0.092l-0.773-1.068
				c-0.054-0.072-0.078-0.156-0.078-0.24c0-0.127,0.06-0.251,0.17-0.331c0.183-0.133,0.438-0.092,0.57,0.091l0.774,1.069
				C95.126,18.647,95.085,18.903,94.902,19.035z"/>
		</g>
	</g>
</g>
</svg>
