<?xml version="1.0" encoding="utf-8"?>
<!-- Generator: Adobe Illustrator 16.0.4, SVG Export Plug-In . SVG Version: 6.00 Build 0)  -->
<!DOCTYPE svg PUBLIC "-//W3C//DTD SVG 1.1//EN" "http://www.w3.org/Graphics/SVG/1.1/DTD/svg11.dtd">
<svg version="1.1" id="Layer_1" xmlns="http://www.w3.org/2000/svg" xmlns:xlink="http://www.w3.org/1999/xlink" x="0px" y="0px"
	 width="271.333px" height="359.167px" viewBox="0 0 271.333 359.167" enable-background="new 0 0 271.333 359.167"
	 xml:space="preserve">
<circle fill="#ECEDDF" cx="29.68" cy="28.603" r="23.377"/>
<g>
	<line fill="none" x1="30.127" y1="38.196" x2="24.424" y2="32.494"/>
	<path fill="#FF6924" d="M30.127,39.352c-0.295,0-0.591-0.113-0.816-0.339l-5.703-5.703c-0.452-0.45-0.452-1.182,0-1.633
		c0.451-0.452,1.182-0.452,1.633,0l5.703,5.703c0.452,0.451,0.452,1.183,0,1.633C30.718,39.238,30.422,39.352,30.127,39.352z"/>
	<line fill="none" x1="30.156" y1="38.196" x2="35.86" y2="32.494"/>
	<path fill="#FF6924" d="M30.156,39.352c-0.296,0-0.591-0.113-0.817-0.339c-0.45-0.45-0.45-1.183,0-1.633l5.705-5.703
		c0.45-0.452,1.182-0.452,1.633,0c0.452,0.451,0.452,1.183,0,1.633l-5.704,5.703C30.748,39.238,30.452,39.352,30.156,39.352z"/>
</g>
<g>
	<line fill="none" x1="30.157" y1="19.328" x2="35.86" y2="25.031"/>
	<path fill="#FF6924" d="M30.157,18.173c0.296,0,0.591,0.112,0.817,0.338l5.702,5.703c0.452,0.451,0.452,1.183,0,1.634
		c-0.451,0.451-1.183,0.451-1.633,0l-5.703-5.703c-0.451-0.451-0.451-1.183,0-1.634C29.566,18.285,29.861,18.173,30.157,18.173z"/>
	<line fill="none" x1="30.128" y1="19.328" x2="24.424" y2="25.031"/>
	<path fill="#FF6924" d="M30.128,18.173c0.296,0,0.592,0.112,0.817,0.338c0.45,0.451,0.45,1.184,0,1.634l-5.705,5.703
		c-0.451,0.451-1.182,0.451-1.633,0c-0.452-0.451-0.452-1.184,0-1.634l5.704-5.703C29.537,18.285,29.832,18.173,30.128,18.173z"/>
</g>
<g>
	
		<line fill="none" stroke="#ECEDDF" stroke-width="4" stroke-linecap="round" stroke-linejoin="round" stroke-miterlimit="10" x1="22.076" y1="90.713" x2="37.284" y2="75.506"/>
	
		<line fill="none" stroke="#ECEDDF" stroke-width="4" stroke-linecap="round" stroke-linejoin="round" stroke-miterlimit="10" x1="22.077" y1="90.791" x2="37.284" y2="106"/>
</g>
<g>
	
		<line fill="none" stroke="#ECEDDF" stroke-width="4" stroke-linecap="round" stroke-linejoin="round" stroke-miterlimit="10" x1="34.88" y1="142.397" x2="19.671" y2="157.605"/>
	
		<line fill="none" stroke="#ECEDDF" stroke-width="4" stroke-linecap="round" stroke-linejoin="round" stroke-miterlimit="10" x1="34.879" y1="142.319" x2="19.671" y2="127.111"/>
</g>
<path fill="#ECEDDF" d="M92,26.419c-0.096-0.258,2.584-2.651,1.021-4.59c-0.366-0.454-1.606,2.17-3.369,3.359
	c-0.971,0.655-3.232,2.051-3.232,2.82V33c0,0.928,3.585,1.911,6.311,1.911c0.998,0,2.447-6.258,2.447-7.253
	C95.178,26.661,92.098,26.68,92,26.419z M85.689,26.489c-0.479,0-2.189,0.291-2.189,2.278v3.536c0,1.986,1.711,2.207,2.189,2.207
	c0.48,0-0.729-0.42-0.729-1.65v-4.648C84.961,26.921,86.17,26.489,85.689,26.489z"/>
<path fill="#ECEDDF" d="M128.215,24.568c-0.582,0.259-1.207,0.433-1.863,0.512c0.67-0.401,1.184-1.038,1.427-1.795
	c-0.628,0.371-1.321,0.642-2.062,0.787c-0.59-0.632-1.434-1.024-2.367-1.024c-1.792,0-3.245,1.452-3.245,3.244
	c0,0.254,0.028,0.502,0.084,0.739c-2.696-0.136-5.088-1.427-6.687-3.39c-0.279,0.479-0.44,1.036-0.44,1.631
	c0,1.125,0.573,2.119,1.443,2.701c-0.531-0.018-1.032-0.163-1.47-0.406v0.041c0,1.572,1.117,2.883,2.603,3.182
	c-0.272,0.073-0.559,0.113-0.854,0.113c-0.209,0-0.412-0.02-0.61-0.058c0.413,1.288,1.61,2.229,3.03,2.253
	c-1.11,0.871-2.509,1.389-4.029,1.389c-0.262,0-0.52-0.016-0.773-0.045c1.436,0.921,3.141,1.458,4.974,1.458
	c5.968,0,9.231-4.944,9.231-9.232l-0.009-0.42C127.23,25.791,127.78,25.22,128.215,24.568z"/>
<path fill="#ECEDDF" d="M161.415,31.588l-2.81-1.891h-1.731l3,2.303h-3.127c-0.09,0-0.172,0.045-0.211,0.117l-0.723,1.972h-5.279
	l-0.722-1.972c-0.04-0.072-0.122-0.117-0.211-0.117h-3.128l3.001-2.303h-1.731l-2.811,1.891c-0.419,0.25-0.668,0.825-0.557,1.279
	l0.496,2.711c0.11,0.454,0.607,0.825,1.104,0.825h14.395c0.496,0,0.992-0.371,1.104-0.825l0.495-2.711
	C162.084,32.413,161.834,31.838,161.415,31.588L161.415,31.588z M157.763,25.922h-2.913v-4.519h-3.352v4.519h-2.912l4.588,4.305
	L157.763,25.922z"/>
<path fill="#ECEDDF" d="M77.937,88.892h1.914c1.541,0,2.607,1.058,2.607,2.438v0.015c0,1.38-1.066,2.452-2.607,2.452h-1.914V88.892z
	 M79.017,89.865v2.957h0.834c0.883,0,1.479-0.595,1.479-1.464v-0.014c0-0.869-0.596-1.479-1.479-1.479H79.017z M88.323,88.892h2.243
	c0.624,0,1.106,0.176,1.429,0.497c0.273,0.273,0.421,0.659,0.421,1.122v0.014c0,0.791-0.427,1.289-1.05,1.521l1.197,1.752h-1.262
	l-1.051-1.569h-0.848v1.569h-1.08L88.323,88.892L88.323,88.892L88.323,88.892z M90.496,91.273c0.525,0,0.827-0.28,0.827-0.693
	v-0.014c0-0.463-0.322-0.701-0.848-0.701h-1.072v1.408H90.496z M98.297,88.892h3.7v0.96h-2.628v0.995h2.312v0.96h-2.312v1.03h2.663
	v0.96h-3.735V88.892z M109.581,88.856h0.994l2.103,4.94h-1.128l-0.448-1.101h-2.075l-0.447,1.101h-1.101L109.581,88.856z
	 M110.716,91.743l-0.652-1.591l-0.65,1.591H110.716z M118.342,88.892h1.163l1.289,2.074l1.289-2.074h1.164v4.905h-1.072v-3.202
	l-1.381,2.095h-0.027l-1.367-2.074v3.182h-1.058V88.892L118.342,88.892z M130.474,89.887h-1.493v-0.995h4.064v0.995h-1.493v3.91
	h-1.078V89.887z M138.778,88.892h3.7v0.96h-2.628v0.995h2.312v0.96h-2.312v1.03h2.662v0.96h-3.734V88.892z M150.062,88.856h0.995
	l2.104,4.94h-1.13l-0.446-1.101h-2.073l-0.449,1.101h-1.101L150.062,88.856L150.062,88.856z M151.196,91.743l-0.65-1.591
	l-0.65,1.591H151.196z M158.823,88.892h1.163l1.289,2.074l1.289-2.074h1.163v4.905h-1.072v-3.202l-1.38,2.095h-0.028l-1.365-2.074
	v3.182h-1.059V88.892L158.823,88.892z"/>
<path fill="#ECEDDF" d="M171.993,102.398H68.622V79.184h103.371V102.398L171.993,102.398z M70.024,100.996H170.59V80.585H70.024
	V100.996z"/>
<path fill="#1E2428" d="M249.743,76.38c-1.139,0.592-2.008,1.273-2.966,1.491c-3.903,0.882-7.838,1.653-11.771,2.415
	c-2.562,0.499-4.219-0.596-4.777-3.193c-0.792-3.679-1.508-7.384-2.264-11.076c-2.418-11.953-4.844-23.896-7.26-35.845
	c-0.693-3.438,0.305-4.983,3.699-5.681c3.578-0.731,7.148-1.466,10.736-2.166c2.896-0.568,4.504,0.51,5.096,3.419
	c3.197,15.696,6.389,31.398,9.521,47.105C249.982,73.931,249.763,75.104,249.743,76.38L249.743,76.38z"/>
<path fill="#1E2428" d="M247.379,79.946c1.151,3.705,1.151,3.705-2.062,4.927c0.479,4.473,0.963,8.98,1.461,13.474
	c0.117,1.075,0.103,1.991-1.219,2.339c-1.392,0.366-2.228,0.034-2.646-1.444c-1.084-3.792-2.244-7.562-3.39-11.333
	c-0.166-0.56-0.356-1.115-0.528-1.65c-3.55-0.226-3.556-0.236-3.824-3.881C239.208,81.571,243.22,80.774,247.379,79.946z"/>
<path fill="#C63C2E" d="M228.846,70.469c-2.424-11.957-4.848-23.896-7.266-35.846c-0.697-3.438,18.944-7.338,19.532-4.429
	c2.457,12.074,5.101,24.928,7.528,37.007C249.37,70.829,229.599,74.159,228.846,70.469z"/>
<text transform="matrix(0.2291 0.9734 -0.9734 0.2291 227.2231 40.125)" fill="#ECEDDF" font-family="'AlternateGothicCom-No2'" font-size="15.9904">R</text>
<text transform="matrix(0.2291 0.9734 -0.9734 0.2291 228.647 46.1797)" fill="#ECEDDF" font-family="'AlternateGothicCom-No2'" font-size="15.9904">A</text>
<text transform="matrix(0.2291 0.9734 -0.9734 0.2291 230.0474 52.126)" fill="#ECEDDF" font-family="'AlternateGothicCom-No2'" font-size="15.9904">T</text>
<text transform="matrix(0.2291 0.9734 -0.9734 0.2291 231.2485 57.2314)" fill="#ECEDDF" font-family="'AlternateGothicCom-No2'" font-size="15.9904">E</text>
<path fill="#284877" d="M34.078,187.271h-3.88c-0.465,0-0.98,0.608-0.98,1.414v2.812h4.86v3.996h-4.86v12.016h-4.582v-12.016h-4.164
	v-3.996h4.164v-2.356c0-3.377,2.341-6.125,5.562-6.125h3.88V187.271z"/>
<path fill="#2E353B" d="M91.064,136.181c0.186,0,0.367,0.07,0.51,0.211c0.28,0.281,0.28,0.738,0,1.02l-5.481,5.481
	c-0.28,0.282-0.737,0.282-1.019,0c-0.282-0.281-0.282-0.737,0-1.02l5.482-5.481C90.695,136.251,90.881,136.181,91.064,136.181z"/>
<path fill="#2E353B" d="M85.582,141.69c0.186,0,0.369,0.07,0.511,0.211l5.481,5.48c0.28,0.282,0.28,0.738,0,1.02
	c-0.283,0.282-0.738,0.282-1.018,0l-5.482-5.48c-0.282-0.282-0.282-0.738,0-1.02C85.213,141.761,85.398,141.69,85.582,141.69z"/>
<path fill="#2E353B" d="M114.602,148.01c-0.184,0-0.369-0.069-0.509-0.211c-0.282-0.281-0.282-0.737,0-1.02l5.481-5.48
	c0.279-0.282,0.738-0.282,1.018,0c0.283,0.281,0.283,0.737,0,1.02l-5.48,5.48C114.971,147.94,114.785,148.01,114.602,148.01z"/>
<path fill="#2E353B" d="M120.084,142.501c-0.186,0-0.37-0.071-0.51-0.211l-5.481-5.481c-0.282-0.281-0.282-0.738,0-1.02
	c0.282-0.282,0.737-0.281,1.019,0l5.48,5.481c0.281,0.282,0.281,0.737,0,1.02C120.451,142.43,120.268,142.501,120.084,142.501z"/>
<g>
	<g>
		<path fill="#ECEDDF" d="M83.394,193.709c-0.303,0-0.604-0.115-0.836-0.346l-5.444-5.443c-0.461-0.463-0.461-1.211,0-1.672
			c0.463-0.463,1.211-0.463,1.674,0l5.441,5.443c0.463,0.461,0.463,1.209,0,1.672C84,193.594,83.697,193.709,83.394,193.709z"/>
	</g>
	<g>
		<path fill="#ECEDDF" d="M72.479,193.709c-0.303,0-0.605-0.115-0.836-0.346c-0.463-0.463-0.463-1.211,0-1.672l5.443-5.443
			c0.461-0.463,1.209-0.463,1.672,0c0.461,0.461,0.461,1.209,0,1.672l-5.444,5.443C73.085,193.594,72.782,193.709,72.479,193.709z"
			/>
	</g>
</g>
<g>
	<g>
		<path fill="#ECEDDF" d="M72.479,196.816c0.303,0,0.604,0.115,0.836,0.348l5.444,5.443c0.461,0.461,0.461,1.209,0,1.672
			c-0.463,0.461-1.211,0.461-1.674,0l-5.441-5.443c-0.463-0.463-0.463-1.211,0-1.672C71.874,196.932,72.177,196.816,72.479,196.816z
			"/>
	</g>
	<g>
		<path fill="#ECEDDF" d="M83.394,196.816c0.303,0,0.605,0.115,0.836,0.348c0.463,0.461,0.463,1.209,0,1.672l-5.443,5.443
			c-0.461,0.461-1.209,0.461-1.672,0c-0.461-0.463-0.461-1.211,0-1.672l5.444-5.443C82.789,196.932,83.091,196.816,83.394,196.816z"
			/>
	</g>
</g>
<path fill="#ECEDDF" d="M126.114,201.473l-2.775-2.775c0.816-1.284,1.297-2.805,1.297-4.439c-0.002-4.583-3.715-8.298-8.299-8.298
	s-8.297,3.715-8.297,8.298c0,4.584,3.713,8.299,8.297,8.299c1.635,0,3.155-0.479,4.44-1.296l2.775,2.776
	c0.709,0.707,1.855,0.707,2.562,0C126.823,203.327,126.823,202.18,126.114,201.473z M112.428,198.165
	c-1.001-1.004-1.617-2.377-1.618-3.907c0.001-1.529,0.617-2.904,1.618-3.908c1.004-1.002,2.379-1.617,3.908-1.617
	c1.532,0,2.905,0.615,3.909,1.617c1.002,1.004,1.619,2.379,1.619,3.908c0,1.53-0.617,2.903-1.619,3.907
	c-1.004,1.002-2.377,1.618-3.909,1.619C114.807,199.783,113.434,199.167,112.428,198.165z"/>
<g>
	<g id="XMLID_12_">
		<g>
			<path fill="#FBB03B" d="M56.965,252.551c50.842,0,42.717,31.973,42.717,31.973s-21.16,6.289-45.174,6.289
				c-24.013,0-42.623-6.289-42.623-6.289S6.117,252.551,56.965,252.551z M75.827,272.725c0.578-0.42,0.709-1.231,0.287-1.811
				l-2.451-3.385c-0.42-0.581-1.229-0.709-1.809-0.289c-0.346,0.252-0.535,0.646-0.535,1.05c0,0.263,0.08,0.528,0.248,0.761
				l2.449,3.381C74.438,273.012,75.245,273.145,75.827,272.725z M67.543,262.241c0.58-0.421,0.711-1.229,0.293-1.804
				c-0.42-0.582-1.229-0.715-1.807-0.293l-3.387,2.45c-0.578,0.419-0.709,1.229-0.291,1.808c0.256,0.354,0.65,0.537,1.051,0.537
				c0.268,0,0.529-0.08,0.762-0.248L67.543,262.241z M65.534,275.314c0.582-0.424,0.709-1.231,0.289-1.81
				c-0.42-0.58-1.229-0.713-1.809-0.293l-3.383,2.453c-0.578,0.418-0.709,1.229-0.291,1.806c0.254,0.354,0.65,0.538,1.051,0.538
				c0.264,0,0.529-0.082,0.758-0.248L65.534,275.314z M58.528,271.535c0.582-0.42,0.711-1.229,0.291-1.811l-2.452-3.382
				c-0.418-0.583-1.227-0.711-1.809-0.288c-0.348,0.252-0.535,0.646-0.535,1.051c0,0.263,0.078,0.524,0.246,0.756l2.448,3.382
				C57.141,271.824,57.948,271.956,58.528,271.535z M50.885,262.241c0.582-0.421,0.71-1.229,0.293-1.804
				c-0.422-0.582-1.23-0.715-1.809-0.293l-3.385,2.45c-0.578,0.419-0.709,1.229-0.291,1.808c0.254,0.354,0.652,0.537,1.053,0.537
				c0.261,0,0.523-0.08,0.756-0.248L50.885,262.241z M50.885,275.314c0.582-0.424,0.71-1.231,0.293-1.81
				c-0.422-0.58-1.23-0.713-1.809-0.293l-3.385,2.453c-0.578,0.418-0.709,1.229-0.291,1.806c0.254,0.354,0.652,0.538,1.053,0.538
				c0.261,0,0.523-0.082,0.756-0.248L50.885,275.314z M42.316,271.535c0.576-0.42,0.709-1.229,0.287-1.811l-2.455-3.382
				c-0.416-0.583-1.227-0.711-1.804-0.288c-0.352,0.252-0.538,0.646-0.538,1.051c0,0.263,0.082,0.524,0.246,0.756l2.451,3.382
				C40.926,271.824,41.734,271.956,42.316,271.535z"/>
			<path fill="#F4A338" d="M76.114,270.914c0.422,0.578,0.291,1.391-0.287,1.811c-0.582,0.42-1.389,0.287-1.811-0.293l-2.449-3.381
				c-0.168-0.232-0.248-0.498-0.248-0.761c0-0.401,0.189-0.798,0.535-1.05c0.58-0.42,1.389-0.292,1.809,0.289L76.114,270.914z"/>
			<path fill="#F4A338" d="M67.836,260.438c0.418,0.573,0.287,1.383-0.293,1.804l-3.379,2.45c-0.232,0.168-0.494,0.248-0.762,0.248
				c-0.4,0-0.795-0.185-1.051-0.537c-0.418-0.577-0.287-1.389,0.291-1.808l3.387-2.45C66.608,259.725,67.417,259.855,67.836,260.438
				z"/>
			<path fill="#F4A338" d="M65.823,273.506c0.42,0.577,0.293,1.385-0.289,1.809l-3.385,2.447c-0.229,0.166-0.494,0.248-0.758,0.248
				c-0.4,0-0.797-0.186-1.051-0.537c-0.418-0.578-0.287-1.389,0.291-1.807l3.383-2.453
				C64.594,272.793,65.403,272.926,65.823,273.506z"/>
			<path fill="#F4A338" d="M58.819,269.727c0.42,0.58,0.291,1.39-0.291,1.81c-0.58,0.421-1.387,0.289-1.811-0.292l-2.448-3.382
				c-0.168-0.23-0.246-0.493-0.246-0.757c0-0.402,0.188-0.799,0.535-1.051c0.582-0.422,1.391-0.294,1.809,0.289L58.819,269.727z"/>
			<path fill="#F4A338" d="M51.178,260.438c0.417,0.573,0.289,1.383-0.293,1.804l-3.383,2.45c-0.232,0.168-0.495,0.248-0.756,0.248
				c-0.4,0-0.799-0.185-1.053-0.537c-0.418-0.577-0.287-1.389,0.291-1.808l3.385-2.45C49.947,259.725,50.756,259.855,51.178,260.438
				z"/>
			<path fill="#F4A338" d="M51.178,273.506c0.417,0.577,0.289,1.385-0.293,1.809l-3.383,2.447c-0.232,0.166-0.495,0.248-0.756,0.248
				c-0.4,0-0.799-0.186-1.053-0.537c-0.418-0.578-0.287-1.389,0.291-1.807l3.385-2.453
				C49.947,272.793,50.756,272.926,51.178,273.506z"/>
			<path fill="#F4A338" d="M42.604,269.727c0.422,0.58,0.289,1.39-0.287,1.81c-0.582,0.421-1.391,0.289-1.812-0.292l-2.451-3.382
				c-0.164-0.23-0.246-0.493-0.246-0.757c0-0.402,0.187-0.799,0.538-1.051c0.577-0.422,1.388-0.294,1.804,0.289L42.604,269.727z"/>
		</g>
	</g>
</g>
<g>
	<g>
		<g>
			<path fill="#F2A138" d="M129.02,266.95c0,0-10.628,22.018,45.367,21.739c55.994-0.271,45.002-21.739,45.002-21.739
				s-23.031,4.17-45.002,4.17S129.02,266.95,129.02,266.95z"/>
		</g>
	</g>
</g>
<g>
	<path fill="#FBB03B" d="M219.388,266.95c0,2.577-20.229,4.666-45.183,4.666s-45.187-2.089-45.187-4.666
		c0-2.576,20.233-4.667,45.187-4.667S219.388,264.374,219.388,266.95z"/>
</g>
<g opacity="0.3">
	<image overflow="visible" width="174" height="81" xlink:href="9F71325CFEB0D029.png"  transform="matrix(1 0 0 1 87.1665 276.5)">
	</image>
</g>
</svg>
