<?xml version="1.0" encoding="utf-8"?>
<!-- Generator: Adobe Illustrator 16.0.4, SVG Export Plug-In . SVG Version: 6.00 Build 0)  -->
<!DOCTYPE svg PUBLIC "-//W3C//DTD SVG 1.1//EN" "http://www.w3.org/Graphics/SVG/1.1/DTD/svg11.dtd">
<svg version="1.1" id="Layer_1" xmlns="http://www.w3.org/2000/svg" xmlns:xlink="http://www.w3.org/1999/xlink" x="0px" y="0px"
	 width="175px" height="127px" viewBox="0 0 175 127" enable-background="new 0 0 175 127" xml:space="preserve">
<g>
	<path fill="#ECEDDF" d="M69.468,32.935l2.516,0.624l1.894-2.973l-3.599-0.893c-0.9-0.224-1.81,0.322-2.032,1.218
		C68.021,31.806,68.569,32.712,69.468,32.935z M102.294,33.415l-8.233,7.413l-9.682-7.492c-0.185-0.143-0.397-0.245-0.624-0.302
		l-1.289-0.32l-1.895,2.974l2.029,0.503l10.512,8.135c0.305,0.234,0.667,0.351,1.029,0.351c0.404,0,0.807-0.145,1.125-0.431
		l9.277-8.352c0.687-0.618,0.74-1.675,0.119-2.359C104.042,32.851,102.981,32.797,102.294,33.415z M84.218,25.276l9.017,5.772
		c0.762,0.487,1.772,0.286,2.287-0.454l9.277-13.362c0.527-0.759,0.336-1.8-0.426-2.323c-0.763-0.525-1.807-0.335-2.334,0.424
		l-8.354,12.033l-9.072-5.809c-0.376-0.24-0.832-0.32-1.269-0.226c-0.436,0.097-0.815,0.36-1.056,0.736L68.457,43.781
		c-0.496,0.779-0.265,1.811,0.518,2.305c0.278,0.177,0.589,0.261,0.897,0.261c0.555,0,1.098-0.274,1.417-0.776L84.218,25.276z"/>
</g>
<g>
	<path fill="#ECEDDF" d="M38.148,97.218c0,2.468-1.259,4.532-2.518,5.287c-0.705,1.611-3.727,3.173-7.352,3.173
		c-2.618,0-4.985-0.806-9.114-4.633c-0.353-0.353-0.554-0.705-0.554-1.158c0-1.107,1.41-2.266,3.071-2.266
		c3.424,0,3.928,4.984,9.719,4.984c3.122,0,3.928-1.46,3.928-2.618c0-4.079-9.819-7.251-9.819-15.358
		c0-6.243,5.892-15.206,10.423-15.206c1.41,0,3.072,0.855,3.173,1.511c2.014,0.956,2.618,2.971,2.618,4.481
		c0,1.107-0.302,2.971-1.41,9.315c-0.302,1.712-1.107,2.518-2.567,2.518c-1.31,0-2.468-0.604-2.468-2.417
		c0-3.223,3.575-7.855,3.575-11.078c0-0.755-0.201-1.46-0.604-2.115c-3.575-0.15-7.855,7.503-7.855,11.783
		C30.394,89.212,38.148,91.125,38.148,97.218z"/>
	<path fill="#ECEDDF" d="M45.049,79.645c0.604-2.266,1.209-4.432,1.863-6.496c0.252-0.855,1.107-1.259,2.064-1.259
		c1.259,0,2.618,0.806,2.618,2.518c0,1.259-0.755,3.475-1.309,5.489c2.467,0.201,4.783,0.353,4.783,1.057
		c0,0.705-1.863,1.209-5.539,1.611c-1.913,6.647-4.279,14.452-4.279,18.077c0,1.31,0.302,2.115,1.057,2.115
		c1.964,0,4.532-5.539,5.942-7.805c0.353-0.604,0.604-0.906,0.855-0.906c0.202,0,0.353,0.201,0.353,0.554
		c0,0.201-0.05,0.504-0.201,0.855c-0.705,1.763-4.18,10.021-8.409,10.021c-1.964,0-3.625-1.409-3.625-5.187
		c0-3.323,1.259-10.423,3.021-17.623l-1.611-0.151c-0.604-0.051-0.855-0.705-0.855-1.359c0-0.756,0.353-1.562,0.906-1.562
		C43.438,79.594,44.243,79.594,45.049,79.645z"/>
	<path fill="#ECEDDF" d="M65.444,101.246c0,0.756,0.251,1.259,0.704,1.259c1.058,0,2.619-2.669,4.985-7.553
		c0.252-0.554,0.654-0.856,0.906-0.856c0.151,0,0.303,0.151,0.303,0.504c0,0.201-0.051,0.504-0.202,0.855
		c-0.704,1.763-3.877,10.021-7.754,10.021c-1.562,0-3.424-0.855-3.424-4.632c0-0.252,0-0.604,0.05-0.957
		c-1.661,3.424-3.575,5.589-5.187,5.589c-2.719,0-3.877-2.92-3.877-6.848c0-7.654,4.431-19.034,10.222-19.034
		c2.015,0,3.273,2.165,3.374,3.727h0.302c1.259,0,2.77,1.058,2.77,2.92c0,0.252,0,0.504-0.051,0.756
		C67.206,93.391,65.444,98.829,65.444,101.246z M62.675,91.679l1.611-7.251c0-0.855-0.151-1.913-1.36-1.913
		c-3.373,0-6.445,11.782-6.445,17.07c0,1.51,0.252,2.467,0.856,2.467C59.2,102.052,61.416,97.269,62.675,91.679z"/>
	<path fill="#ECEDDF" d="M74.409,79.645c0.604-2.266,1.209-4.432,1.863-6.496c0.252-0.855,1.107-1.259,2.064-1.259
		c1.259,0,2.618,0.806,2.618,2.518c0,1.259-0.755,3.475-1.309,5.489c2.467,0.201,4.783,0.353,4.783,1.057
		c0,0.705-1.863,1.209-5.539,1.611c-1.913,6.647-4.279,14.452-4.279,18.077c0,1.31,0.302,2.115,1.057,2.115
		c1.964,0,4.532-5.539,5.942-7.805c0.353-0.604,0.604-0.906,0.855-0.906c0.202,0,0.353,0.201,0.353,0.554
		c0,0.201-0.05,0.504-0.201,0.855c-0.705,1.763-4.18,10.021-8.409,10.021c-1.964,0-3.625-1.409-3.625-5.187
		c0-3.323,1.259-10.423,3.021-17.623l-1.611-0.151c-0.604-0.051-0.855-0.705-0.855-1.359c0-0.756,0.353-1.562,0.906-1.562
		C72.798,79.594,73.604,79.594,74.409,79.645z"/>
	<path fill="#ECEDDF" d="M85.287,100.491c0,1.058,0.252,1.661,0.906,1.661c1.863,0,4.633-6.093,5.187-7.2
		c0.302-0.554,0.604-0.856,0.855-0.856c0.202,0,0.353,0.201,0.353,0.504c0,0.252-0.05,0.504-0.201,0.855
		c-0.705,1.763-3.625,10.021-7.855,10.021c-1.964,0-3.625-1.409-3.625-5.187c0-3.021,1.913-12.336,3.928-19.738
		c0.252-0.856,1.058-1.31,2.014-1.31c1.259,0,2.618,0.856,2.618,2.568C89.466,84.479,85.287,96.613,85.287,100.491z M85.388,74.508
		c0-2.165,1.763-4.984,4.532-4.984c2.064,0,2.971,1.208,2.971,2.618c0,2.115-2.064,4.783-5.237,4.783
		C86.093,76.925,85.388,75.817,85.388,74.508z"/>
	<path fill="#ECEDDF" d="M87.252,100.239c0-1.562,1.007-3.626,2.819-3.223c2.518-3.827,5.237-9.517,6.697-12.639
		c-0.504-1.36-0.756-2.72-0.756-4.028c0-3.374,1.562-6.093,3.475-6.093c1.209,0,1.863,0.855,1.863,2.266
		c0,1.863-1.058,4.783-3.172,8.157c1.107,3.626,3.877,8.61,3.877,12.639c0,1.763-0.353,3.475-1.209,4.935
		c1.964-1.511,2.669-3.373,4.885-7.2c0.504-3.524,1.41-8.006,2.568-12.488c-1.461,0-2.921-0.05-4.331-0.201
		c-0.604-0.05-0.855-0.705-0.855-1.359c0-0.755,0.353-1.561,0.906-1.561c1.359,0,3.172,0.05,5.035,0.15
		c0.554-2.215,1.209-4.431,1.863-6.445c0.252-0.855,1.107-1.259,2.064-1.259c1.259,0,2.618,0.806,2.618,2.518
		c0,1.259-0.755,3.525-1.309,5.539c2.971,0.201,4.783,0.303,4.783,1.007c0,0.655-1.158,1.108-5.488,1.461
		c-1.914,6.697-4.331,14.552-4.331,18.228c0,1.31,0.303,2.115,1.058,2.115c1.964,0,4.532-5.539,5.942-7.805
		c0.353-0.604,0.604-0.906,0.855-0.906c0.201,0,0.353,0.201,0.353,0.554c0,0.201-0.05,0.504-0.201,0.855
		c-0.705,1.763-4.18,10.021-8.409,10.021c-1.964,0-3.626-1.409-3.626-5.187c0-0.453,0-0.956,0.051-1.51
		c-2.316,4.33-5.136,6.747-10.423,6.747C89.216,105.526,87.252,102.656,87.252,100.239z M91.33,97.722
		c1.31,1.46-0.705,6.646,2.266,6.646c1.662,0,3.677-1.712,3.677-8.057c0-1.712-0.202-5.136-0.353-8.208
		C95.309,91.83,92.841,95.506,91.33,97.722z"/>
	<path fill="#ECEDDF" d="M119.935,100.491c0,1.058,0.252,1.661,0.906,1.661c1.863,0,4.633-6.093,5.187-7.2
		c0.302-0.554,0.604-0.856,0.855-0.856c0.202,0,0.353,0.201,0.353,0.504c0,0.252-0.05,0.504-0.201,0.855
		c-0.705,1.763-3.625,10.021-7.855,10.021c-1.964,0-3.625-1.409-3.625-5.187c0-3.021,1.913-12.336,3.928-19.738
		c0.252-0.856,1.058-1.31,2.014-1.31c1.259,0,2.618,0.856,2.618,2.568C124.113,84.479,119.935,96.613,119.935,100.491z
		 M120.035,74.508c0-2.165,1.763-4.984,4.532-4.984c2.064,0,2.971,1.208,2.971,2.618c0,2.115-2.064,4.783-5.237,4.783
		C120.74,76.925,120.035,75.817,120.035,74.508z"/>
	<path fill="#ECEDDF" d="M137.458,81.608c-2.82,0-6.597,9.517-6.597,15.761c0,3.373,1.007,5.438,3.676,5.438
		c3.979,0,7.604-4.985,9.014-7.855c0.252-0.554,0.554-0.756,0.806-0.756c0.201,0,0.353,0.151,0.353,0.504
		c0,0.201-0.051,0.453-0.151,0.755c-1.762,4.331-5.841,10.223-11.632,10.223c-5.035,0-6.999-4.129-6.999-9.266
		c0-7.503,4.33-16.818,9.719-16.818c1.107,0,2.114,0.453,2.719,0.957c2.266,0.402,3.122,3.021,3.122,5.74
		c0,3.626-1.007,6.747-3.727,6.747c-1.158,0-2.266-0.654-2.266-1.561c0-2.015,3.172-3.727,3.172-7.905
		C138.666,82.515,137.962,81.608,137.458,81.608z"/>
	<path fill="#ECEDDF" d="M148.94,84.378c-0.503-1.36-0.755-2.72-0.755-4.028c0-3.374,1.561-6.093,3.475-6.093
		c1.208,0,1.863,0.855,1.863,2.266c0,1.863-1.058,4.783-3.173,8.157c1.108,3.626,3.877,8.61,3.877,12.639
		c0,4.079-2.064,8.208-7.2,8.208c-5.64,0-7.604-2.87-7.604-5.287c0-1.763,1.007-3.524,2.82-3.223
		C144.762,93.189,147.48,87.5,148.94,84.378z M143.503,97.722c0.554,0.604,0.503,1.561,0.503,4.078c0,1.662,0.554,2.568,1.763,2.568
		c1.662,0,3.676-1.712,3.676-8.057c0-1.712-0.201-5.136-0.353-8.208C147.48,91.83,145.014,95.506,143.503,97.722z"/>
</g>
</svg>
