<?xml version="1.0" encoding="utf-8"?>
<!-- Generator: Adobe Illustrator 16.0.4, SVG Export Plug-In . SVG Version: 6.00 Build 0)  -->
<!DOCTYPE svg PUBLIC "-//W3C//DTD SVG 1.1//EN" "http://www.w3.org/Graphics/SVG/1.1/DTD/svg11.dtd">
<svg version="1.1" id="Layer_1" xmlns="http://www.w3.org/2000/svg" xmlns:xlink="http://www.w3.org/1999/xlink" x="0px" y="0px"
	 width="175px" height="127px" viewBox="0 0 175 127" enable-background="new 0 0 175 127" xml:space="preserve">
<path fill="#ECEDDF" d="M69.468,32.935l2.516,0.624l1.894-2.973l-3.599-0.893c-0.9-0.224-1.81,0.322-2.032,1.218
	C68.021,31.806,68.569,32.712,69.468,32.935z M102.294,33.415l-8.233,7.413l-9.682-7.492c-0.185-0.143-0.397-0.245-0.624-0.302
	l-1.289-0.32l-1.895,2.974l2.029,0.503l10.512,8.135c0.305,0.234,0.667,0.351,1.029,0.351c0.404,0,0.807-0.145,1.125-0.431
	l9.277-8.352c0.687-0.618,0.74-1.675,0.119-2.359C104.042,32.851,102.981,32.797,102.294,33.415z M84.218,25.276l9.017,5.772
	c0.762,0.487,1.772,0.286,2.287-0.454l9.277-13.362c0.527-0.759,0.336-1.8-0.426-2.323c-0.763-0.525-1.807-0.335-2.334,0.424
	l-8.354,12.033l-9.072-5.809c-0.376-0.24-0.832-0.32-1.269-0.226c-0.436,0.097-0.815,0.36-1.056,0.736L68.457,43.781
	c-0.496,0.779-0.265,1.811,0.518,2.305c0.278,0.177,0.589,0.261,0.897,0.261c0.555,0,1.098-0.274,1.417-0.776L84.218,25.276z"/>
<text transform="matrix(1 0 0 1 21.7832 105.1738)" fill="#ECEDDF" font-family="'Mission-Script'" font-size="50.3612">Statistics</text>
</svg>
