<?xml version="1.0" standalone="no"?>
<!DOCTYPE svg PUBLIC "-//W3C//DTD SVG 1.1//EN" "http://www.w3.org/Graphics/SVG/1.1/DTD/svg11.dtd" >
<svg xmlns="http://www.w3.org/2000/svg">
<metadata></metadata>
<defs>
<font id="travelermedium" horiz-adv-x="1103" >
<font-face units-per-em="2048" ascent="1536" descent="-512" />
<missing-glyph horiz-adv-x="405" />
<glyph horiz-adv-x="2048" />
<glyph horiz-adv-x="2048" />
<glyph unicode="&#xd;" horiz-adv-x="2048" />
<glyph unicode=" "  horiz-adv-x="405" />
<glyph unicode="&#x09;" horiz-adv-x="405" />
<glyph unicode="&#xa0;" horiz-adv-x="405" />
<glyph unicode="!" horiz-adv-x="630" d="M154 143q0 72 48.5 118t114.5 46q62 0 110 -45.5t48 -118.5q0 -74 -46.5 -118.5t-111.5 -44.5q-66 0 -114.5 45t-48.5 118zM176 1440h273l-60 -926h-153z" />
<glyph unicode="&#x22;" horiz-adv-x="976" d="M133 1475h248l-45 -611h-164zM594 1475h248l-45 -611h-166z" />
<glyph unicode="#" horiz-adv-x="1210" d="M78 256l6 154h213l45 268h-211l10 149h226l55 324l158 -8l-54 -316h242l55 324l158 -8l-53 -316h205l-9 -149h-223l-45 -268h219l-6 -154h-240l-51 -303l-155 8l49 295h-244l-51 -303l-156 8l49 295h-192zM455 410h243l45 268h-243z" />
<glyph unicode="$" horiz-adv-x="1222" d="M215 872q0 123 90 200.5t244 98.5l-2 304h153l-4 -299q73 -6 176 -33l121 -25l8 -12l-36 -270l-140 -19l-6 8l-6 166h-2q-50 25 -176 25q-219 0 -219 -129q0 -31 11 -54t27 -37t45.5 -26.5t53.5 -19t66 -17.5t69 -20q59 -20 101.5 -38.5t90 -48t77.5 -62t49.5 -80.5 t19.5 -105q0 -88 -47.5 -157.5t-120.5 -108.5t-162 -52l4 -278h-153l2 274q-93 8 -195 37l-121 33l-6 6l6 270l138 15l8 -8l12 -138l4 -2l6 -2q6 -2 17 -5.5t25 -8t33.5 -8.5t40 -7.5t45.5 -5.5t50 -2q101 0 156 30.5t55 105.5q0 36 -16.5 63.5t-41 43.5t-61 29t-69.5 19.5 t-73.5 16t-65.5 18.5q-126 44 -203.5 124.5t-77.5 190.5z" />
<glyph unicode="%" horiz-adv-x="1468" d="M59 883q0 144 81.5 227.5t209.5 83.5q129 0 210 -83t81 -228t-81 -228.5t-210 -83.5q-128 0 -209.5 84t-81.5 228zM209 883q0 -76 39.5 -127t101.5 -51t102 51t40 127t-39.5 125t-102.5 49q-62 0 -101.5 -49t-39.5 -125zM276 -82l746 1313l131 -37l-745 -1315zM829 279 q0 144 82 227.5t211 83.5q128 0 209.5 -83.5t81.5 -227.5t-81.5 -228t-209.5 -84q-129 0 -211 83.5t-82 228.5zM981 279q0 -77 39 -128t102 -51q61 0 101.5 51.5t40.5 127.5q0 75 -40.5 124.5t-101.5 49.5q-64 0 -102.5 -49t-38.5 -125z" />
<glyph unicode="&#x26;" horiz-adv-x="1298" d="M25 332q0 75 26 139.5t56.5 102.5t85 74.5t79 48t71.5 30.5q3 2 5 2.5t4 1.5q-76 172 -76 281q0 167 94 264.5t277 97.5q36 0 75 -2.5t61 -5.5t22 -4l196 -33l7 -2l-52 -375l-139 -10l-6 4l-4 242q-4 0 -22 6t-48.5 11t-70.5 5q-89 0 -131.5 -55.5t-42.5 -142.5 q0 -143 109.5 -317t262.5 -306q71 114 127 293l185 -14q-13 -76 -62.5 -178t-118.5 -201q47 -35 134.5 -63.5t146.5 -28.5h2v-152q-49 -49 -121 -49q-144 0 -319 145q-202 -172 -396 -172q-87 0 -158.5 21t-118.5 56.5t-79.5 83t-46.5 98t-14 104.5zM254 369q0 -81 68 -145 t161 -64q135 0 258 71q-202 186 -317 367q-47 -8 -109 -70q-61 -55 -61 -159z" />
<glyph unicode="'" horiz-adv-x="516" d="M133 1475h248l-45 -611h-164z" />
<glyph unicode="(" horiz-adv-x="845" d="M113 565q0 193 43.5 373.5t118.5 321t172.5 247t207.5 166.5l76 -119q-67 -48 -127 -112.5t-117.5 -155.5t-98.5 -196t-66 -241t-25 -284q0 -624 448 -977l-90 -127q-82 57 -152.5 122.5t-144.5 165.5t-126 214t-85.5 270.5t-33.5 331.5z" />
<glyph unicode=")" horiz-adv-x="845" d="M123 1530l90 127q82 -57 152.5 -122.5t145 -165.5t126.5 -214t85.5 -270.5t33.5 -331.5q0 -193 -43.5 -373.5t-119 -321t-173 -247t-207.5 -166.5l-76 119q67 48 127 112.5t117.5 155.5t98.5 196t66 241t25 284q0 624 -448 977z" />
<glyph unicode="*" horiz-adv-x="991" d="M70 1315l55 170l307 -133l-24 350h178l-27 -350l307 133l56 -170l-322 -88l227 -266l-145 -105l-184 297l-187 -297l-143 105l223 266z" />
<glyph unicode="+" horiz-adv-x="1019" d="M23 504v151h399v430h168v-430h405v-151h-405v-432h-168v432h-399z" />
<glyph unicode="," horiz-adv-x="630" d="M143 -238q3 3 22 21.5t29 29t28.5 30.5t29.5 36.5t23.5 37t18.5 41t7 40.5h-6q-58 2 -101.5 39.5t-43.5 103.5q0 71 45 114.5t110 43.5q71 0 118.5 -49t47.5 -144q0 -74 -22 -142.5t-59.5 -122.5t-79.5 -95t-91 -74z" />
<glyph unicode="-" horiz-adv-x="821" d="M63 489v179h695v-179h-695z" />
<glyph unicode="." horiz-adv-x="630" d="M154 143q0 72 48.5 118t114.5 46q64 0 111 -45t47 -119t-46.5 -118.5t-111.5 -44.5q-66 0 -114.5 45t-48.5 118z" />
<glyph unicode="/" horiz-adv-x="759" d="M-4 -332l672 1993l161 -53l-673 -1987z" />
<glyph unicode="0" horiz-adv-x="1249" d="M98 573q0 135 43 248t116 187t168 114.5t200 40.5t200 -40.5t167.5 -114.5t115.5 -187t43 -248q0 -136 -43 -249t-115.5 -187t-167.5 -114.5t-200 -40.5t-200 40.5t-168 114.5t-116 187t-43 249zM330 573q0 -173 82 -286t213 -113q132 0 215.5 113t83.5 286t-83.5 285.5 t-215.5 112.5q-131 0 -213 -112.5t-82 -285.5z" />
<glyph unicode="1" horiz-adv-x="860" d="M106 0v135l252 31v680h-239v121q146 6 217 77q43 46 61 105h181v-983l233 -27v-139h-705z" />
<glyph unicode="2" horiz-adv-x="1044" d="M109 983l1 1q66 81 173 130q102 47 215 47q172 0 285.5 -99.5t113.5 -264.5q0 -80 -28 -153t-69.5 -124.5t-101.5 -103t-110.5 -84t-112 -71.5t-90.5 -62l565 8v-207h-819l-10 168q76 74 171.5 156t155.5 132.5t116.5 107t83 109.5t26.5 111q0 82 -56.5 129.5 t-148.5 47.5q-66 0 -132 -29t-151 -84z" />
<glyph unicode="3" horiz-adv-x="1028" d="M74 -207l22 162q144 -18 264 -18q85 0 158 24.5t122.5 79t49.5 129.5q0 107 -89 161t-253 54q-17 0 -50 -1t-48 -1q-14 174 -14 176q218 15 318.5 78t100.5 172q0 77 -55.5 122.5t-136.5 45.5q-136 0 -287 -76l-70 158q150 100 365 100q182 0 291.5 -91.5t109.5 -236.5 q0 -70 -24.5 -131t-61 -98.5t-69.5 -60t-58 -29.5v-6q115 -24 191 -113t76 -215q0 -183 -154 -308.5t-399 -125.5q-45 0 -91.5 5t-81.5 12t-63.5 14.5t-45 12.5t-17.5 5z" />
<glyph unicode="4" horiz-adv-x="1116" d="M29 256l598 1034h10l145 -121l-508 -870h390v367h217v-367h227v-176h-227v-320h-217v320h-619z" />
<glyph unicode="5" horiz-adv-x="1089" d="M111 -150l79 148q7 -3 51.5 -21t65.5 -24.5t67.5 -14.5t96.5 -8q145 0 231 82t86 205q0 98 -58.5 160.5t-156.5 62.5q-128 0 -274 -110q-6 -4 -8 -6l-144 49l50 751h723l-11 -198h-530l-29 -375q114 74 256 74q101 0 180 -33.5t127 -90t72.5 -126.5t24.5 -148 q0 -91 -36 -177t-101.5 -156.5t-169.5 -113t-230 -42.5q-40 0 -78 4t-68.5 10.5t-58 14.5t-48.5 17.5t-39 19t-30.5 17.5t-21.5 14.5t-13 10.5z" />
<glyph unicode="6" horiz-adv-x="1144" d="M90 537q0 113 24.5 219t82 210t144 185.5t219 140t298.5 78.5l16 -194q-121 -11 -223 -56.5t-165 -104.5t-107 -127t-62 -123t-18 -93v-2q96 81 176.5 107t165.5 26q166 0 278.5 -118t112.5 -284q0 -99 -38.5 -184t-102 -141.5t-144.5 -88.5t-167 -32q-111 0 -204.5 47.5 t-155.5 127.5t-96 185.5t-34 221.5zM299 487q0 -148 86.5 -249t194.5 -101q100 0 167.5 65t67.5 179q0 104 -59.5 174t-157.5 70q-175 0 -299 -138z" />
<glyph unicode="7" horiz-adv-x="1015" d="M29 918v206h911l4 -168q-223 -312 -366 -597.5t-211 -598.5l-13 -2l-209 45q150 574 527 1123z" />
<glyph unicode="8" horiz-adv-x="1155" d="M96 346q0 71 22.5 132t65 107.5t86.5 79.5t103 66v4q-85 36 -157.5 130t-72.5 212q0 159 128.5 268t314.5 109q193 0 317.5 -103.5t124.5 -258.5q0 -115 -66.5 -201t-175.5 -137v-6q57 -26 106 -58.5t93 -77.5t69 -105t25 -128q0 -171 -145.5 -286.5t-351.5 -115.5 q-124 0 -234 43.5t-181 129.5t-71 196zM328 367q0 -90 79 -152.5t183 -62.5q106 0 187 60t81 148q0 57 -31.5 108t-80 84.5t-98.5 55t-95 29.5h-4q-26 -12 -52.5 -29t-70 -52t-71 -84.5t-27.5 -104.5zM356 1077q0 -44 18.5 -83.5t45 -66.5t62 -49.5t65 -34.5t57.5 -20h4 q12 3 28 9.5t51.5 27t62 46.5t48 71t21.5 98q0 88 -67.5 145.5t-159.5 57.5q-99 0 -167.5 -57.5t-68.5 -143.5z" />
<glyph unicode="9" horiz-adv-x="1124" d="M92 713q0 187 131.5 317.5t331.5 130.5q139 0 245.5 -74t162 -198.5t55.5 -278.5q0 -129 -26.5 -248.5t-84 -226t-140.5 -185.5t-204.5 -126t-267.5 -49l-25 184q14 2 43 2q93 2 173 33.5t133.5 77.5t94 104.5t61 111t28.5 101.5q-113 -113 -307 -113 q-165 0 -284.5 126.5t-119.5 310.5zM305 713q0 -104 69.5 -177t180.5 -73q92 0 159 38t95 81q4 20 4 75q-1 62 -16.5 118t-46.5 102.5t-82 74t-117 27.5q-108 0 -177 -72t-69 -194z" />
<glyph unicode=":" horiz-adv-x="630" d="M154 143q0 72 48.5 118t114.5 46q64 0 111 -45t47 -119t-46.5 -118.5t-111.5 -44.5q-66 0 -114.5 45t-48.5 118zM154 795q0 72 48.5 117.5t114.5 45.5q65 0 111.5 -44.5t46.5 -118.5q0 -72 -47 -117t-111 -45q-66 0 -114.5 45.5t-48.5 116.5z" />
<glyph unicode=";" horiz-adv-x="634" d="M143 -238q3 3 22 21.5t29 29t28.5 30.5t29.5 36.5t23.5 37t18.5 41t7 40.5h-6q-58 2 -101.5 39.5t-43.5 103.5q0 71 45 114.5t110 43.5q71 0 118.5 -49t47.5 -144q0 -74 -22 -142.5t-59.5 -122.5t-79.5 -95t-91 -74zM154 795q0 72 48.5 117.5t114.5 45.5 q65 0 111.5 -44.5t46.5 -118.5q0 -72 -47 -117t-111 -45q-66 0 -114.5 45.5t-48.5 116.5z" />
<glyph unicode="&#x3c;" horiz-adv-x="1038" d="M72 512v143l712 486l84 -144l-622 -411l622 -414l-84 -158z" />
<glyph unicode="=" horiz-adv-x="1175" d="M170 287v153h838v-153h-838zM170 700v154h838v-154h-838z" />
<glyph unicode="&#x3e;" horiz-adv-x="1038" d="M170 160l623 411l-623 414l84 158l713 -498v-143l-713 -486z" />
<glyph unicode="?" horiz-adv-x="985" d="M106 1315l60 28q55 42 155.5 73.5t200.5 31.5q192 0 314 -99.5t122 -265.5q0 -159 -104 -256q-34 -34 -124 -98.5t-136 -110.5q-64 -64 -64 -143h-168q-11 159 82 252q35 36 110.5 89t102.5 79q38 40 57 77.5t19 88.5q0 103 -62.5 159t-158.5 56q-116 0 -209 -29l-2 -2 l-2 -229l-135 -19l-14 11zM303 143q0 72 49 118t115 46t113 -45t47 -119t-47 -118.5t-113 -44.5t-115 45t-49 118z" />
<glyph unicode="@" horiz-adv-x="1869" d="M117 422q0 153 43 301.5t126 277t196 226.5t263 154.5t316 56.5q223 0 392.5 -86.5t259 -235.5t89.5 -336q0 -148 -48.5 -287.5t-125.5 -238t-176.5 -158t-198.5 -59.5q-76 2 -125 45t-49 123q0 48 19 117l-8 4q-7 -12 -25.5 -49.5t-32.5 -63t-39.5 -61t-50.5 -57.5 t-61.5 -38t-77.5 -16q-118 0 -188 79.5t-70 209.5q0 180 52 333t154.5 250t235.5 97q76 0 119.5 -18t97.5 -60q1 0 28.5 32.5t27.5 34.5l122 -26l7 -10q-6 -28 -29.5 -127t-36 -158t-30 -147.5t-25.5 -163t-8 -136.5q0 -59 49 -59q75 0 151 80q92 92 144.5 236.5t52.5 287.5 q0 239 -165 387t-431 148q-211 0 -392.5 -118t-288 -320.5t-106.5 -438.5q2 -116 29 -213.5t70 -166.5t101 -123t119.5 -87t128.5 -54.5t124 -29.5t110 -8h99l4 -135q-66 -12 -152 -12q-113 0 -225.5 35t-213.5 105.5t-179 167t-124.5 228.5t-47.5 281zM737 344 q0 -158 129 -158q19 0 38.5 11t37.5 33.5t34 48.5t33 63t30.5 69.5t29 76t26 75.5t24.5 74t22 65l28 125q-26 25 -68 36t-67 11q-93 0 -162.5 -81.5t-102 -200t-32.5 -248.5z" />
<glyph unicode="A" horiz-adv-x="1466" d="M23 0v121l151 31l436 1247l219 2l469 -1245l150 -31v-125h-569v121l178 33l-88 233h-527l-75 -231l194 -31v-125h-538zM502 567h399l-211 568z" />
<glyph unicode="B" horiz-adv-x="1347" d="M106 0v121l160 31v1079l-160 24v121l9 6q54 0 154 -3t137 -3q38 0 152 4t163 4q193 0 312.5 -100.5t119.5 -261.5q0 -53 -28 -117.5t-76 -115t-99 -60.5v-6q41 -1 91.5 -26.5t96.5 -69t77.5 -112t31.5 -144.5q0 -103 -40 -180.5t-108.5 -121.5t-150.5 -65.5t-176 -21.5 q-151 0 -353 9t-313 9zM494 162q108 -19 247 -19q124 0 189 70.5t65 159.5q0 113 -75.5 176t-184.5 63h-241v-450zM494 780q18 0 134.5 -3t159.5 -3q41 0 91.5 69t50.5 169q0 82 -66.5 138t-181.5 56q-41 0 -104 -2t-84 -2v-422z" />
<glyph unicode="C" horiz-adv-x="1298" d="M84 692q0 166 53 305t144.5 231.5t213 143.5t259.5 51q199 0 338 -34l137 -39l18 -25q-49 -364 -53 -364l-150 -13l-22 10l-25 259l-2 2q-106 24 -166 24q-79 0 -149.5 -18.5t-134.5 -60.5t-110 -104.5t-73.5 -156.5t-27.5 -211q0 -129 42 -233t112 -168t156 -97.5 t179 -33.5q198 0 359 90l14 -2l57 -162q-191 -123 -430 -123q-152 0 -285 48t-234.5 138t-160.5 230t-59 313z" />
<glyph unicode="D" horiz-adv-x="1492" d="M106 0v121l160 31v1079l-160 24v121l9 6q54 0 154 -3t137 -3q45 0 175.5 4t186.5 4q143 0 265 -56t204 -150t128 -218.5t46 -261.5q0 -144 -52.5 -272t-145.5 -222t-228.5 -149t-292.5 -55h-586zM494 190q141 -12 190 -12q224 0 351.5 141.5t127.5 376.5q0 75 -15 145.5 t-48.5 135t-83 112.5t-123.5 76.5t-164 28.5q-53 0 -131.5 -1t-103.5 -1v-1002z" />
<glyph unicode="E" horiz-adv-x="1253" d="M106 0v121l160 31v1081l-160 27v120h1022l19 -344l-8 -14l-142 -10l-61 205l-442 -5v-430l299 4l28 123h135l11 -12l-4 -416l-132 -18l-14 12l-16 143l-307 -4v-415l499 -13l70 187l139 -19l4 -10l-71 -344h-1029z" />
<glyph unicode="F" horiz-adv-x="1196" d="M106 0v121l160 31v1081l-160 27v120h988l18 -329l-8 -15l-141 -8l-62 205l-407 -2v-479l305 4l26 110h138l8 -12l-2 -401l-133 -17l-13 13l-18 137l-311 -4v-426l206 -31v-125h-594z" />
<glyph unicode="G" horiz-adv-x="1492" d="M84 692q0 173 54.5 313.5t148.5 231t218 138.5t267 48q206 0 354 -34l138 -41l18 -23q0 -5 -25 -181t-26 -179l-152 -13l-20 11l-27 254l-2 2q-71 24 -244 24q-64 0 -126 -18.5t-121.5 -60.5t-104.5 -104t-72.5 -157t-27.5 -211q0 -133 44 -239t117 -169.5t162 -96.5 t185 -33q130 0 235 41q0 41 1 125t1 126l-231 33l6 148q3 -1 62 -1q30 -1 66 -1t78 1q83 0 164.5 1t141.5 1l61 1q-2 -58 -2 -148l-118 -32l-2 -312q-195 -174 -463 -174q-156 0 -292.5 48t-240.5 138t-164.5 230t-60.5 313z" />
<glyph unicode="H" horiz-adv-x="1603" d="M111 0v121l157 31v1081l-157 27v120h548v-120l-163 -29v-440h610v442l-164 27v120h551v-120l-160 -29v-1075l162 -31v-125h-553v121l164 31v458h-610v-454l166 -31v-125h-551z" />
<glyph unicode="I" horiz-adv-x="761" d="M106 0v121l160 31v1081l-160 27v120h545v-120l-157 -29v-1075l159 -31v-125h-547z" />
<glyph unicode="J" horiz-adv-x="874" d="M2 -248l31 160q36 -8 105 -16q61 -7 105 -7h11q71 2 106 56.5t35 175.5v1112l-209 27v120h613v-120l-176 -29v-1147q0 -183 -96 -288t-232 -105q-127 0 -293 61z" />
<glyph unicode="K" horiz-adv-x="1427" d="M106 0v121l160 31v1081l-160 27v120h549v-120l-161 -29v-582l518 584l-154 27v120h553v-120l-172 -29l-403 -471l475 -604l157 -31v-125h-579v121l135 31l-346 477l-184 -183v-290l163 -31v-125h-551z" />
<glyph unicode="L" horiz-adv-x="1255" d="M106 0v121l160 31v1081l-160 27v120h596v-118l-208 -29v-1053l442 -10l108 262l142 -16l2 -10l-82 -406h-1000z" />
<glyph unicode="M" horiz-adv-x="1961" d="M94 0v121l174 31v1081l-162 27v120h484l385 -960l405 960h480v-120l-168 -27l2 -1081l170 -31v-121h-572v125l183 31v860l8 166h-10l-136 -375l-288 -694l-170 4l-318 745l-112 309h-9l9 -155l6 -860l184 -31v-125h-545z" />
<glyph unicode="N" horiz-adv-x="1609" d="M100 0v121l170 31l-4 1081l-162 27v120h390l673 -960l-12 813l-164 27v120h529v-120l-160 -29v-1247l-174 -4l-721 1056l-2 -10l14 -870l180 -31v-125h-557z" />
<glyph unicode="O" horiz-adv-x="1538" d="M84 690q0 173 54.5 313.5t148 231t217.5 139.5t266 49t266 -49t218 -139.5t148 -231t54 -313.5t-54 -313.5t-148 -231t-218 -139.5t-266 -49t-266 49t-217.5 139.5t-148 231t-54.5 313.5zM336 690q0 -133 37 -239t99.5 -170t138.5 -97.5t159 -33.5t159 33.5t138.5 97.5 t99.5 170t37 239q0 111 -24.5 202.5t-66 153t-98 104t-118 62t-127.5 19.5t-127.5 -19.5t-118 -62t-98 -104t-66 -153t-24.5 -202.5z" />
<glyph unicode="P" horiz-adv-x="1310" d="M106 0v121l160 31v1079l-160 24v121l9 6q54 0 154 -3t137 -3q38 0 151 4t162 4q120 -1 217.5 -36t161 -95.5t97.5 -142t34 -176.5q0 -122 -67.5 -219.5t-180.5 -150t-248 -52.5q-151 0 -239 10v-366l235 -31v-125h-623zM494 684q60 -6 188 -6q142 0 220.5 68t78.5 196 q0 47 -17 90t-51 80t-94 59.5t-139 22.5q-42 0 -104 -1t-82 -1v-508z" />
<glyph unicode="Q" horiz-adv-x="1505" d="M84 690q0 173 53 313.5t144.5 231t212.5 139.5t260 49t259.5 -49t212 -139.5t144.5 -231t53 -313.5q0 -177 -62.5 -318t-163.5 -225t-230 -118q113 -80 227 -126t252 -53h6v-165q-74 -37 -129 -37q-73 0 -140.5 17.5t-118 41.5t-112.5 72t-103 86t-110 106h-10 q-134 5 -250 53.5t-205 137t-139.5 224.5t-50.5 304zM317 690q0 -133 37.5 -239t100.5 -170t139.5 -97.5t159.5 -33.5t159.5 33.5t139 97.5t100 170t37.5 239q0 137 -37.5 244t-100.5 170t-138.5 95t-159.5 32q-66 0 -128 -19.5t-118.5 -62t-98.5 -104t-67 -153t-25 -202.5z " />
<glyph unicode="R" horiz-adv-x="1421" d="M106 0v121l160 31v1079l-160 24v121l9 6q54 0 154 -3t137 -3q38 0 151.5 4t161.5 4q212 0 344.5 -116.5t132.5 -286.5q0 -129 -72 -234t-221 -153q133 -175 202 -247q165 -172 306 -183h4v-164q-61 -23 -127 -23q-53 0 -101 14t-88.5 37t-81 61.5t-73.5 78.5t-72 98 t-70 108.5t-73 121.5q-13 23 -20 34q-46 2 -123 4t-92 3v-381l170 -31v-125h-558zM494 711q5 0 52 -3.5t108.5 -6.5t101.5 -3q29 2 64 20.5t68 50.5t55 83t22 109q0 90 -73.5 167.5t-195.5 77.5q-45 0 -112.5 -2t-89.5 -2v-491z" />
<glyph unicode="S" horiz-adv-x="1230" d="M166 53l4 369l170 10l31 -227l5 -3q4 -4 11 -8.5t17.5 -10.5t24 -13t29 -13.5t35 -12.5t39.5 -11t44.5 -7.5t48.5 -2.5q119 0 182 53t63 143q0 88 -65 150q-38 36 -102 72t-124 63.5t-137 76.5t-137 107q-121 116 -121 269q0 112 63 194.5t165.5 123t228.5 40.5 q109 0 238 -35l188 -24l4 -6l-29 -353l-151 -12l-4 8l-29 217h-2q-87 56 -197 56q-64 0 -112 -17t-74.5 -45t-39.5 -59t-13 -64q0 -73 69 -135q44 -38 130.5 -83.5t180 -101t161.5 -120.5q137 -134 137 -293q0 -97 -42.5 -172.5t-113.5 -120t-156.5 -67.5t-179.5 -23 q-127 0 -272 53q-113 11 -162 11z" />
<glyph unicode="T" horiz-adv-x="1366" d="M72 1374l12 6h1204l15 -393l-148 -29l-12 9l-41 241l-303 -2v-1050l190 -31v-125h-610v121l192 31v1054l-315 2l-8 -237l-154 -17l-6 13z" />
<glyph unicode="U" horiz-adv-x="1521" d="M66 1260v120h532v-120l-147 -29v-621q0 -454 331 -454q169 0 241.5 117t72.5 331v629l-166 27v120h524v-120l-156 -29v-709q0 -122 -34 -221t-87.5 -161t-124 -104t-139.5 -59.5t-137 -17.5q-71 0 -141 15.5t-146 58t-133.5 107.5t-95 174.5t-37.5 248.5v670z" />
<glyph unicode="V" horiz-adv-x="1396" d="M0 1260v120h545v-120l-158 -29l340 -948l324 950l-160 27v120h518v-120l-156 -29l-458 -1237l-174 -4l-478 1243z" />
<glyph unicode="W" horiz-adv-x="1998" d="M16 1260v120h535v-120l-154 -29l240 -957l281 1029l204 -3l293 -1007l232 940l-162 27v120h512v-120l-156 -29l-342 -1237l-182 -2l-328 985l-272 -983l-187 -2l-370 1241z" />
<glyph unicode="X" horiz-adv-x="1357" d="M8 1260v120h584v-125l-158 -28l268 -387q234 348 259 387l-142 26v127h520v-120l-168 -29l-366 -526l391 -555l150 -29v-121h-553v121l135 31l-258 387l-283 -389l145 -29v-121h-514v121l156 31l397 520l-413 559z" />
<glyph unicode="Y" horiz-adv-x="1343" d="M2 1260v120h551v-120l-152 -29l291 -549l312 551l-164 27v120h510v-120l-150 -29l-412 -676v-399l164 -31v-125h-551v121l160 31v403l-418 678z" />
<glyph unicode="Z" horiz-adv-x="1257" d="M78 98l784 1108l-530 4q-6 -43 -16.5 -130t-16.5 -130l-162 6l-6 406l14 18h1010l2 -96l-762 -1100l520 -16q54 163 101 311l149 -18l-67 -467l-1000 6z" />
<glyph unicode="[" horiz-adv-x="792" d="M250 -551v2220h416v-147h-242v-1925h242v-148h-416z" />
<glyph unicode="\" horiz-adv-x="759" d="M-55 1608l161 53l672 -1993l-160 -47z" />
<glyph unicode="]" horiz-adv-x="792" d="M127 -403h242v1925h-242v147h416v-2220h-416v148z" />
<glyph unicode="^" horiz-adv-x="839" d="M63 1167l289 414h144l284 -407l-135 -91l-221 318l-231 -322z" />
<glyph unicode="_" horiz-adv-x="1036" d="M0 -164h1036v-153h-1036v153z" />
<glyph unicode="`" horiz-adv-x="974" d="M199 1405l131 207l399 -305l-92 -142z" />
<glyph unicode="a" horiz-adv-x="1040" d="M57 242q0 66 25.5 121t71 92t102 65t124 43.5t131 23.5t128.5 9v12q0 67 -7 110.5t-18.5 70t-37 39.5t-52 16.5t-73.5 3.5q-61 0 -133.5 -12t-115.5 -24l-42 -11l-47 149q196 84 419 84q64 0 115.5 -15t85 -38.5t58 -58.5t37 -66.5t20 -72.5t9 -68t1.5 -60v-385 q0 -100 70 -100q32 0 69 18l45 -108q-124 -107 -219 -107q-43 1 -74 16.5t-46.5 40t-22.5 46t-8 41.5v16q-34 -60 -116.5 -111t-170.5 -51q-86 0 -152.5 26t-103 67.5t-54.5 87t-18 90.5zM266 262q0 -51 41 -80.5t107 -29.5q65 0 135.5 37.5t91.5 68.5v188 q-180 0 -277.5 -49.5t-97.5 -134.5z" />
<glyph unicode="b" d="M-20 1393v129l368 43v-647q24 24 43.5 39.5t55 36t83.5 31.5t107 11q176 0 287.5 -133.5t111.5 -359.5q0 -131 -40.5 -238.5t-110 -177t-160.5 -107.5t-193 -38q-199 0 -395 114v1258zM346 215q27 -17 45.5 -25.5t62 -17t101.5 -8.5q106 0 187 93t81 253q0 60 -11.5 114 t-37.5 103.5t-75 79t-115 29.5q-84 0 -136.5 -27t-101.5 -76v-518z" />
<glyph unicode="c" horiz-adv-x="989" d="M61 524q0 144 61.5 259t184.5 184t289 69q209 0 334 -75l-31 -308l-168 -12l-18 205q-62 16 -113 16q-162 0 -240.5 -91.5t-78.5 -246.5q0 -175 89 -273.5t248 -98.5q131 0 273 84l55 -119q-144 -144 -352 -144h-6q-161 1 -281.5 72t-183 195t-62.5 284z" />
<glyph unicode="d" horiz-adv-x="1185" d="M59 500q0 143 56.5 266t157 196.5t221.5 73.5q57 0 101 -8.5t79 -27t51 -30t45 -36.5v403q-18 4 -74 18.5t-84 20.5v137l369 43v-1361l164 -17v-112l-311 -101l-9 2l-32 154q-43 -58 -124 -103t-180 -45q-101 0 -184 44.5t-136 119t-81.5 168t-28.5 195.5zM281 500 q0 -142 68 -233t190 -91q82 0 148.5 49t86.5 101v366q-14 67 -80 111.5t-157 44.5q-69 0 -121 -30.5t-80 -82t-41.5 -110.5t-13.5 -125z" />
<glyph unicode="e" horiz-adv-x="1054" d="M63 522q0 77 15.5 148.5t52 139t91 117t138 79.5t187.5 30q193 0 297 -110t104 -281q0 -79 -10 -166h-653v-2q0 -42 8 -82t29.5 -84t55 -76.5t90.5 -53.5t130 -21q48 0 93 9.5t74.5 22.5t53 27.5t34 23.5t11.5 11h6l84 -125q-58 -67 -159 -109.5t-232 -42.5 q-225 0 -362.5 149t-137.5 396zM287 618h463v41q0 101 -58 162q-23 23 -64.5 36t-86.5 13q-109 0 -177 -71t-77 -181z" />
<glyph unicode="f" horiz-adv-x="768" d="M68 842v133l153 33q-4 78 -4 106q0 241 98.5 353t323.5 112q51 0 114 -13.5t101 -26.5l37 -13l-68 -168q-112 39 -213 39q-97 0 -139.5 -61t-42.5 -187q0 -67 8 -127h324v-180h-320v-686l230 -31v-125h-594v121l155 31v690h-163z" />
<glyph unicode="g" horiz-adv-x="1118" d="M59 -252q0 51 24 92t62 66t68.5 38t60.5 21q-50 16 -85 59.5t-35 100.5q0 46 26.5 86t54 59.5t58.5 34.5q-172 124 -172 328q0 188 119 295.5t292 107.5q161 0 271 -90q136 76 287 76l4 -4l2 -187q-155 -5 -211 -10q59 -75 59 -188q0 -95 -33.5 -172.5t-91 -127 t-131.5 -76t-156 -26.5q-68 0 -126 21q-64 -28 -64 -70q0 -10 6 -19t20 -15.5t28.5 -12t39 -10t44.5 -7.5t52 -6.5t54 -5.5t57.5 -5t56.5 -5q190 -15 295 -101t105 -218q0 -77 -37.5 -138t-93 -96t-128 -58.5t-135 -31.5t-120.5 -8q-233 0 -380 82.5t-147 220.5zM252 -229 q0 -66 87.5 -108t246.5 -42q170 0 249.5 41t79.5 102q0 34 -20 60t-47 40.5t-64 24t-60.5 12.5t-47.5 5q-197 11 -297 22l-32 -16t-28 -16t-28 -22t-19.5 -25.5t-15.5 -34.5t-4 -43zM322 633q0 -108 59 -174t151 -66q96 0 152.5 65.5t56.5 174.5q0 111 -58.5 177.5 t-150.5 66.5t-151 -66.5t-59 -177.5z" />
<glyph unicode="h" horiz-adv-x="1234" d="M61 1378v133l373 45v-679q15 23 38 46t58.5 50t85.5 44t105 17q185 0 264.5 -108t79.5 -318v-450l125 -27v-131h-475v133l141 25v450q0 108 -48.5 163.5t-141.5 55.5q-132 0 -232 -127v-544l139 -23v-133h-503v121l153 31v1179q-27 7 -81.5 23.5t-80.5 23.5z" />
<glyph unicode="i" horiz-adv-x="647" d="M72 870v131l370 37v-882l174 -31v-125h-538v121l155 31v669zM160 1423q0 70 47 113t112 43q63 0 108.5 -42.5t45.5 -113.5t-45.5 -113t-108.5 -42q-66 0 -112.5 42.5t-46.5 112.5z" />
<glyph unicode="j" horiz-adv-x="577" d="M31 -350h4q75 0 127.5 51t52.5 145v975l-162 49v131l373 37v-1155q0 -377 -293 -377q-22 0 -46 3t-39 5.5t-17 2.5v133zM141 1423q0 69 47.5 112.5t110.5 43.5q64 0 110 -42.5t46 -113.5t-45.5 -113t-110.5 -42q-63 0 -110.5 43t-47.5 112z" />
<glyph unicode="k" horiz-adv-x="1204" d="M70 1378v133l372 45v-1054l326 366l-131 29v121h500v-121l-144 -33l-254 -272l338 -434l127 -27v-131h-311l-305 444l-146 -153v-135l150 -31v-125h-514v121l153 31v1179q-26 7 -80 23.5t-81 23.5z" />
<glyph unicode="l" horiz-adv-x="673" d="M70 1378v133l372 45v-1400l172 -31v-125h-536v121l153 31v1179q-26 7 -80 23.5t-81 23.5z" />
<glyph unicode="m" horiz-adv-x="1822" d="M70 854v131l315 41l31 -182q2 3 16 21.5t22.5 28.5t27.5 30.5t34.5 33t40.5 28.5t50 25.5t57.5 16t66.5 6.5q96 0 170 -44t107 -130q31 34 54 56.5t63.5 53.5t87.5 47.5t98 16.5q186 0 265 -108t79 -318v-450l123 -27v-131h-473v133l137 25v450q0 108 -48 163.5 t-139 55.5q-124 0 -208 -100v-569l127 -27v-131h-474v133l138 25v450q0 108 -48 163.5t-141 55.5q-40 0 -73.5 -11.5t-59 -34t-40 -39t-34.5 -44.5v-542l140 -23v-133h-504v121l153 31v653z" />
<glyph unicode="n" horiz-adv-x="1243" d="M70 854v131l315 41l31 -182q21 26 33 39t48 46.5t68 52.5t82 35.5t101 16.5q173 0 249 -109t76 -321v-446l125 -27v-131h-473v133l139 25v446q0 110 -48.5 166.5t-139.5 56.5q-77 0 -130.5 -33.5t-103.5 -93.5v-544l140 -23v-133h-504v121l153 31v653z" />
<glyph unicode="o" d="M59 506q0 123 41 225.5t110 168t157 101t184 35.5q97 0 185 -35.5t156.5 -101.5t109 -168.5t40.5 -226.5t-40.5 -226.5t-109 -168.5t-156.5 -102t-185 -36q-96 0 -184 36t-157 102.5t-110 169.5t-41 227zM291 506q0 -157 71.5 -253.5t188.5 -96.5q118 0 190 95.5 t72 252.5t-72 253.5t-190 96.5q-117 0 -188.5 -96t-71.5 -252z" />
<glyph unicode="p" horiz-adv-x="1163" d="M43 854v131l324 41l24 -160q37 63 120.5 116.5t193.5 53.5q175 0 286 -133.5t111 -359.5q0 -131 -40.5 -238.5t-109.5 -177t-159.5 -107.5t-192.5 -38q-92 0 -184 45v-363l178 -24v-136h-528v123l137 31v1147zM414 242l1 -1q65 -77 206 -77q107 0 188.5 93.5t81.5 252.5 q0 59 -12 113.5t-38.5 104t-76 79t-115.5 29.5q-130 0 -235 -162v-432z" />
<glyph unicode="q" horiz-adv-x="1118" d="M61 520q0 138 56 256.5t156 189t221 70.5q76 0 142 -10t104.5 -21.5t115.5 -37.5l125 -6v-1301l149 -22v-134h-544v123l184 33v432q-111 -119 -262 -119q-106 0 -192.5 46t-141 123t-84 174.5t-29.5 203.5zM281 520q0 -152 68 -248t190 -96q81 0 157 58t78 94v473 q-3 3 -31 14.5t-83.5 25t-106.5 13.5q-73 0 -128 -29.5t-85.5 -79.5t-44.5 -106.5t-14 -118.5z" />
<glyph unicode="r" horiz-adv-x="835" d="M63 854v131l308 41l32 -278h5q41 119 122 201.5t189 82.5q86 0 115 -33l-25 -217q-61 6 -111 6q-115 0 -174 -51.5t-82 -150.5v-430l215 -23v-133h-575v121l149 31v634z" />
<glyph unicode="s" horiz-adv-x="960" d="M92 748q0 147 111.5 226t300.5 79q31 0 188 -23l139 -29l7 -14l-41 -276l-138 -17l-6 8l-20 179l-4 2q-1 0 -7 2t-17.5 4.5t-27 5t-39.5 4.5t-51 2q-85 0 -133.5 -27t-48.5 -96q0 -16 3.5 -30.5t13 -27t17 -22t25 -19.5t28 -16.5t35 -16t35.5 -13.5t40.5 -14.5 t40.5 -14.5q336 -107 336 -323q0 -100 -61 -173t-152 -107t-195 -34q-131 0 -244 35l-123 27l-6 8l8 274l138 13l8 -5l27 -153l2 -2q80 -45 200 -45q78 0 128 37.5t50 91.5q0 30 -16 56.5t-38 43.5t-59 34t-65 26.5t-70 22.5t-61 20q-123 45 -190.5 128.5t-67.5 168.5z" />
<glyph unicode="t" horiz-adv-x="755" d="M33 852v149l141 27l16 193l199 12v-211h309v-180h-309v-508q0 -87 32.5 -123.5t78.5 -36.5q84 0 207 49l49 -131q-46 -37 -128.5 -73.5t-172.5 -36.5q-55 0 -102.5 16t-88.5 49.5t-64.5 95.5t-23.5 146v563h-143z" />
<glyph unicode="u" horiz-adv-x="1216" d="M27 858v133l356 43l-2 -626q0 -109 49 -165.5t141 -56.5q73 0 138 39.5t92 85.5v529l-139 18v133l350 43q0 -343 -2 -821l159 -14v-131l-288 -86q-14 51 -54 178q-2 -2 -19.5 -21t-26 -27.5t-30 -28t-37.5 -30.5t-41.5 -26.5t-48 -24t-52 -14.5t-58.5 -6 q-185 0 -264.5 107.5t-79.5 318.5v430z" />
<glyph unicode="v" horiz-adv-x="1079" d="M0 887v131h455v-133l-111 -25l209 -581l211 589l-113 17v133h428v-121l-118 -33l-343 -887l-157 -6l-357 889z" />
<glyph unicode="w" horiz-adv-x="1544" d="M-12 887v131h456v-133l-120 -25l159 -612l240 751l139 7l256 -758l150 616l-148 21v133h424v-121l-100 -33l-238 -874l-180 -6l-254 653l-229 -647l-174 -6l-277 876z" />
<glyph unicode="x" horiz-adv-x="1114" d="M18 0v121l103 31l311 358l-295 350l-110 27v131h465v-133l-91 -19l177 -204l170 200l-95 23v133h414v-121l-109 -33l-278 -327l319 -381l109 -27v-129h-473v121l104 29l-202 239l-195 -237l113 -23v-129h-437z" />
<glyph unicode="y" horiz-adv-x="1091" d="M-4 887v131h455v-133l-111 -25l217 -567q57 118 129 307t86 268l-104 17v133h428v-121l-119 -33q-204 -556 -342 -811q-87 -162 -150 -263.5t-118 -156.5q-127 -124 -222 -129q-20 36 -82 195l5 4q127 39 213 125q118 118 161 231l-342 801z" />
<glyph unicode="z" horiz-adv-x="985" d="M53 98l590 766h-379q-14 -99 -22 -176l-144 -4l-20 313l16 21h803l2 -111l-569 -745l420 12l49 203l135 -21l-23 -362l-839 6z" />
<glyph unicode="{" horiz-adv-x="825" d="M18 504v114q193 35 297 60q49 12 72 37q29 26 29 71q0 66 -38 173.5t-76 214.5t-38 172q0 151 99.5 239t257.5 88q93 0 178 -14l-8 -111q-132 -8 -160 -8q-68 0 -107 -32t-39 -97q0 -46 27.5 -145t54.5 -210.5t27 -189.5q0 -102 -68 -189t-200 -116v-6 q132 -29 200 -116.5t68 -188.5q0 -79 -27 -190.5t-54.5 -210t-27.5 -144.5q0 -122 146 -129q68 0 160 -8l8 -111q-98 -16 -178 -16q-157 0 -257 92.5t-100 243.5q0 64 38 171t76 214.5t38 173.5q0 41 -29 70q-22 22 -72 38q-54 13 -166 34.5t-131 25.5z" />
<glyph unicode="|" horiz-adv-x="581" d="M207 -514v2156h170v-2156h-170z" />
<glyph unicode="}" horiz-adv-x="825" d="M27 -537l8 111q132 8 160 8q67 0 106 32t39 97q0 46 -27 145t-54.5 210.5t-27.5 189.5q0 102 68.5 189t200.5 116v6q-132 29 -200.5 116.5t-68.5 188.5q0 79 27.5 190.5t54.5 210t27 144.5q0 122 -145 129q-68 0 -160 8l-8 111q98 16 178 16q157 0 256.5 -92t99.5 -243 q0 -64 -37.5 -171t-75.5 -215t-38 -174q0 -41 28 -69q23 -23 72 -39q54 -13 166 -34.5t131 -25.5v-114q-193 -35 -297 -60q-51 -12 -72 -36q-28 -25 -28 -72q0 -53 23.5 -132t52 -148t52 -148t23.5 -131q0 -151 -99 -239.5t-257 -88.5q-93 0 -178 14z" />
<glyph unicode="~" horiz-adv-x="1200" d="M109 410q28 118 121.5 204t201.5 86q45 1 101.5 -22.5t102 -52t100 -52.5t93.5 -24q53 0 87.5 15.5t53 38t48.5 71.5h6l80 -47q-21 -119 -108.5 -204t-176.5 -85q-50 0 -111 24t-108 53t-102 53t-95 24q-21 0 -39 -3t-31 -6.5t-28 -13.5t-22.5 -15.5t-21.5 -22.5 t-19.5 -23.5t-22 -30t-22.5 -31.5h-7z" />
<glyph unicode="&#xa1;" horiz-adv-x="630" d="M156 870q0 74 46.5 119t110.5 45q66 0 115 -45.5t49 -118.5q0 -72 -49 -117.5t-115 -45.5q-62 0 -109.5 45t-47.5 118zM182 -426l60 926h153l60 -926h-273z" />
<glyph unicode="&#xa2;" horiz-adv-x="1056" d="M98 616q0 101 37 188t99.5 147t145 95.5t173.5 40.5l22 318l156 -12l-31 -312q135 -14 244 -73l-29 -273l-141 -16l-14 186q-89 25 -162 25q-127 0 -211 -84.5t-84 -229.5q0 -122 84 -216.5t211 -94.5q86 0 175 24t132 46l49 -105q-158 -127 -348 -135l-18 -282l-154 12 l27 282q-110 25 -193.5 96t-126.5 168t-43 205z" />
<glyph unicode="&#xa3;" horiz-adv-x="1187" d="M100 594l4 164h129q-53 113 -53 211q0 90 38 164.5t100 121.5t139 73t157 26q166 0 266 -54.5t181 -164.5l-2 -9l-162 -131q-19 25 -31.5 40.5t-38 41t-49.5 40.5t-59.5 26.5t-73.5 11.5q-96 0 -158.5 -52.5t-62.5 -137.5q0 -42 10 -81.5t21 -64t32 -61.5h330l-4 -164 h-250q19 -63 19 -109q0 -76 -23 -133.5t-78 -115.5v-5q15 0 101 -14q117 -22 176 -22q86 0 116 43q30 31 38 83t6 146l145 -8q20 -36 29.5 -57t18.5 -54t9 -67q0 -62 -16.5 -112t-54.5 -92.5t-108 -66.5t-167 -24q-13 0 -26 0.5t-27.5 2.5t-25.5 3.5t-27.5 5t-25 5.5 t-27 6.5t-25 6t-26.5 7t-25 6.5q-115 34 -168 34q-39 0 -114 -17t-151 -17v168q56 5 84 8t76 17t70 36q43 40 43 133q0 90 -45 203h-234z" />
<glyph unicode="&#xa4;" horiz-adv-x="1282" d="M74 170l190 170q-90 126 -90 285q0 155 90 284l-190 170l125 127l170 -190q130 94 272 94q139 0 272 -94l170 190l127 -127l-192 -170q90 -134 90 -284q0 -154 -90 -285l192 -170l-127 -127l-172 193q-118 -95 -270 -95q-151 0 -272 95l-170 -193zM373 625 q0 -122 77.5 -207.5t190.5 -85.5t190.5 85.5t77.5 207.5t-77.5 207.5t-190.5 85.5t-190.5 -85.5t-77.5 -207.5z" />
<glyph unicode="&#xa5;" horiz-adv-x="1435" d="M25 1106v121h630v-121l-196 -39l284 -485l283 491l-178 33v121h573v-121l-178 -39l-147 -215h274v-131h-350l-94 -156h446v-131h-530v-276l205 -33v-125h-625v121l192 31v282h-522v131h445l-97 156h-348v131h273l-156 223z" />
<glyph unicode="&#xa6;" horiz-adv-x="581" d="M207 469h170v-983h-170v983zM207 655v987h170v-987h-170z" />
<glyph unicode="&#xa7;" horiz-adv-x="1196" d="M174 719q0 104 58 185t153 122v4q-98 88 -98 197q0 128 105 219.5t243 91.5q86 0 156.5 -26t117 -84t47.5 -140q-3 -86 -34 -125l-131 -12l-5 6l-18 221q-13 5 -59 11t-78 6q-69 0 -114.5 -39t-45.5 -107q0 -70 52 -120.5t153 -106.5q13 -7 48 -26.5t50 -28.5t47 -28.5 t48 -32t42 -34t39.5 -38.5t31 -42t26 -48.5t14.5 -53t6 -61.5q0 -197 -188 -277v-6q45 -28 76.5 -86.5t31.5 -128.5q0 -148 -107.5 -239t-269.5 -91q-61 0 -121 18t-111 51t-82.5 87t-31.5 119q0 20 4 41.5t9.5 38t11.5 29.5t10 21t4 9l127 2l21 -223q2 -2 25.5 -10.5 t62.5 -17.5t69 -9q72 0 130.5 42t58.5 116q0 33 -15 63t-33.5 51t-57.5 47t-64.5 40t-75.5 40q-146 76 -202 119q-136 103 -136 244zM354 756q0 -63 47 -109.5t138 -99.5q29 -17 96 -54t100 -57q52 20 79.5 63.5t27.5 102.5q0 41 -16 75.5t-51 66t-65 52t-83 52.5 q-9 5 -62.5 35t-81.5 47q-68 -20 -98.5 -70t-30.5 -104z" />
<glyph unicode="&#xa8;" horiz-adv-x="600" d="M-72 1423q0 62 43.5 102t102.5 40q56 0 96.5 -39.5t40.5 -102.5q0 -65 -40 -104t-97 -39q-59 0 -102.5 39.5t-43.5 103.5zM389 1423q0 62 42.5 102t98.5 40q59 0 100.5 -39.5t41.5 -102.5q0 -65 -41.5 -104t-100.5 -39q-57 0 -99 40t-42 103z" />
<glyph unicode="&#xa9;" horiz-adv-x="1556" d="M41 662q0 200 98.5 369t268 267.5t370.5 98.5q200 0 369 -98.5t267.5 -267.5t98.5 -369q0 -151 -58 -288t-156.5 -236t-234.5 -157.5t-286 -58.5q-201 0 -370.5 99t-268 269t-98.5 372zM174 662q0 -165 80.5 -305.5t219.5 -222t304 -81.5q123 0 234.5 48.5t192 130 t128 194t47.5 236.5q0 122 -47.5 234t-128 193.5t-192 130t-234.5 48.5q-124 0 -236 -48.5t-192.5 -130t-128 -193.5t-47.5 -234zM424 649q0 175 107 283t262 108q123 0 172 -16l69 -20l10 -13q0 -5 -11.5 -130t-12.5 -126l-113 -8l-12 6l-14 154q-32 12 -50 12 q-98 0 -163.5 -61.5t-65.5 -188.5q0 -111 67 -172t158 -61q97 0 183 39q0 2 6 -2l35 -119q-101 -66 -224 -66q-83 0 -155.5 25t-128 71.5t-87.5 120t-32 164.5z" />
<glyph unicode="&#xaa;" horiz-adv-x="763" d="M70 631q0 43 16.5 76.5t55 61t108 42t168.5 14.5v11q-1 48 -6.5 75t-21 41t-34 17.5t-53.5 3.5q-40 0 -84.5 -7.5t-68.5 -15.5l-25 -8l-27 109q10 6 28.5 14.5t84.5 22.5t141 14q211 0 211 -230v-215q0 -59 49 -59q19 0 43 8l29 -74q-23 -20 -36 -30t-43 -24.5t-56 -14.5 q-34 0 -58 10t-34.5 26t-14.5 29t-4 25v4q-15 -39 -67.5 -68.5t-112.5 -29.5q-91 0 -139.5 53.5t-48.5 118.5zM227 637q0 -29 22 -46.5t60 -17.5q34 0 71.5 24.5t39.5 37.5q0 17 -1 46.5t-1 43.5v10q-191 0 -191 -98z" />
<glyph unicode="&#xab;" horiz-adv-x="1153" d="M117 539v86l407 411l88 -92l-313 -360l313 -363l-88 -100zM543 539v86l407 411l88 -92l-315 -360l315 -363l-88 -100z" />
<glyph unicode="&#xac;" horiz-adv-x="1148" d="M121 492v178h899v-410h-191v232h-708z" />
<glyph unicode="&#xad;" horiz-adv-x="821" d="M63 489v179h695v-179h-695z" />
<glyph unicode="&#xae;" horiz-adv-x="1189" d="M-8 1196q0 122 48 233.5t128.5 192.5t192.5 128.5t235 47.5q122 0 233.5 -47.5t192.5 -128.5t128.5 -192.5t47.5 -233.5t-48 -234t-128.5 -193t-192 -129t-233.5 -48q-123 0 -235 48t-192.5 129t-128.5 193t-48 234zM106 1196q0 -100 39 -191t104.5 -156.5t156 -104.5 t190.5 -39q132 0 244 65.5t177.5 178.5t65.5 247q0 202 -143 346t-344 144q-202 0 -346 -144t-144 -346zM344 907v66l74 12v430l-72 10v66l2 4q23 0 69.5 -2t65.5 -2q15 0 60 2t65 2q100 0 164 -48.5t64 -121.5q0 -128 -125 -172q2 -3 13.5 -19t15.5 -22t15.5 -21t17.5 -22 t17.5 -20t19 -19.5t19 -15.5t20.5 -13.5t20 -8.5t22 -5h4v-72q-21 -8 -76 -8q-64 0 -111 52.5t-94 158.5h-82v-131l80 -12v-68h-268zM532 1202l38 -3q37 -3 53 -3q27 2 54.5 32t27.5 77q0 40 -29 67t-78 27q-15 0 -36.5 -1t-29.5 -1v-195z" />
<glyph unicode="&#xaf;" horiz-adv-x="987" d="M193 1284v164h604v-164h-604z" />
<glyph unicode="&#xb0;" horiz-adv-x="952" d="M152 1296q0 136 94.5 229t230.5 93q133 0 227.5 -93.5t94.5 -228.5q0 -133 -94.5 -226t-227.5 -93q-135 0 -230 93t-95 226zM313 1296q0 -68 48.5 -115.5t115.5 -47.5t114.5 47.5t47.5 115.5q0 69 -48 118.5t-114 49.5t-115 -49.5t-49 -118.5z" />
<glyph unicode="&#xb1;" horiz-adv-x="1220" d="M123 692v152h401v362h166v-362h408v-152h-408v-299h-166v299h-401zM135 104v152h948v-152h-948z" />
<glyph unicode="&#xb2;" horiz-adv-x="684" d="M70 1432l11.5 11.5t34 26t56.5 33t77 26t97 11.5q102 0 171 -62.5t69 -164.5q0 -53 -17.5 -99.5t-51 -83t-63.5 -60.5t-73 -52q-14 -10 -54.5 -35.5t-54.5 -36.5l336 4v-149h-526l-6 125q72 77 172 155q97 79 124 110q42 50 42 101q0 45 -29 69.5t-74 24.5 q-84 0 -190 -69z" />
<glyph unicode="&#xb3;" horiz-adv-x="653" d="M53 707l21 145h11q11 -1 27.5 -2t35 -2t38 -1.5t33.5 -0.5q40 0 80.5 12.5t72 40t31.5 64.5q0 57 -45.5 78.5t-140.5 21.5h-41l-6 129q92 6 151.5 40t59.5 89q0 35 -26 58.5t-74 23.5q-78 0 -187 -33l-37 119q3 3 10.5 8.5t29.5 17t49 20.5t70 16.5t91 7.5 q111 0 179.5 -59.5t68.5 -151.5q0 -70 -36 -121.5t-89 -69.5v-2q61 -12 105.5 -65t44.5 -117q0 -123 -106 -205t-251 -82q-28 0 -55.5 2t-47 5t-35 6.5t-23.5 5.5z" />
<glyph unicode="&#xb4;" horiz-adv-x="1159" d="M424 1292l391 332l139 -180l-411 -285z" />
<glyph unicode="&#xb6;" horiz-adv-x="1056" d="M-84 702q0 148 74.5 268t202.5 187.5t282 67.5h23q279 0 463 14q24 -141 24 -143q-80 -29 -166 -39v-1387h-178v1395h-160v-870q-2 0 -6 -1t-6 -1q-238 3 -395.5 148.5t-157.5 360.5z" />
<glyph unicode="&#xb7;" horiz-adv-x="630" d="M154 588q0 72 48.5 118t114.5 46q64 0 111 -45t47 -119t-47 -119t-111 -45q-66 0 -114.5 45t-48.5 119z" />
<glyph unicode="&#xb8;" horiz-adv-x="1097" d="M395 -377q24 4 52 12t61.5 22t55.5 37.5t22 51.5q0 33 -28.5 56.5t-70.5 23.5l-6 4l66 207l131 -25l-41 -133l6 -2q46 0 88.5 -43.5t42.5 -97.5q0 -52 -35.5 -94t-92 -67.5t-117.5 -40t-121 -17.5z" />
<glyph unicode="&#xb9;" horiz-adv-x="598" d="M57 801v112l185 19v356q-47 -2 -179 -2v109q68 4 110 13t67 34q25 20 43 94h133v-604l162 -17v-114h-521z" />
<glyph unicode="&#xba;" horiz-adv-x="761" d="M82 786q0 147 88.5 235.5t210.5 88.5t210.5 -88.5t88.5 -235.5q0 -149 -88.5 -238t-210.5 -89t-210.5 89t-88.5 238zM240 786q0 -87 39 -140.5t102 -53.5q62 0 101.5 53.5t39.5 140.5t-39.5 139t-101.5 52q-63 0 -102 -52.5t-39 -138.5z" />
<glyph unicode="&#xbb;" horiz-adv-x="1153" d="M115 213l315 360l-315 363l88 100l407 -418v-86l-407 -411zM541 213l313 360l-313 363l88 100l407 -418v-86l-407 -411z" />
<glyph unicode="&#xbc;" horiz-adv-x="1785" d="M150 696v113l184 18v357q-47 -2 -178 -2v108q68 4 109.5 13t66.5 34q25 20 43 95h133v-605l162 -16v-115h-520zM260 -53l1147 1480l117 -79l-1147 -1483zM977 190l348 584l121 -88l-303 -514q144 4 217 4v199h166v-197l139 4v-129l-139 -2v-143h-166v141l-328 -4z" />
<glyph unicode="&#xbd;" horiz-adv-x="1806" d="M150 692v113l184 18v357q-47 -2 -178 -2v108q68 4 109.5 13t66.5 34q25 20 43 94h133v-604l162 -16v-115h-520zM260 -49l1147 1481l117 -80l-1147 -1483zM1120 631q4 4 12 11.5t34.5 26t56 33t77 26t97.5 11.5q102 0 170.5 -62.5t68.5 -164.5q0 -53 -17.5 -99.5 t-50.5 -83t-63 -60.5t-73 -52q-14 -10 -54.5 -35.5t-54.5 -36.5l336 5v-150h-526l-7 125q75 80 172 156q97 79 124 110q42 50 42 101q0 45 -28.5 69.5t-73.5 24.5q-83 0 -191 -70z" />
<glyph unicode="&#xbe;" horiz-adv-x="1785" d="M170 610l20 146h11q11 -1 27.5 -2t35.5 -2t38.5 -1.5t33.5 -0.5q40 0 80.5 12t72 39.5t31.5 64.5q0 57 -45.5 79t-140.5 22h-41l-6 129q92 6 151.5 40t59.5 89q0 35 -26.5 58.5t-74.5 23.5q-77 0 -186 -33l-37 119q7 7 27 19.5t83.5 31t139.5 18.5q111 0 179.5 -59.5 t68.5 -151.5q0 -70 -36 -121t-89 -69v-2q61 -12 105 -65t44 -117q0 -123 -105.5 -205t-250.5 -82q-28 0 -55.5 2t-47 5t-35 6t-24.5 5zM258 -53l1147 1480l117 -79l-1147 -1483zM977 190l348 584l121 -88l-303 -514q144 4 217 4v199h166v-197l139 4v-129l-139 -2v-143h-166 v141l-328 -4z" />
<glyph unicode="&#xbf;" horiz-adv-x="980" d="M27 -68q0 159 104 256q34 34 124 98.5t136 110.5q64 64 64 144h168q11 -159 -82 -252q-35 -36 -110.5 -89t-102.5 -79q-38 -40 -57 -77.5t-19 -88.5q0 -103 62.5 -159t158.5 -56q116 0 209 29l2 2l2 229l135 18l15 -10l43 -307l-60 -29q-55 -41 -155.5 -72.5 t-200.5 -31.5q-192 0 -314 99t-122 265zM358 872q0 74 47 119t113 45t115 -45.5t49 -118.5q0 -72 -49 -117.5t-115 -45.5t-113 44.5t-47 118.5z" />
<glyph unicode="&#xc0;" horiz-adv-x="1466" d="M23 0v121l151 31l436 1247l219 2l469 -1245l150 -31v-125h-569v121l178 33l-88 233h-527l-75 -231l194 -31v-125h-538zM358 1690l111 217l469 -283l-84 -147zM502 567h399l-211 568z" />
<glyph unicode="&#xc1;" horiz-adv-x="1466" d="M23 0v121l151 31l436 1247l219 2l469 -1245l150 -31v-125h-569v121l178 33l-88 233h-527l-75 -231l194 -31v-125h-538zM475 1571l420 336l133 -205l-469 -252zM502 567h399l-211 568z" />
<glyph unicode="&#xc2;" horiz-adv-x="1466" d="M23 0v121l151 31l436 1247l219 2l469 -1245l150 -31v-125h-569v121l178 33l-88 233h-527l-75 -231l194 -31v-125h-538zM367 1538l288 330h127l295 -326l-104 -92l-254 219l-248 -219zM502 567h399l-211 568z" />
<glyph unicode="&#xc3;" horiz-adv-x="1466" d="M23 0v121l151 31l436 1247l219 2l469 -1245l150 -31v-125h-569v121l178 33l-88 233h-527l-75 -231l194 -31v-125h-538zM311 1550q32 117 110.5 196t190.5 79q40 0 83 -21t74 -45.5t67.5 -45.5t64.5 -21q40 0 68.5 16.5t44 39t39.5 69.5h6l98 -50q-24 -113 -105 -191.5 t-180 -78.5q-43 0 -89 20.5t-79 45t-71 45t-66 20.5q-13 0 -24 -2t-19.5 -3t-17.5 -7t-14.5 -8t-14 -12.5t-12 -13t-12.5 -17t-11 -17.5t-13 -21t-13 -22h-6zM502 567h399l-211 568z" />
<glyph unicode="&#xc4;" horiz-adv-x="1466" d="M23 0v121l151 31l436 1247l219 2l469 -1245l150 -31v-125h-569v121l178 33l-88 233h-527l-75 -231l194 -31v-125h-538zM362 1694q0 62 43.5 101.5t102.5 39.5q56 0 96.5 -39.5t40.5 -101.5q0 -65 -40.5 -104.5t-96.5 -39.5q-59 0 -102.5 40t-43.5 104zM502 567h399 l-211 568zM823 1694q0 62 42.5 101.5t99.5 39.5q59 0 100 -39t41 -102q0 -65 -41 -104.5t-100 -39.5q-57 0 -99.5 40.5t-42.5 103.5z" />
<glyph unicode="&#xc5;" horiz-adv-x="1466" d="M23 0v121l151 31l436 1247l219 2l469 -1245l150 -31v-125h-569v121l178 33l-88 233h-527l-75 -231l194 -31v-125h-538zM498 1669q0 100 68.5 169t168.5 69q97 0 166.5 -69.5t69.5 -168.5q0 -98 -69.5 -166.5t-166.5 -68.5q-100 0 -168.5 68.5t-68.5 166.5zM502 567h399 l-211 568zM635 1669q0 -41 29.5 -70.5t70.5 -29.5q40 0 68 29.5t28 70.5q0 42 -28.5 72.5t-67.5 30.5q-41 0 -70.5 -30.5t-29.5 -72.5z" />
<glyph unicode="&#xc6;" horiz-adv-x="1830" d="M-82 0v121l154 31l604 1056l-150 25v147h1186l19 -344l-9 -14l-141 -10l-63 205l-428 -5v-430l282 4l29 123h135l10 -12l-4 -416l-131 -18l-14 12l-19 143l-288 -4v-415l485 -13l70 187l139 -19l4 -10l-72 -344h-1011v121l157 31v202h-483l-115 -198l193 -31v-125h-539z M483 535h379v698h-2l-24 -88z" />
<glyph unicode="&#xc7;" horiz-adv-x="1314" d="M84 692q0 166 53 305t144.5 231.5t213 143.5t259.5 51q199 0 338 -34l137 -39l18 -25q-49 -364 -53 -364l-150 -13l-22 10l-25 259l-2 2q-106 24 -166 24q-79 0 -149.5 -18.5t-134.5 -60.5t-110 -104.5t-73.5 -156.5t-27.5 -211q0 -129 42 -233t112 -168t156 -97.5 t179 -33.5q198 0 359 90l14 -2l57 -162q-178 -114 -399 -123l-27 -84l7 -2q52 0 98.5 -43.5t46.5 -97.5q0 -56 -37 -101t-96 -71.5t-122 -41.5t-126 -18l-12 119q24 4 52 12t61.5 22t55 37.5t21.5 51.5q0 33 -28 56.5t-70 23.5l-6 4l43 139q-133 16 -247 70.5t-200 144 t-135 220.5t-49 288z" />
<glyph unicode="&#xc8;" horiz-adv-x="1253" d="M106 0v121l160 31v1081l-160 27v120h1022l19 -344l-8 -14l-142 -10l-61 205l-442 -5v-430l299 4l28 123h135l11 -12l-4 -416l-132 -18l-14 12l-16 143l-307 -4v-415l499 -13l70 187l139 -19l4 -10l-71 -344h-1029zM285 1690l110 217l469 -283l-84 -147z" />
<glyph unicode="&#xc9;" horiz-adv-x="1253" d="M106 0v121l160 31v1081l-160 27v120h1022l19 -344l-8 -14l-142 -10l-61 205l-442 -5v-430l299 4l28 123h135l11 -12l-4 -416l-132 -18l-14 12l-16 143l-307 -4v-415l499 -13l70 187l139 -19l4 -10l-71 -344h-1029zM473 1571l420 336l133 -205l-469 -252z" />
<glyph unicode="&#xca;" horiz-adv-x="1253" d="M106 0v121l160 31v1081l-160 27v120h1022l19 -344l-8 -14l-142 -10l-61 205l-442 -5v-430l299 4l28 123h135l11 -12l-4 -416l-132 -18l-14 12l-16 143l-307 -4v-415l499 -13l70 187l139 -19l4 -10l-71 -344h-1029zM346 1536l289 330h127l295 -326l-105 -92l-254 219 l-247 -219z" />
<glyph unicode="&#xcb;" horiz-adv-x="1253" d="M106 0v121l160 31v1081l-160 27v120h1022l19 -344l-8 -14l-142 -10l-61 205l-442 -5v-430l299 4l28 123h135l11 -12l-4 -416l-132 -18l-14 12l-16 143l-307 -4v-415l499 -13l70 187l139 -19l4 -10l-71 -344h-1029zM303 1698q0 62 43.5 101.5t102.5 39.5q56 0 96.5 -39.5 t40.5 -101.5q0 -65 -40.5 -104.5t-96.5 -39.5q-59 0 -102.5 40t-43.5 104zM764 1698q0 62 42 101.5t99 39.5q59 0 100.5 -39t41.5 -102q0 -65 -41.5 -104.5t-100.5 -39.5q-57 0 -99 40t-42 104z" />
<glyph unicode="&#xcc;" horiz-adv-x="759" d="M20 1690l111 217l469 -283l-84 -147zM106 0v121l160 31v1081l-160 27v120h545v-120l-157 -29v-1075l159 -31v-125h-547z" />
<glyph unicode="&#xcd;" horiz-adv-x="759" d="M106 0v121l160 31v1081l-160 27v120h545v-120l-157 -29v-1075l159 -31v-125h-547zM238 1571l419 336l134 -205l-469 -252z" />
<glyph unicode="&#xce;" horiz-adv-x="759" d="M25 1536l288 330h127l295 -326l-104 -92l-254 219l-248 -219zM106 0v121l160 31v1081l-160 27v120h545v-120l-157 -29v-1075l159 -31v-125h-547z" />
<glyph unicode="&#xcf;" horiz-adv-x="759" d="M6 1698q0 62 43.5 101.5t102.5 39.5q56 0 96.5 -39.5t40.5 -101.5q0 -65 -40.5 -104.5t-96.5 -39.5q-59 0 -102.5 40t-43.5 104zM106 0v121l160 31v1081l-160 27v120h545v-120l-157 -29v-1075l159 -31v-125h-547zM467 1698q0 62 42 101.5t99 39.5q59 0 100.5 -39 t41.5 -102q0 -65 -41.5 -104.5t-100.5 -39.5q-57 0 -99 40t-42 104z" />
<glyph unicode="&#xd0;" horiz-adv-x="1492" d="M61 578v153h205v500l-160 24v121l9 6q54 0 154 -3t137 -3q45 0 175.5 4t186.5 4q143 0 265 -56t204 -150t128 -218.5t46 -261.5q0 -144 -52.5 -272t-145.5 -222t-228.5 -149t-292.5 -55h-586v121l160 31v426h-205zM494 190q141 -12 190 -12q224 0 351.5 141.5 t127.5 376.5q0 75 -15 145.5t-48.5 135t-83 112.5t-123.5 76.5t-164 28.5q-53 0 -131.5 -1t-103.5 -1v-461h245v-153h-245v-388z" />
<glyph unicode="&#xd1;" horiz-adv-x="1609" d="M100 0v121l170 31l-4 1081l-162 27v120h390l673 -960l-12 813l-164 27v120h529v-120l-160 -29v-1247l-174 -4l-721 1056l-2 -10l14 -870l180 -31v-125h-557zM428 1667q32 117 110.5 196t190.5 79q40 0 83 -21t74 -46t67.5 -46t64.5 -21q58 0 86.5 27.5t64.5 97.5h7 l98 -49q-24 -113 -105 -191.5t-180 -78.5q-43 0 -89 20.5t-79 45t-71 45t-66 20.5q-29 0 -49 -6t-37.5 -23.5t-27.5 -31.5t-29 -47l-9 -15h-6z" />
<glyph unicode="&#xd2;" horiz-adv-x="1538" d="M84 690q0 173 54.5 313.5t148 231t217.5 139.5t266 49t266 -49t218 -139.5t148 -231t54 -313.5t-54 -313.5t-148 -231t-218 -139.5t-266 -49t-266 49t-217.5 139.5t-148 231t-54.5 313.5zM336 690q0 -133 37 -239t99.5 -170t138.5 -97.5t159 -33.5t159 33.5t138.5 97.5 t99.5 170t37 239q0 111 -24.5 202.5t-66 153t-98 104t-118 62t-127.5 19.5t-127.5 -19.5t-118 -62t-98 -104t-66 -153t-24.5 -202.5zM428 1722l111 217l469 -282l-84 -148z" />
<glyph unicode="&#xd3;" horiz-adv-x="1538" d="M84 690q0 173 54.5 313.5t148 231t217.5 139.5t266 49t266 -49t218 -139.5t148 -231t54 -313.5t-54 -313.5t-148 -231t-218 -139.5t-266 -49t-266 49t-217.5 139.5t-148 231t-54.5 313.5zM336 690q0 -133 37 -239t99.5 -170t138.5 -97.5t159 -33.5t159 33.5t138.5 97.5 t99.5 170t37 239q0 111 -24.5 202.5t-66 153t-98 104t-118 62t-127.5 19.5t-127.5 -19.5t-118 -62t-98 -104t-66 -153t-24.5 -202.5zM612 1622l420 336l133 -205l-469 -252z" />
<glyph unicode="&#xd4;" horiz-adv-x="1538" d="M84 690q0 173 54.5 313.5t148 231t217.5 139.5t266 49t266 -49t218 -139.5t148 -231t54 -313.5t-54 -313.5t-148 -231t-218 -139.5t-266 -49t-266 49t-217.5 139.5t-148 231t-54.5 313.5zM336 690q0 -133 37 -239t99.5 -170t138.5 -97.5t159 -33.5t159 33.5t138.5 97.5 t99.5 170t37 239q0 111 -24.5 202.5t-66 153t-98 104t-118 62t-127.5 19.5t-127.5 -19.5t-118 -62t-98 -104t-66 -153t-24.5 -202.5zM416 1569l289 329h126l295 -325l-104 -92l-254 219l-248 -219z" />
<glyph unicode="&#xd5;" horiz-adv-x="1538" d="M84 690q0 173 54.5 313.5t148 231t217.5 139.5t266 49t266 -49t218 -139.5t148 -231t54 -313.5t-54 -313.5t-148 -231t-218 -139.5t-266 -49t-266 49t-217.5 139.5t-148 231t-54.5 313.5zM336 690q0 -133 37 -239t99.5 -170t138.5 -97.5t159 -33.5t159 33.5t138.5 97.5 t99.5 170t37 239q0 111 -24.5 202.5t-66 153t-98 104t-118 62t-127.5 19.5t-127.5 -19.5t-118 -62t-98 -104t-66 -153t-24.5 -202.5zM346 1667q32 117 110.5 196t190.5 79q40 0 83 -21t74 -46t67.5 -46t64.5 -21q58 0 86.5 27.5t64.5 97.5h7l98 -49q-24 -113 -105 -191.5 t-180 -78.5q-43 0 -89 20.5t-79 45t-71 45t-66 20.5q-13 0 -24 -2t-19.5 -3t-17.5 -7t-14.5 -8t-14 -12.5t-12 -13t-12.5 -17t-11 -17.5t-13 -21t-13 -22h-7z" />
<glyph unicode="&#xd6;" horiz-adv-x="1538" d="M84 690q0 173 54.5 313.5t148 231t217.5 139.5t266 49t266 -49t218 -139.5t148 -231t54 -313.5t-54 -313.5t-148 -231t-218 -139.5t-266 -49t-266 49t-217.5 139.5t-148 231t-54.5 313.5zM336 690q0 -133 37 -239t99.5 -170t138.5 -97.5t159 -33.5t159 33.5t138.5 97.5 t99.5 170t37 239q0 111 -24.5 202.5t-66 153t-98 104t-118 62t-127.5 19.5t-127.5 -19.5t-118 -62t-98 -104t-66 -153t-24.5 -202.5zM397 1698q0 62 43.5 101.5t102.5 39.5q56 0 96.5 -39.5t40.5 -101.5q0 -65 -40.5 -104.5t-96.5 -39.5q-59 0 -102.5 40t-43.5 104z M858 1698q0 62 42 101.5t99 39.5q59 0 100.5 -39t41.5 -102q0 -65 -41.5 -104.5t-100.5 -39.5q-57 0 -99 40t-42 104z" />
<glyph unicode="&#xd7;" horiz-adv-x="968" d="M63 223l324 348l-317 338l118 121l301 -336l299 344l109 -114l-311 -340l332 -355l-123 -123l-316 355l-303 -350z" />
<glyph unicode="&#xd8;" horiz-adv-x="1538" d="M84 690q0 173 54.5 313.5t148 231t217.5 139.5t266 49q153 0 281 -55l94 172l149 -76l-98 -180q122 -94 191 -245.5t69 -348.5q0 -173 -54 -313.5t-148 -231t-218 -139.5t-266 -49q-144 0 -274 51l-93 -170l-151 74l96 180q-124 96 -194 247.5t-70 350.5zM336 690 q0 -259 131 -403l477 905q-86 39 -174 39q-66 0 -127.5 -19.5t-118 -62t-98 -104t-66 -153t-24.5 -202.5zM602 186q76 -36 168 -36q83 0 159 33.5t138.5 97.5t99.5 170t37 239q0 251 -123 397z" />
<glyph unicode="&#xd9;" horiz-adv-x="1521" d="M66 1260v120h532v-120l-147 -29v-621q0 -454 331 -454q169 0 241.5 117t72.5 331v629l-166 27v120h524v-120l-156 -29v-709q0 -122 -34 -221t-87.5 -161t-124 -104t-139.5 -59.5t-137 -17.5q-71 0 -141 15.5t-146 58t-133.5 107.5t-95 174.5t-37.5 248.5v670zM410 1690 l110 217l469 -283l-84 -147z" />
<glyph unicode="&#xda;" horiz-adv-x="1521" d="M66 1260v120h532v-120l-147 -29v-621q0 -454 331 -454q169 0 241.5 117t72.5 331v629l-166 27v120h524v-120l-156 -29v-709q0 -122 -34 -221t-87.5 -161t-124 -104t-139.5 -59.5t-137 -17.5q-71 0 -141 15.5t-146 58t-133.5 107.5t-95 174.5t-37.5 248.5v670zM649 1571 l420 336l133 -205l-469 -252z" />
<glyph unicode="&#xdb;" horiz-adv-x="1521" d="M66 1260v120h532v-120l-147 -29v-621q0 -454 331 -454q169 0 241.5 117t72.5 331v629l-166 27v120h524v-120l-156 -29v-709q0 -122 -34 -221t-87.5 -161t-124 -104t-139.5 -59.5t-137 -17.5q-71 0 -141 15.5t-146 58t-133.5 107.5t-95 174.5t-37.5 248.5v670zM438 1536 l289 330h127l295 -326l-105 -92l-253 219l-248 -219z" />
<glyph unicode="&#xdc;" horiz-adv-x="1521" d="M66 1260v120h532v-120l-147 -29v-621q0 -454 331 -454q169 0 241.5 117t72.5 331v629l-166 27v120h524v-120l-156 -29v-709q0 -122 -34 -221t-87.5 -161t-124 -104t-139.5 -59.5t-137 -17.5q-71 0 -141 15.5t-146 58t-133.5 107.5t-95 174.5t-37.5 248.5v670zM389 1698 q0 62 43.5 101.5t102.5 39.5q56 0 96.5 -39.5t40.5 -101.5q0 -65 -40.5 -104.5t-96.5 -39.5q-59 0 -102.5 40t-43.5 104zM850 1698q0 62 42 101.5t99 39.5q59 0 100.5 -39t41.5 -102q0 -65 -41.5 -104.5t-100.5 -39.5q-57 0 -99 40t-42 104z" />
<glyph unicode="&#xdd;" horiz-adv-x="1343" d="M2 1260v120h551v-120l-152 -29l291 -549l312 551l-164 27v120h510v-120l-150 -29l-412 -676v-399l164 -31v-125h-551v121l160 31v403l-418 678zM610 1571l420 336l133 -205l-469 -252z" />
<glyph unicode="&#xde;" horiz-adv-x="1323" d="M106 0v121l160 31v1081l-160 27v120h553v-120l-165 -29v-119q230 10 294 10q115 -1 209 -35.5t155 -94t93.5 -138.5t32.5 -170q0 -186 -132.5 -303t-334.5 -117q-133 0 -317 15v-123l186 -31v-125h-574zM494 436q104 -8 254 -8q124 2 203 73t79 191q0 110 -72.5 182 t-218.5 72q-44 0 -128.5 -2t-112.5 -2h-4v-506z" />
<glyph unicode="&#xdf;" horiz-adv-x="1310" d="M66 842v133l157 33v6q0 120 27 217t73 161t110 107.5t135 62.5t151 19q83 0 152.5 -32.5t111.5 -83t65 -107t23 -109.5q0 -54 -13.5 -100t-26 -67t-38.5 -56q-25 -31 -36 -46.5t-23 -48t-12 -69.5q0 -60 77 -147q17 -20 59 -67.5t65.5 -78t52.5 -76t43 -92.5t14 -98 q0 -83 -35 -149t-91.5 -105t-121 -59.5t-129.5 -20.5q-97 0 -143 25l4 149q18 2 49 2q131 0 189.5 41.5t58.5 110.5q0 75 -62 147q-22 28 -75 80.5t-85.5 89.5t-61 100t-28.5 132q0 42 8 76t26.5 63.5t29.5 43.5t37 42q29 29 43.5 46.5t27.5 50t13 71.5q0 70 -53 118 t-134 48q-119 0 -187.5 -98.5t-68.5 -280.5v-874l154 -31v-121h-520v121l155 31v690h-167z" />
<glyph unicode="&#xe0;" horiz-adv-x="1040" d="M57 242q0 66 25.5 121t71 92t102 65t124 43.5t131 23.5t128.5 9v12q0 67 -7 110.5t-18.5 70t-37 39.5t-52 16.5t-73.5 3.5q-61 0 -133.5 -12t-115.5 -24l-42 -11l-47 149q196 84 419 84q64 0 115.5 -15t85 -38.5t58 -58.5t37 -66.5t20 -72.5t9 -68t1.5 -60v-385 q0 -100 70 -100q32 0 69 18l45 -108q-124 -107 -219 -107q-43 1 -74 16.5t-46.5 40t-22.5 46t-8 41.5v16q-34 -60 -116.5 -111t-170.5 -51q-86 0 -152.5 26t-103 67.5t-54.5 87t-18 90.5zM213 1405l131 207l399 -305l-92 -142zM266 262q0 -51 41 -80.5t107 -29.5 q65 0 135.5 37.5t91.5 68.5v188q-180 0 -277.5 -49.5t-97.5 -134.5z" />
<glyph unicode="&#xe1;" horiz-adv-x="1040" d="M57 242q0 66 25.5 121t71 92t102 65t124 43.5t131 23.5t128.5 9v12q0 67 -7 110.5t-18.5 70t-37 39.5t-52 16.5t-73.5 3.5q-61 0 -133.5 -12t-115.5 -24l-42 -11l-47 149q196 84 419 84q64 0 115.5 -15t85 -38.5t58 -58.5t37 -66.5t20 -72.5t9 -68t1.5 -60v-385 q0 -100 70 -100q32 0 69 18l45 -108q-124 -107 -219 -107q-43 1 -74 16.5t-46.5 40t-22.5 46t-8 41.5v16q-34 -60 -116.5 -111t-170.5 -51q-86 0 -152.5 26t-103 67.5t-54.5 87t-18 90.5zM266 262q0 -51 41 -80.5t107 -29.5q65 0 135.5 37.5t91.5 68.5v188 q-180 0 -277.5 -49.5t-97.5 -134.5zM303 1292l391 332l140 -180l-412 -285z" />
<glyph unicode="&#xe2;" horiz-adv-x="1040" d="M57 242q0 66 25.5 121t71 92t102 65t124 43.5t131 23.5t128.5 9v12q0 67 -7 110.5t-18.5 70t-37 39.5t-52 16.5t-73.5 3.5q-61 0 -133.5 -12t-115.5 -24l-42 -11l-47 149q196 84 419 84q64 0 115.5 -15t85 -38.5t58 -58.5t37 -66.5t20 -72.5t9 -68t1.5 -60v-385 q0 -100 70 -100q32 0 69 18l45 -108q-124 -107 -219 -107q-43 1 -74 16.5t-46.5 40t-22.5 46t-8 41.5v16q-34 -60 -116.5 -111t-170.5 -51q-86 0 -152.5 26t-103 67.5t-54.5 87t-18 90.5zM154 1214l274 353h127l283 -348l-125 -91l-221 240l-220 -240zM266 262 q0 -51 41 -80.5t107 -29.5q65 0 135.5 37.5t91.5 68.5v188q-180 0 -277.5 -49.5t-97.5 -134.5z" />
<glyph unicode="&#xe3;" horiz-adv-x="1040" d="M57 242q0 66 25.5 121t71 92t102 65t124 43.5t131 23.5t128.5 9v12q0 67 -7 110.5t-18.5 70t-37 39.5t-52 16.5t-73.5 3.5q-61 0 -133.5 -12t-115.5 -24l-42 -11l-47 149q196 84 419 84q64 0 115.5 -15t85 -38.5t58 -58.5t37 -66.5t20 -72.5t9 -68t1.5 -60v-385 q0 -100 70 -100q32 0 69 18l45 -108q-124 -107 -219 -107q-43 1 -74 16.5t-46.5 40t-22.5 46t-8 41.5v16q-34 -60 -116.5 -111t-170.5 -51q-86 0 -152.5 26t-103 67.5t-54.5 87t-18 90.5zM82 1307q32 117 110.5 195.5t190.5 78.5q40 0 83 -21t74 -45.5t67.5 -45.5t64.5 -21 q58 0 86.5 27.5t64.5 97.5h6l99 -49q-24 -113 -105 -192t-180 -79q-43 0 -89 20.5t-79 45t-71 45t-66 20.5q-54 0 -81 -23.5t-63 -84.5q-5 -9 -8 -14h-6zM266 262q0 -51 41 -80.5t107 -29.5q65 0 135.5 37.5t91.5 68.5v188q-180 0 -277.5 -49.5t-97.5 -134.5z" />
<glyph unicode="&#xe4;" horiz-adv-x="1040" d="M57 242q0 66 25.5 121t71 92t102 65t124 43.5t131 23.5t128.5 9v12q0 67 -7 110.5t-18.5 70t-37 39.5t-52 16.5t-73.5 3.5q-61 0 -133.5 -12t-115.5 -24l-42 -11l-47 149q196 84 419 84q64 0 115.5 -15t85 -38.5t58 -58.5t37 -66.5t20 -72.5t9 -68t1.5 -60v-385 q0 -100 70 -100q32 0 69 18l45 -108q-124 -107 -219 -107q-43 1 -74 16.5t-46.5 40t-22.5 46t-8 41.5v16q-34 -60 -116.5 -111t-170.5 -51q-86 0 -152.5 26t-103 67.5t-54.5 87t-18 90.5zM125 1423q0 63 43 102.5t102 39.5q56 0 97 -40t41 -102q0 -65 -40.5 -104t-97.5 -39 q-59 0 -102 39.5t-43 103.5zM266 262q0 -51 41 -80.5t107 -29.5q65 0 135.5 37.5t91.5 68.5v188q-180 0 -277.5 -49.5t-97.5 -134.5zM586 1423q0 62 42.5 102t98.5 40q59 0 100 -39.5t41 -102.5q0 -65 -41 -104t-100 -39q-57 0 -99 40t-42 103z" />
<glyph unicode="&#xe5;" horiz-adv-x="1040" d="M57 242q0 66 25.5 121t71 92t102 65t124 43.5t131 23.5t128.5 9v12q0 67 -7 110.5t-18.5 70t-37 39.5t-52 16.5t-73.5 3.5q-61 0 -133.5 -12t-115.5 -24l-42 -11l-47 149q196 84 419 84q64 0 115.5 -15t85 -38.5t58 -58.5t37 -66.5t20 -72.5t9 -68t1.5 -60v-385 q0 -100 70 -100q32 0 69 18l45 -108q-124 -107 -219 -107q-43 1 -74 16.5t-46.5 40t-22.5 46t-8 41.5v16q-34 -60 -116.5 -111t-170.5 -51q-86 0 -152.5 26t-103 67.5t-54.5 87t-18 90.5zM266 262q0 -51 41 -80.5t107 -29.5q65 0 135.5 37.5t91.5 68.5v188 q-180 0 -277.5 -49.5t-97.5 -134.5zM285 1401q0 100 68.5 168.5t168.5 68.5q97 0 166.5 -69t69.5 -168q0 -98 -69.5 -167t-166.5 -69q-100 0 -168.5 68.5t-68.5 167.5zM422 1401q0 -41 29.5 -71t70.5 -30q40 0 68 30t28 71t-28 71.5t-68 30.5q-41 0 -70.5 -30.5t-29.5 -71.5 z" />
<glyph unicode="&#xe6;" horiz-adv-x="1644" d="M57 279q0 156 152.5 246.5t452.5 90.5q0 55 -4.5 93.5t-17 64.5t-26.5 41t-41.5 22t-52.5 9t-69 2q-61 0 -133.5 -12t-115.5 -24l-42 -11l-47 149l18 9t53 20.5t86 25.5t116.5 20t145.5 9q201 0 263 -180h4q113 182 338 182q81 0 148 -22t112.5 -58.5t77 -84t45.5 -98 t14 -101.5q0 -44 -2.5 -90t-5 -74t-2.5 -29h-650v-4q0 -43 8.5 -84t32 -84t59 -74.5t95 -52t135.5 -20.5q81 0 146 28.5t100 65.5h4l86 -125q-107 -147 -377 -147q-105 0 -208.5 40t-176.5 125q-73 -52 -122.5 -81t-126.5 -53.5t-158 -24.5q-71 0 -127.5 19t-90.5 49 t-56.5 69.5t-31 77t-8.5 76.5zM266 291q0 -54 39 -85.5t105 -31.5q69 0 152 28.5t145 63.5q-9 29 -18 90.5t-9 110.5q-194 -6 -304 -50.5t-110 -125.5zM877 618h456q0 9 1 28.5t1 29.5q0 96 -53 147q-54 45 -133 45q-128 0 -195 -69.5t-77 -180.5z" />
<glyph unicode="&#xe7;" horiz-adv-x="991" d="M61 524q0 144 61.5 259t184.5 184t289 69q209 0 334 -75l-31 -308l-168 -12l-18 205q-62 16 -113 16q-162 0 -240.5 -91.5t-78.5 -246.5q0 -175 89 -273.5t248 -98.5q131 0 273 84l55 -119q-120 -120 -280 -140l-29 -98l6 -2q46 0 88.5 -43.5t42.5 -97.5q0 -52 -35.5 -94 t-92 -67.5t-117.5 -40t-121 -17.5l-13 106q24 4 52 12t61.5 22t55.5 37.5t22 51.5q0 33 -28.5 56.5t-70.5 23.5l-6 4l45 147q-216 20 -340.5 170t-124.5 377z" />
<glyph unicode="&#xe8;" horiz-adv-x="1054" d="M63 522q0 77 15.5 148.5t52 139t91 117t138 79.5t187.5 30q193 0 297 -110t104 -281q0 -79 -10 -166h-653v-2q0 -42 8 -82t29.5 -84t55 -76.5t90.5 -53.5t130 -21q48 0 93 9.5t74.5 22.5t53 27.5t34 23.5t11.5 11h6l84 -125q-58 -67 -159 -109.5t-232 -42.5 q-225 0 -362.5 149t-137.5 396zM217 1405l131 207l400 -305l-93 -142zM287 618h463v41q0 101 -58 162q-23 23 -64.5 36t-86.5 13q-109 0 -177 -71t-77 -181z" />
<glyph unicode="&#xe9;" horiz-adv-x="1054" d="M63 522q0 77 15.5 148.5t52 139t91 117t138 79.5t187.5 30q193 0 297 -110t104 -281q0 -79 -10 -166h-653v-2q0 -42 8 -82t29.5 -84t55 -76.5t90.5 -53.5t130 -21q48 0 93 9.5t74.5 22.5t53 27.5t34 23.5t11.5 11h6l84 -125q-58 -67 -159 -109.5t-232 -42.5 q-225 0 -362.5 149t-137.5 396zM287 618h463v41q0 101 -58 162q-23 23 -64.5 36t-86.5 13q-109 0 -177 -71t-77 -181zM356 1292l392 332l139 -180l-412 -285z" />
<glyph unicode="&#xea;" horiz-adv-x="1054" d="M63 522q0 77 15.5 148.5t52 139t91 117t138 79.5t187.5 30q193 0 297 -110t104 -281q0 -79 -10 -166h-653v-2q0 -42 8 -82t29.5 -84t55 -76.5t90.5 -53.5t130 -21q48 0 93 9.5t74.5 22.5t53 27.5t34 23.5t11.5 11h6l84 -125q-58 -67 -159 -109.5t-232 -42.5 q-225 0 -362.5 149t-137.5 396zM219 1214l275 353h127l282 -348l-125 -91l-221 240l-219 -240zM287 618h463v41q0 101 -58 162q-23 23 -64.5 36t-86.5 13q-109 0 -177 -71t-77 -181z" />
<glyph unicode="&#xeb;" horiz-adv-x="1054" d="M63 522q0 77 15.5 148.5t52 139t91 117t138 79.5t187.5 30q193 0 297 -110t104 -281q0 -79 -10 -166h-653v-2q0 -42 8 -82t29.5 -84t55 -76.5t90.5 -53.5t130 -21q48 0 93 9.5t74.5 22.5t53 27.5t34 23.5t11.5 11h6l84 -125q-58 -67 -159 -109.5t-232 -42.5 q-225 0 -362.5 149t-137.5 396zM195 1423q0 63 43 102.5t102 39.5q56 0 96.5 -39.5t40.5 -102.5q0 -65 -40 -104t-97 -39q-59 0 -102 39.5t-43 103.5zM287 618h463v41q0 101 -58 162q-23 23 -64.5 36t-86.5 13q-109 0 -177 -71t-77 -181zM655 1423q0 62 42.5 102t99.5 40 q59 0 100 -39.5t41 -102.5q0 -65 -41 -104t-100 -39q-57 0 -99.5 40t-42.5 103z" />
<glyph unicode="&#xec;" horiz-adv-x="647" d="M-2 1405l131 207l399 -305l-92 -142zM57 870v131l371 37v-882l174 -31v-125h-539v121l156 31v669z" />
<glyph unicode="&#xed;" horiz-adv-x="647" d="M72 870v131l370 37v-882l174 -31v-125h-538v121l155 31v669zM109 1292l391 332l139 -180l-412 -285z" />
<glyph unicode="&#xee;" horiz-adv-x="647" d="M-20 1214l274 353h127l283 -348l-125 -91l-222 240l-219 -240zM72 870v131l370 37v-882l174 -31v-125h-538v121l155 31v669z" />
<glyph unicode="&#xef;" horiz-adv-x="647" d="M-72 1423q0 62 43.5 102t102.5 40q56 0 96.5 -39.5t40.5 -102.5q0 -65 -40 -104t-97 -39q-59 0 -102.5 39.5t-43.5 103.5zM72 870v131l370 37v-882l174 -31v-125h-538v121l155 31v669zM389 1423q0 62 42.5 102t98.5 40q59 0 100.5 -39.5t41.5 -102.5q0 -65 -41.5 -104 t-100.5 -39q-57 0 -99 40t-42 103z" />
<glyph unicode="&#xf0;" horiz-adv-x="1124" d="M59 522q0 139 57 258t157 189.5t219 70.5q51 0 92.5 -14t72 -41t48 -49t38.5 -55l11 6q-62 154 -254 354l-211 -127l-86 131l176 92q-94 77 -203 148v6l193 88q16 -12 48 -35.5t49.5 -36.5t41 -32.5t41.5 -36.5l184 116l80 -137l-172 -86q340 -340 340 -745 q0 -165 -37 -286.5t-103.5 -191.5t-149.5 -102.5t-185 -32.5q-106 0 -193 46.5t-141 124t-83.5 175t-29.5 203.5zM279 522q0 -152 68 -249t190 -97q120 0 188 98.5t68 231.5q0 46 -17 151q-37 83 -102 133t-148 50q-51 0 -93 -19t-70 -50.5t-47.5 -73t-28 -85.5t-8.5 -90z " />
<glyph unicode="&#xf1;" horiz-adv-x="1243" d="M68 854v131l315 41l31 -182q22 27 33 39.5t47.5 46.5t68.5 52.5t81.5 35t100.5 16.5q174 0 250 -109t76 -321v-446l125 -27v-131h-473v133l139 25v446q0 110 -48.5 166.5t-139.5 56.5q-77 0 -130.5 -33.5t-103.5 -93.5v-544l140 -23v-133h-504v121l153 31v653zM242 1307 q32 117 110.5 195.5t190.5 78.5q40 0 83 -21t73.5 -45.5t67 -45.5t64.5 -21q40 0 68.5 16.5t44 39t39.5 69.5h6l98 -49q-24 -113 -104.5 -192t-179.5 -79q-43 0 -89 20.5t-79 45t-71 45t-66 20.5q-54 0 -81 -23.5t-63 -84.5q-5 -9 -8 -14h-6z" />
<glyph unicode="&#xf2;" d="M59 506q0 123 41 225.5t110 168t157 101t184 35.5q97 0 185 -35.5t156.5 -101.5t109 -168.5t40.5 -226.5t-40.5 -226.5t-109 -168.5t-156.5 -102t-185 -36q-96 0 -184 36t-157 102.5t-110 169.5t-41 227zM270 1405l131 207l400 -305l-92 -142zM291 506 q0 -157 71.5 -253.5t188.5 -96.5q118 0 190 95.5t72 252.5t-72 253.5t-190 96.5q-117 0 -188.5 -96t-71.5 -252z" />
<glyph unicode="&#xf3;" d="M59 506q0 123 41 225.5t110 168t157 101t184 35.5q97 0 185 -35.5t156.5 -101.5t109 -168.5t40.5 -226.5t-40.5 -226.5t-109 -168.5t-156.5 -102t-185 -36q-96 0 -184 36t-157 102.5t-110 169.5t-41 227zM291 506q0 -157 71.5 -253.5t188.5 -96.5q118 0 190 95.5 t72 252.5t-72 253.5t-190 96.5q-117 0 -188.5 -96t-71.5 -252zM426 1292l391 332l139 -180l-411 -285z" />
<glyph unicode="&#xf4;" d="M59 506q0 123 41 225.5t110 168t157 101t184 35.5q97 0 185 -35.5t156.5 -101.5t109 -168.5t40.5 -226.5t-40.5 -226.5t-109 -168.5t-156.5 -102t-185 -36q-96 0 -184 36t-157 102.5t-110 169.5t-41 227zM211 1214l274 353h127l283 -348l-125 -91l-221 240l-219 -240z M291 506q0 -157 71.5 -253.5t188.5 -96.5q118 0 190 95.5t72 252.5t-72 253.5t-190 96.5q-117 0 -188.5 -96t-71.5 -252z" />
<glyph unicode="&#xf5;" d="M59 506q0 123 41 225.5t110 168t157 101t184 35.5q97 0 185 -35.5t156.5 -101.5t109 -168.5t40.5 -226.5t-40.5 -226.5t-109 -168.5t-156.5 -102t-185 -36q-96 0 -184 36t-157 102.5t-110 169.5t-41 227zM119 1307q32 117 110.5 195.5t190.5 78.5q40 0 83 -21t74 -45.5 t67.5 -45.5t64.5 -21q58 0 86.5 27.5t64.5 97.5h6l99 -49q-24 -113 -105 -192t-180 -79q-43 0 -89 20.5t-79 45t-71 45t-66 20.5q-54 0 -81 -23.5t-63 -84.5q-5 -9 -8 -14h-6zM291 506q0 -157 71.5 -253.5t188.5 -96.5q118 0 190 95.5t72 252.5t-72 253.5t-190 96.5 q-117 0 -188.5 -96t-71.5 -252z" />
<glyph unicode="&#xf6;" d="M59 506q0 123 41 225.5t110 168t157 101t184 35.5q97 0 185 -35.5t156.5 -101.5t109 -168.5t40.5 -226.5t-40.5 -226.5t-109 -168.5t-156.5 -102t-185 -36q-96 0 -184 36t-157 102.5t-110 169.5t-41 227zM178 1423q0 62 43.5 102t102.5 40q56 0 96.5 -39.5t40.5 -102.5 q0 -65 -40 -104t-97 -39q-60 0 -103 39.5t-43 103.5zM291 506q0 -157 71.5 -253.5t188.5 -96.5q118 0 190 95.5t72 252.5t-72 253.5t-190 96.5q-117 0 -188.5 -96t-71.5 -252zM639 1423q0 62 42.5 102t98.5 40q59 0 100.5 -39.5t41.5 -102.5q0 -65 -41.5 -104t-100.5 -39 q-57 0 -99 40t-42 103z" />
<glyph unicode="&#xf7;" horiz-adv-x="1216" d="M133 506v151h948v-151h-948zM469 217q0 63 42 103t99 40q58 0 99 -39t41 -104q0 -62 -41 -99.5t-99 -37.5q-57 0 -99 37.5t-42 99.5zM469 936q0 63 42 103t99 40q58 0 99 -39t41 -104q0 -62 -41 -99.5t-99 -37.5q-57 0 -99 37.5t-42 99.5z" />
<glyph unicode="&#xf8;" d="M59 506q0 123 41 225.5t110 168t157 101t184 35.5q104 0 197 -41l88 154l114 -64l-90 -159q85 -70 133.5 -177t48.5 -245q0 -124 -40.5 -226.5t-109 -168.5t-156.5 -102t-185 -36q-103 0 -203 43l-80 -145l-118 59l86 158q-177 154 -177 420zM291 506q0 -147 59 -236 l301 561q-51 23 -100 23q-117 0 -188.5 -96t-71.5 -252zM449 178q49 -22 102 -22q118 0 190 95.5t72 252.5q0 148 -63 239z" />
<glyph unicode="&#xf9;" horiz-adv-x="1216" d="M27 858v133l356 43l-2 -626q0 -109 49 -165.5t141 -56.5q73 0 138 39.5t92 85.5v529l-139 18v133l350 43q0 -343 -2 -821l159 -14v-131l-288 -86q-14 51 -54 178q-2 -2 -19.5 -21t-26 -27.5t-30 -28t-37.5 -30.5t-41.5 -26.5t-48 -24t-52 -14.5t-58.5 -6 q-185 0 -264.5 107.5t-79.5 318.5v430zM256 1405l131 207l399 -305l-92 -142z" />
<glyph unicode="&#xfa;" horiz-adv-x="1216" d="M27 858v133l356 43l-2 -626q0 -109 49 -165.5t141 -56.5q73 0 138 39.5t92 85.5v529l-139 18v133l350 43q0 -343 -2 -821l159 -14v-131l-288 -86q-14 51 -54 178q-2 -2 -19.5 -21t-26 -27.5t-30 -28t-37.5 -30.5t-41.5 -26.5t-48 -24t-52 -14.5t-58.5 -6 q-185 0 -264.5 107.5t-79.5 318.5v430zM424 1292l391 332l139 -180l-411 -285z" />
<glyph unicode="&#xfb;" horiz-adv-x="1216" d="M27 858v133l356 43l-2 -626q0 -109 49 -165.5t141 -56.5q73 0 138 39.5t92 85.5v529l-139 18v133l350 43q0 -343 -2 -821l159 -14v-131l-288 -86q-14 51 -54 178q-2 -2 -19.5 -21t-26 -27.5t-30 -28t-37.5 -30.5t-41.5 -26.5t-48 -24t-52 -14.5t-58.5 -6 q-185 0 -264.5 107.5t-79.5 318.5v430zM252 1214l274 353h127l283 -348l-125 -91l-221 240l-219 -240z" />
<glyph unicode="&#xfc;" horiz-adv-x="1216" d="M27 858v133l356 43l-2 -626q0 -109 49 -165.5t141 -56.5q73 0 138 39.5t92 85.5v529l-139 18v133l350 43q0 -343 -2 -821l159 -14v-131l-288 -86q-14 51 -54 178q-2 -2 -19.5 -21t-26 -27.5t-30 -28t-37.5 -30.5t-41.5 -26.5t-48 -24t-52 -14.5t-58.5 -6 q-185 0 -264.5 107.5t-79.5 318.5v430zM217 1423q0 63 43 102.5t102 39.5q56 0 97 -40t41 -102q0 -65 -40.5 -104t-97.5 -39q-59 0 -102 39.5t-43 103.5zM678 1423q0 62 42.5 102t98.5 40q59 0 100.5 -39.5t41.5 -102.5q0 -65 -41.5 -104t-100.5 -39q-57 0 -99 40t-42 103z " />
<glyph unicode="&#xfd;" horiz-adv-x="1091" d="M-4 887v131h455v-133l-111 -25l217 -567q57 118 129 307t86 268l-104 17v133h428v-121l-119 -33q-204 -556 -342 -811q-87 -162 -150 -263.5t-118 -156.5q-127 -124 -222 -129q-20 36 -82 195l5 4q127 39 213 125q118 118 161 231l-342 801zM424 1292l391 332l139 -180 l-411 -285z" />
<glyph unicode="&#xfe;" horiz-adv-x="1093" d="M-23 1393v129l369 43v-660l6 -2q30 28 49.5 44t57.5 40.5t83 36.5t95 12q176 0 287.5 -133.5t111.5 -359.5q0 -131 -40.5 -238.5t-109.5 -177t-159.5 -107.5t-191.5 -38q-94 0 -189 45v-363l178 -24v-136h-526v123l139 31v1696zM344 242l5 -6q5 -5 13 -11.5t19.5 -15 t28.5 -16t37.5 -14.5t48.5 -11t59 -4q106 0 187 93t81 253q0 60 -11.5 114t-37.5 103.5t-75 79t-115 29.5q-36 0 -69.5 -12t-56 -26.5t-48 -41t-36.5 -40.5t-30 -40v-434z" />
<glyph unicode="&#xff;" horiz-adv-x="1091" d="M-4 887v131h455v-133l-111 -25l217 -567q57 118 129 307t86 268l-104 17v133h428v-121l-119 -33q-204 -556 -342 -811q-87 -162 -150 -263.5t-118 -156.5q-127 -124 -222 -129q-20 36 -82 195l5 4q127 39 213 125q118 118 161 231l-342 801zM193 1423q0 63 43 102.5 t102 39.5q56 0 96.5 -39.5t40.5 -102.5q0 -65 -40 -104t-97 -39q-59 0 -102 39.5t-43 103.5zM653 1423q0 62 42.5 102t99.5 40q59 0 100 -39.5t41 -102.5q0 -65 -41 -104t-100 -39q-57 0 -99.5 40t-42.5 103z" />
<glyph unicode="&#x152;" horiz-adv-x="1882" d="M84 690q0 173 53 313.5t144.5 231t212.5 139.5t260 49q120 0 221 -43h788l21 -344l-10 -14l-142 -10l-61 205l-428 -5v-430l280 4l29 123h137l8 -12l-4 -416l-131 -18l-14 12l-16 143l-289 -4v-415l485 -13l68 187l141 -19l4 -10l-74 -344h-794q-101 -43 -219 -43 q-139 0 -260 49t-212.5 139.5t-144.5 231t-53 313.5zM336 690q0 -133 36 -239t96 -170t133 -97.5t153 -33.5q89 0 161 34v1014q-73 33 -161 33q-80 0 -153 -32t-133.5 -95t-96 -170t-35.5 -244z" />
<glyph unicode="&#x153;" horiz-adv-x="1824" d="M59 510q0 124 42.5 225.5t113.5 166t161.5 99.5t190.5 35q116 0 218 -58.5t157 -168.5h6q39 103 141 165t246 62q93 0 166.5 -29.5t119.5 -80.5t69.5 -115.5t23.5 -138.5q0 -169 -8 -193h-662v-10q0 -46 8.5 -87t32.5 -82.5t61 -71.5t98 -49t140 -19q152 0 246 94h6 l86 -125q-56 -67 -150.5 -107t-219.5 -40q-129 0 -231.5 55t-164.5 153q-65 -101 -168 -154.5t-221 -53.5q-99 0 -190 35.5t-162 100.5t-113.5 167t-42.5 225zM291 510q0 -156 75.5 -250t200.5 -94q123 0 197.5 91t75.5 245v14q-2 153 -76 245.5t-197 92.5 q-125 0 -200.5 -94t-75.5 -250zM1042 618h476v58q0 104 -62 166q-42 45 -127 45q-135 0 -203.5 -72t-83.5 -188v-9z" />
<glyph unicode="&#x178;" horiz-adv-x="1343" d="M2 1260v120h551v-120l-152 -29l291 -549l312 551l-164 27v120h510v-120l-150 -29l-412 -676v-399l164 -31v-125h-551v121l160 31v403l-418 678zM336 1698q0 62 43 101.5t102 39.5q56 0 96.5 -39.5t40.5 -101.5q0 -65 -40.5 -104.5t-96.5 -39.5q-59 0 -102 40t-43 104z M797 1698q0 62 42 101.5t99 39.5q59 0 100 -39t41 -102q0 -65 -41 -104.5t-100 -39.5q-57 0 -99 40t-42 104z" />
<glyph unicode="&#x2c6;" horiz-adv-x="980" d="M154 1214l274 353h127l283 -348l-125 -91l-221 240l-220 -240z" />
<glyph unicode="&#x2dc;" horiz-adv-x="1329" d="M242 1307q32 117 110.5 195.5t190.5 78.5q40 0 83 -21t73.5 -45.5t67 -45.5t64.5 -21q40 0 68.5 16.5t44 39t39.5 69.5h6l98 -49q-24 -113 -104.5 -192t-179.5 -79q-43 0 -89 20.5t-79 45t-71 45t-66 20.5q-54 0 -81 -23.5t-63 -84.5q-5 -9 -8 -14h-6z" />
<glyph unicode="&#x2000;" horiz-adv-x="979" />
<glyph unicode="&#x2001;" horiz-adv-x="1958" />
<glyph unicode="&#x2002;" horiz-adv-x="979" />
<glyph unicode="&#x2003;" horiz-adv-x="1958" />
<glyph unicode="&#x2004;" horiz-adv-x="652" />
<glyph unicode="&#x2005;" horiz-adv-x="489" />
<glyph unicode="&#x2006;" horiz-adv-x="326" />
<glyph unicode="&#x2007;" horiz-adv-x="326" />
<glyph unicode="&#x2008;" horiz-adv-x="244" />
<glyph unicode="&#x2009;" horiz-adv-x="391" />
<glyph unicode="&#x200a;" horiz-adv-x="108" />
<glyph unicode="&#x2010;" horiz-adv-x="821" d="M63 489v179h695v-179h-695z" />
<glyph unicode="&#x2011;" horiz-adv-x="821" d="M63 489v179h695v-179h-695z" />
<glyph unicode="&#x2012;" horiz-adv-x="821" d="M63 489v179h695v-179h-695z" />
<glyph unicode="&#x2013;" horiz-adv-x="1005" d="M51 489v179h903v-179h-903z" />
<glyph unicode="&#x2014;" horiz-adv-x="2179" d="M53 489v179h2073v-179h-2073z" />
<glyph unicode="&#x2018;" horiz-adv-x="495" d="M92 1163q0 74 22 142.5t59.5 122.5t79.5 95t91 74l76 -90q-1 -1 -26 -25.5t-35 -35t-32.5 -37t-33 -45t-20.5 -44t-11 -48.5h6q58 -2 102 -40t44 -104q0 -71 -45.5 -114t-110.5 -43q-71 0 -118.5 49t-47.5 143z" />
<glyph unicode="&#x2019;" horiz-adv-x="495" d="M92 934q1 1 26 25.5t35 35t32.5 37t33 45t20.5 44t11 48.5h-6q-58 2 -102 40t-44 104q0 71 45.5 114t110.5 43q71 0 118.5 -49t47.5 -143q0 -74 -22 -142.5t-59.5 -122.5t-79.5 -95t-91 -74z" />
<glyph unicode="&#x201a;" horiz-adv-x="630" d="M143 -238q3 3 22 21.5t29 29t28.5 30.5t29.5 36.5t23.5 37t18.5 41t7 40.5h-6q-58 2 -101.5 39.5t-43.5 103.5q0 71 45 114.5t110 43.5q71 0 118.5 -49t47.5 -144q0 -74 -22 -142.5t-59.5 -122.5t-79.5 -95t-91 -74z" />
<glyph unicode="&#x201c;" horiz-adv-x="991" d="M90 1163q0 97 39.5 186t92.5 146t120 104l76 -92l-25 -25q-25 -24 -34.5 -34t-32 -37t-33 -45.5t-20.5 -44.5t-11 -49h4q58 -2 103 -40.5t45 -105.5q0 -70 -46 -112.5t-110 -42.5q-73 0 -120.5 48t-47.5 144zM575 1163q0 142 73 252t181 184l74 -92q-3 -3 -25.5 -25 t-34.5 -34t-33 -37t-32.5 -44.5t-21.5 -45.5t-11 -49h7q58 -2 102.5 -40.5t44.5 -105.5q0 -70 -46 -112.5t-112 -42.5q-72 0 -119 48t-47 144z" />
<glyph unicode="&#x201d;" horiz-adv-x="991" d="M92 936q3 3 25.5 25t34.5 34t33 37t32.5 44.5t21.5 45.5t11 49h-6q-58 2 -103 40.5t-45 105.5q0 70 46.5 113t111.5 43q71 0 118.5 -48.5t47.5 -144.5q0 -142 -73 -252t-181 -184zM578 936q3 3 21.5 21t28 28t28 30t29 36.5t23 37t18.5 41.5t7 41h-4q-58 2 -102.5 40.5 t-44.5 105.5q0 70 45.5 113t109.5 43q73 0 120.5 -48.5t47.5 -144.5q0 -97 -39.5 -186t-92.5 -146t-120 -104z" />
<glyph unicode="&#x201e;" horiz-adv-x="989" d="M92 -238q1 1 25 24.5t35 35t33 37.5t33 45t21 45t11 49h-6q-58 2 -103 40t-45 105q0 70 46.5 113t111.5 43q71 0 118.5 -48.5t47.5 -144.5q0 -142 -73 -252t-181 -184zM578 -238q1 1 21 20.5t28.5 28.5t27.5 30t29.5 37t23 37t18.5 42t7 41h-4q-58 2 -102.5 40t-44.5 105 q0 70 45.5 113t109.5 43q73 0 120.5 -48.5t47.5 -144.5q0 -97 -39.5 -186t-92.5 -146t-120 -104z" />
<glyph unicode="&#x2022;" horiz-adv-x="815" d="M154 592q0 115 77.5 187.5t182.5 72.5q102 0 176 -71.5t74 -188.5t-74 -188.5t-176 -71.5q-105 0 -182.5 71.5t-77.5 188.5z" />
<glyph unicode="&#x2026;" horiz-adv-x="2088" d="M219 143q0 72 49.5 118t114.5 46q66 0 113 -45t47 -119t-47 -118.5t-113 -44.5q-65 0 -114.5 45t-49.5 118zM883 143q0 72 49 118t115 46q65 0 112 -45t47 -119q0 -73 -47 -118t-112 -45q-66 0 -115 45t-49 118zM1546 143q0 72 49 118t115 46q64 0 111 -45t47 -119 t-46.5 -118.5t-111.5 -44.5q-66 0 -115 45t-49 118z" />
<glyph unicode="&#x202f;" horiz-adv-x="391" />
<glyph unicode="&#x2039;" horiz-adv-x="727" d="M117 539v86l407 411l88 -92l-313 -360l313 -363l-88 -100z" />
<glyph unicode="&#x203a;" horiz-adv-x="727" d="M119 213l313 360l-313 363l88 100l407 -418v-86l-407 -411z" />
<glyph unicode="&#x205f;" horiz-adv-x="489" />
<glyph unicode="&#x20ac;" horiz-adv-x="1208" d="M-10 430l10 137h137q-4 20 -4 64q0 55 2 84h-135l6 137h144q38 202 199 326.5t376 124.5q153 0 251 -22t175 -77l2 -6l-82 -170q-35 15 -46 20t-50 19.5t-66 20.5t-69.5 12t-83.5 6q-140 0 -229.5 -67.5t-129.5 -186.5h602l-18 -137h-612q-4 -19 -4 -86q0 -30 8 -62h620 l-8 -137h-582q88 -266 379 -266q66 0 149.5 19.5t147.5 56.5h4l80 -179q-179 -110 -415 -110q-223 0 -386 132t-215 347h-157z" />
<glyph unicode="&#x2122;" horiz-adv-x="1349" d="M39 1516l4 4h467l4 -181l-68 -12l-6 2l-14 119h-96v-350l114 -13v-63h-321v63l100 13v350h-102l-2 -119l-72 -4l-2 4zM543 1022v63l98 13v344l-78 8v70h258l103 -332q10 33 47 152t57 180h248v-70l-74 -8l2 -344l94 -13v-63h-266v63l68 13v293l2 57h-2l-51 -133l-82 -250 l-99 4l-96 266l-39 109h-4l4 -53v-293l68 -13v-63h-258z" />
<glyph unicode="&#xe000;" horiz-adv-x="1013" d="M0 0v1014h1014v-1014h-1014z" />
<glyph unicode="&#xfb01;" horiz-adv-x="1298" d="M68 842v133l153 33q-4 78 -4 108q0 240 115 351.5t375 111.5q68 0 149 -13.5t128 -26.5l48 -13l-49 -170q-146 41 -303 41q-133 0 -192.5 -60.5t-59.5 -187.5q0 -71 8 -131l656 16v-878l174 -31v-125h-539v121l156 31v708l-443 -2v-702l170 -31v-125h-534v121l155 31v690 h-163z" />
<glyph unicode="&#xfb02;" horiz-adv-x="1384" d="M68 842v133l153 33q-4 78 -4 106q0 241 110 353t361 112q125 0 260 -49l203 26v-1400l172 -31v-125h-537v121l154 31v1194q-1 0 -4.5 1t-5.5 1q-109 49 -250 49q-134 0 -193 -61t-59 -187q0 -67 8 -127h307v-180h-303v-686l197 -31v-125h-561v121l155 31v690h-163z" />
</font>
</defs>
</svg>
